<svg xmlns="http://www.w3.org/2000/svg" width="487.355" height="338.826"><path fill="#F4F4F4" d="M.645.826H488v338.826H.645z"/><g fill="#80BACD"><circle cx="45.62" cy="259.272" r="5.794"/><circle cx="71.327" cy="258.22" r="6.848"/><circle cx="65.954" cy="255.695" r="6.848"/><circle cx="58.684" cy="248.848" r="6.848"/><circle cx="52.138" cy="252.521" r="7.572"/><path d="M45.62 265.067h25.707v-6.847l-11.958-11.958-13.064 13.063z"/></g><g fill="#80BACD"><circle cx="347.959" cy="63.858" r="8.261"/><circle cx="384.613" cy="62.355" r="9.764"/><circle cx="376.951" cy="58.757" r="9.765"/><circle cx="366.586" cy="48.993" r="9.763"/><circle cx="357.254" cy="54.231" r="10.796"/><path d="M347.959 72.12h36.653v-9.765l-17.049-17.049-18.626 18.627z"/></g><g fill="#80BACD"><circle cx="216.44" cy="312.961" r="4.663"/><circle cx="237.126" cy="312.113" r="5.511"/><circle cx="232.802" cy="310.082" r="5.511"/><circle cx="226.952" cy="304.571" r="5.511"/><circle cx="221.685" cy="307.527" r="6.093"/><path d="M216.439 317.624h20.687v-5.511l-9.622-9.622-10.513 10.513z"/></g><g fill="#296D80"><circle cx="80.64" cy="83.486" r="6.792"/><circle cx="110.77" cy="82.251" r="8.026"/><circle cx="104.472" cy="79.292" r="8.027"/><circle cx="95.952" cy="71.267" r="8.027"/><circle cx="88.28" cy="75.572" r="8.875"/><path d="M80.64 90.276h30.131v-8.025L96.754 68.235 81.442 83.548z"/></g><g fill="#296D80"><circle cx="377.135" cy="291.301" r="10.098"/><circle cx="421.932" cy="289.465" r="11.934"/><circle cx="412.568" cy="285.066" r="11.934"/><circle cx="399.9" cy="273.133" r="11.934"/><circle cx="388.494" cy="279.535" r="13.195"/><path d="M377.135 301.398h44.797v-11.933l-20.838-20.838-22.766 22.766z"/></g><g fill="#A8DCE3"><circle cx="221.176" cy="179.56" r="13.048"/><circle cx="279.063" cy="177.188" r="15.421"/><circle cx="266.963" cy="171.504" r="15.42"/><circle cx="250.594" cy="156.082" r="15.421"/><circle cx="235.854" cy="164.355" r="17.05"/><path d="M221.176 192.607h57.887v-15.419l-26.927-26.929-29.418 29.419z"/></g><path fill="#A8DCE3" d="M480.71 135.543a9.446 9.446 0 00-7.825 4.146 10.377 10.377 0 00-1.215-.072c-5.774 0-10.457 4.682-10.457 10.457 0 .488.036.968.102 1.438a8.002 8.002 0 001.354 15.888H488v-28.425a9.436 9.436 0 00-7.29-3.432zM20.271 157.943a9.457 9.457 0 00-9.544-9.455 9.436 9.436 0 00-7.916-3.468l.001-.02a9.415 9.415 0 00-2.167-6.024V167.4h10.169a9.457 9.457 0 009.457-9.457z"/></svg>