<svg xmlns="http://www.w3.org/2000/svg" width="487" height="338"><path fill="#A8DCE3" d="M0 0h487v338H0z"/><g fill="#FFF"><circle cx="55.611" cy="290.283" r="7.2"/><circle cx="87.554" cy="288.974" r="8.51"/><circle cx="80.877" cy="285.837" r="8.509"/><circle cx="71.844" cy="277.328" r="8.509"/><circle cx="63.71" cy="281.893" r="9.409"/><path d="M55.611 297.483h31.943v-8.509l-14.859-14.859-16.233 16.234z"/></g><g fill="#FFF"><circle cx="301.809" cy="65.167" r="7.883"/><circle cx="336.78" cy="63.734" r="9.316"/><circle cx="329.471" cy="60.3" r="9.316"/><circle cx="319.581" cy="50.983" r="9.316"/><circle cx="310.676" cy="55.981" r="10.3"/><path d="M301.809 73.05h34.971v-9.316l-16.267-16.268-17.773 17.772z"/></g><g fill="#FFF"><circle cx="101.223" cy="96.25" r="10.233"/><circle cx="146.622" cy="94.39" r="12.094"/><circle cx="137.132" cy="89.932" r="12.094"/><circle cx="124.294" cy="77.838" r="12.094"/><circle cx="112.734" cy="84.325" r="13.372"/><path d="M101.223 106.482h45.399V94.39l-21.118-21.119-23.071 23.072z"/></g><g fill="#FFF"><circle cx="369.668" cy="289.832" r="5.708"/><circle cx="394.994" cy="288.794" r="6.747"/><circle cx="389.701" cy="286.308" r="6.747"/><circle cx="382.539" cy="279.561" r="6.747"/><circle cx="376.09" cy="283.181" r="7.459"/><path d="M369.668 295.541h25.326v-6.747l-11.78-11.78-12.871 12.87z"/></g><g fill="#FFF"><circle cx="235.97" cy="205.42" r="14.6"/><circle cx="300.742" cy="202.766" r="17.254"/><circle cx="287.204" cy="196.405" r="17.254"/><circle cx="268.887" cy="179.15" r="17.254"/><circle cx="252.395" cy="188.407" r="19.078"/><path d="M235.971 220.02h64.771v-17.254l-30.129-30.131-32.917 32.918z"/></g><path fill="#FFF" d="M480.064 134.717a9.452 9.452 0 00-7.826 4.146 10.347 10.347 0 00-1.214-.072c-5.775 0-10.457 4.682-10.457 10.457 0 .488.036.968.101 1.438a8.002 8.002 0 001.355 15.888h25.332v-28.425a9.441 9.441 0 00-7.291-3.432zM19.627 157.117a9.457 9.457 0 00-9.458-9.457l-.086.002a9.436 9.436 0 00-7.916-3.468v-.02A9.415 9.415 0 000 138.15v28.425h10.169c5.224-.001 9.458-4.235 9.458-9.458z"/></svg>