<svg xmlns="http://www.w3.org/2000/svg" width="250" height="250"><g opacity=".08"><ellipse cx="115" cy="201.063" rx="99.021" ry="34.586"/><ellipse cx="198.369" cy="210.398" rx="37.521" ry="15.251"/></g><path fill="#91D0DD" d="M151 199.302l-37-21.39V130h37z"/><path fill="#80BBCE" d="M80 224.981l39.5-14.294s.243-30.517.243-34.942c0-4.427 4.382-14.086 15.247-17.615 10.867-3.528 16.01 1.362 16.01 6.161v35.011l36-13.133v-66.58L80 158.53v66.451z"/><path fill="#91D0DD" d="M43 137.049v66.495l37 21.437v-66.386z"/><path fill="#A9DDE4" d="M43.314 137.049l106.705-38.777 37.057 21.317-106.613 39.006z"/><g><path fill="#F0D986" d="M83 66.854c-10 .165-18 5.211-18 11.428v56.983c0 6.319 8.4 11.618 18.658 11.618.625 0 1.398.117 2.008.117H83V66.854z"/><path fill="#E6C373" d="M102 135.265V78.281c0-6.32-8.242-11.443-18.5-11.443-.168 0-.5.013-.5.016V147h2.666c9.38-1 16.334-5.801 16.334-11.735z"/></g><g><path fill="#F0D986" d="M145 44.564c-10 .165-18 5.211-18 11.428v56.983c0 6.319 8.4 11.763 18.658 11.763.625 0 1.398.262 2.008.262H145V44.564z"/><path fill="#E6C373" d="M164 112.976V55.992c0-6.32-8.242-11.443-18.5-11.443-.168 0-.5.013-.5.016V125h2.666c9.38-1 16.334-6.09 16.334-12.024z"/></g><g><path fill="#BF5B51" d="M79.013 96.297l53.706-59.751 53.972 20.12L79.013 96.297"/><path fill="#FF9085" d="M79.013 96.297L43.314 74.745 95.8 15.233l36.919 21.313z"/><path fill="#FF7E70" d="M95.8 15.233l36.919 21.313 53.988 20.114-47.766-25.192z"/></g><g><path fill="#E2CED3" d="M200.793 161.17l-30.479 11.109 25.63 16.924 30.48-13.108z"/><path fill="#D7B2B9" d="M170.314 172.287v28.854l25.63 16.924v-28.852z"/><path fill="#CD96A3" d="M195.944 189.213v28.852l30.48-13.118v-28.852z"/></g></svg>