<svg xmlns="http://www.w3.org/2000/svg" width="250" height="250"><g opacity=".08"><ellipse cx="122.839" cy="221.542" rx="87.372" ry="17.167"/><ellipse cx="161.005" cy="203.817" rx="42.333" ry="9.46"/></g><path fill="#91D0DD" d="M121.344 135.984c-.934-.559-13.395-10.797-12.789-15.232.604-4.434 7.863 1.18 12.904-2.82 5.043-4.002 5.457-21.172-5.051-24.093-10.504-2.921-10.854 12.579-16.043 10.674-3.258-1.194-63.457 9.554-63.457 9.554-4.777 2.76-7 10.75-3.25 17.346l26.479 45.857c9.358-2.953 54.123-34.291 61.207-41.286z"/><path fill="#80BBCE" d="M162 117.399c.781 5.806 6.797 2.339 9.418 9.235 2.621 6.896-5.387 15.67-14.605 14.729-9.221-.939-3.949 34.412-5.061 43.496-.217 1.747-.512 4.645 2.529 5.621l58.193-33.598c4.777-2.76 8.061-10.941 3.656-18.483l-25.727-39.724c-1.639.417-3.371.877-5.191 1.384-14.075 3.92-24.804 5.507-23.212 17.34z"/><path fill="#E6C373" d="M98.045 222.949l56.236-32.469c-.809-1.477-1.266-2.496-1.836-3.777-6.686-15.006-92.16-31.076-92.309-14.27-.018 1.768 0 2.867 0 4.836l24.26 42.023c2.76 4.778 8.87 6.415 13.649 3.657z"/><path fill="#CD96A3" d="M113.822 42.207c3.541 4.246 9.254-6.604 16.893 1.18 7.639 7.781 1.033 20.045-5.334 20.989-6.367.943-9.732-10.099-12.473-6.56-2.74 3.537-1.208 13.652 1.859 19.421.453.851.957 1.765 1.486 2.716a82.603 82.603 0 017.006-1.52c13.678-2.344 21.932 2.342 20.752 9.229-.258 1.512-1.984.422-2.867 2.648-1.105 2.787-1.041 9.02 3.137 12.034 7.514 5.425 22.004.972 20.123-10.506-1.191-7.28-7.422-3.173-3.648-7.653 3.775-4.48 14.623-7.055 28.771-3.41 1.83.471 3.563.939 5.189 1.396l-.002-50.021c0-5.517-4.473-9.99-9.988-9.989l-69.563-2.652c-2.628 12.307-3.563 20.036-1.341 22.698z"/><path fill="#A9DDE4" d="M82.575 164.137c3.733-2.971-1.544-1.264-7.04-5.592-5.492-4.327 2.605-11.998 9.322-14.515s13.105.059 12.977 4.081c-.129 4.023-2.414 12.799 5.189 4.271 6.17-6.918 11.236-14.24 18.32-21.234a178.293 178.293 0 01-2.645-1.609c-5.541-3.462-10.75-9.188-10.145-13.623.604-4.434 7.863 1.18 12.904-2.821 5.043-4.001 4.631-17.924-5.875-20.845-10.508-2.921-10.029 9.332-15.219 7.426-3.258-1.194-6.021-9.533-8.623-18.17L37.316 112.93c-4.777 2.76-6.414 8.868-3.658 13.646l26.479 45.857c9.358-2.953 20.365-6.644 22.438-8.296z"/><path fill="#F0D986" d="M98.045 218.112l54.4-31.409c-.611-2.609-.91-4.934-.693-6.68 1.111-9.084-.82-17.771-4.783-20.385-3.961-2.616-5.49 1.808-7.811 7.232-2.32 5.423-8.833 5.916-14.283-1.557-5.451-7.475.463-15.789 7.109-14.181 6.648 1.608 5.568-4.032 3.371-8.755-1.871-4.026-8.627-8-14.012-11.23-7.084 6.994-12.15 14.316-18.32 21.234-7.604 8.527-5.318-.248-5.189-4.271.129-4.022-6.26-6.598-12.977-4.081s-14.814 10.188-9.322 14.515c5.496 4.328 10.773 2.621 7.04 5.592-2.073 1.652-13.08 5.344-22.438 8.297l24.26 42.022c2.759 4.779 8.869 6.416 13.648 3.657z"/><path fill="#91D0DD" d="M162 112.563c-1.027 5.768 6.797 2.34 9.418 9.235s-5.387 15.67-14.605 14.729c-9.221-.94-6.379-9.344-7.574-12.582-2.422-6.553-11.914-6.483-22.588 2.385a83.124 83.124 0 00-5.307 4.818c5.385 3.23 12.141 7.204 14.012 11.23 2.197 4.723 3.277 10.363-3.371 8.755-6.646-1.608-12.561 6.706-7.109 14.181 5.45 7.473 11.963 6.979 14.283 1.557 2.32-5.425 3.85-9.849 7.811-7.232 3.963 2.613 5.895 11.301 4.783 20.385-.217 1.746.082 4.07.693 6.68l60.029-34.657c4.777-2.759 6.414-8.868 3.656-13.646L190.404 93.84c-1.639.417-3.371.878-5.191 1.384-14.076 3.918-22.184 11.571-23.213 17.339z"/><path fill="#D7B2B9" d="M113.822 38.373c3.541 4.246 9.254-6.604 16.893 1.18 7.639 7.781 1.033 20.045-5.334 20.99-6.367.943-9.848-7.549-12.586-4.01-2.742 3.537-1.095 11.102 1.973 16.871.453.85.957 1.764 1.486 2.715a82.603 82.603 0 017.006-1.52c13.678-2.344 21.932 2.342 20.752 9.229-.582 3.402-7.244 9.26.27 14.684s18.834 1.828 20.014-5.453c1.178-7.281-7.313-8.227-3.539-12.707 3.775-4.48 14.623-7.055 28.771-3.41 1.83.471 3.563.939 5.189 1.396l-.002-50.02c0-5.518-4.473-9.99-9.988-9.99H115.44c-2.067 8.779-3.84 17.383-1.618 20.045z"/></svg>