<svg xmlns="http://www.w3.org/2000/svg" width="24" height="26"><g fill="#E5E5E5"><path d="M13.833 4.671c-1.093-1.893.207-2.753 1.869-3.713 1.663-.959 3.058-1.656 4.151.237 1.093 1.894.631 4.206-1.031 5.165-1.663.96-3.896.204-4.989-1.689z"/><ellipse transform="rotate(105.005 22.706 3.866)" cx="22.706" cy="3.866" rx="1.069" ry="1.31"/><ellipse transform="rotate(136.253 21.651 7.496)" cx="21.651" cy="7.496" rx="1.215" ry="1.487"/><ellipse transform="rotate(14.999 14.72 8.478)" cx="14.719" cy="8.477" rx="1.07" ry="1.31"/><ellipse transform="rotate(-16.266 18.388 9.379)" cx="18.389" cy="9.379" rx="1.215" ry="1.489"/><g><path d="M4.147 14.174c1.093-1.894 2.488-1.198 4.15-.238 1.663.96 2.963 1.821 1.87 3.714s-3.326 2.646-4.988 1.688c-1.662-.96-2.125-3.273-1.032-5.164z"/><ellipse transform="rotate(164.95 9.282 21.454)" cx="9.282" cy="21.454" rx="1.07" ry="1.309"/><ellipse transform="scale(-1) rotate(16.307 156.028 -39.164)" cx="5.612" cy="22.356" rx="1.215" ry="1.487"/><path d="M1.572 17.877c.698-.188 1.14-.803.986-1.373-.152-.57-.842-.881-1.539-.694-.7.188-1.142.802-.989 1.372.154.569.843.881 1.542.695z"/><ellipse transform="rotate(43.764 2.348 20.472)" cx="2.349" cy="20.473" rx="1.216" ry="1.488"/></g></g></svg>