<svg xmlns="http://www.w3.org/2000/svg" width="250" height="250"><g opacity=".08"><ellipse cx="84.684" cy="221.042" rx="60.609" ry="17.167"/><ellipse cx="171.684" cy="221.042" rx="60.609" ry="17.167"/></g><path fill="#E6C373" d="M139.353 128.502c-6.497-3.389-10.031-3.427-14.448 1.629-4.418 5.057-1.466 7.357.604 7.51 2.068.153 3.063-5.697 7.277-6.424 4.219-.729 5.274 6.189 2.945 9.201-2.328 3.012-5.855-1.336-8.973 2.436-3.117 3.773-1.85 8.508 5.99 10.611 7.839 2.102 15.814-.748 16.376-12.633.562-11.884-4.223-9.438-9.771-12.33z"/><path fill="#BF5B51" d="M195.521 105.853c5.003 8.862-4.708 17.661-23.77 28.423-4.604 2.599-16.264 9.093-19.283 10.797-3.948 2.229-4.769.85-9.939-8.311-4.769-8.445-6.196-10.607-3.365-12.207 3.474-1.959 15.654-8.612 21.642-11.992 19.907-11.24 29.711-15.575 34.715-6.71z"/><path fill="#5E5B5B" d="M157.189 155.32c1.104 7.406 1.458 43-1.147 44.994-2.606 1.994-5.926 4.84-7.706 9.398-1.781 4.558-5.329 13.672 7.706 13.672h38.534c7.48 0 8.5.854 8.5-21.932 0-22.784 5.441-36.456 0-53.545-5.437-17.089-48.65-11.159-45.887 7.413z"/><path fill="#7F7D7D" d="M166.613 155.4c1.103 7.406 4.277 43.92 1.67 45.914-2.605 1.994-5.924 4.84-7.707 9.398-1.778 4.558-5.328 13.672 7.707 13.672h36.496c7.479 0 10.541.854 10.541-21.932v-53.545c0-17.837-51.47-12.079-48.707 6.493z"/><path fill="#E6C373" d="M171.209 75.003h28.301v28.78h-28.301z"/><circle fill="#F0D986" cx="185.359" cy="55.832" r="30.701"/><circle fill="#9B6D44" cx="171.208" cy="49.453" r="3.837"/><path fill="#9B6D44" d="M185.359 19.84c-10.074 0-27.744 6.806-27.744 22.843 0 0 30.623-3.655 30.623-8.933 0 0 1.624 21.941 10.498 21.941 0 0 2.639-5.403 7.436-5.403s7.039 6.843 2.723 12.599c-4.319 5.756-9.158 3.357-9.158 3.357s-1.3 5.128-1.1 8.759c.13 2.361.799 4.954 2.648 7.079 0 0 18.132-8.016 18.132-29.751 0-13.304-8.635-32.491-34.058-32.491zM172.311 67.295a1.44 1.44 0 00-2.202-1.852c-3.344 3.97-11.479 3.861-11.556 3.861a1.382 1.382 0 00-.693.173c.461.927.966 1.824 1.514 2.693 2.448-.082 9.409-.686 12.937-4.875z"/><path fill="#E6C373" d="M178.917 81.191c-4.941 0-9.675-.888-14.053-2.508a30.583 30.583 0 0020.495 7.849c16.597 0 30.108-13.172 30.673-29.63-6.253 14.295-20.513 24.289-37.115 24.289z"/><path fill="#7F4220" d="M198.736 76.008c.252 2.074.957 4.246 2.549 6.074 0 0 18.132-8.016 18.132-29.751a33.41 33.41 0 00-.467-5.473c-1.915 12.535-9.583 23.169-20.214 29.15z"/><path fill="#FF7E70" d="M186.475 88.434c13.883 0 27.518 5.604 28.884 36.456.822 18.594.701 23.864.701 29.74 0 4.535-14.019 5.349-28.411 5.349-17.968 0-31.67-.396-31.67-5.829 0-4.634-.239-10.378 1.367-25.024 3.185-29.065 8.646-40.692 29.129-40.692z"/><path fill="#BF5B51" d="M187.434 100.301c-6.053.916-7.723 13.08-15.822 59.381 4.658.252 10.113.297 16.037.297 6.647 0 13.211-.175 18.354-.809-.353-7.379-3.522-61.148-18.569-58.869z"/><path fill="#A3A2A3" d="M100.572 155.32c-1.104 7.406-1.458 43 1.148 44.994 2.604 1.994 5.925 4.84 7.705 9.398 1.781 4.558 5.329 13.672-7.705 13.672H63.184c-7.479 0-8.5.854-8.5-21.932 0-22.784-5.442-36.456 0-53.545 5.439-17.089 48.652-11.159 45.888 7.413z"/><path fill="#B3B2B3" d="M91.149 154.4c-1.104 7.406-4.28 43.92-1.672 45.914 2.607 1.994 5.925 4.84 7.706 9.398 1.78 4.558 5.33 13.672-7.706 13.672H52.982c-7.479 0-10.541.854-10.541-21.932v-53.545c0-17.837 51.472-12.079 48.708 6.493z"/><g><path fill="#E6C373" d="M58.252 75.003h28.301v28.78H58.252z"/><circle fill="#F0D986" cx="72.401" cy="55.832" r="30.7"/><circle fill="#9B6D44" cx="86.553" cy="49.453" r="3.837"/><path fill="#9B6D44" d="M85.451 67.295a1.438 1.438 0 112.202-1.852c3.345 3.97 11.479 3.861 11.556 3.861.248-.007.482.06.694.173a30.791 30.791 0 01-1.514 2.693c-2.45-.082-9.41-.686-12.938-4.875z"/><path fill="#E6C373" d="M42.685 63.561c3.427 13.213 15.433 22.972 29.718 22.972 8.892 0 16.896-3.784 22.502-9.824a41.133 41.133 0 01-18.467 4.358c-13.948-.001-26.273-6.921-33.753-17.506z"/><path fill="#9B6D44" d="M70.723 42.385h36.355s-3.711-24.943-35.333-24.943c-31.62 0-53.248 28.174-33.74 57.562h32.718V42.385z"/><path fill="#7F4220" d="M36.25 36.296c0-.671.021-1.337.059-1.998-7.487 10.804-8.335 25.594 1.696 40.705h32.718v-2.585C51.43 70.928 36.25 55.33 36.25 36.296z"/></g><path fill="#91D0DD" d="M71.285 88.434c-13.881 0-27.516 5.604-28.882 36.456-.822 18.594-.702 23.864-.702 29.74 0 4.535 14.021 5.349 28.412 5.349 17.969 0 31.67-.396 31.67-5.829 0-4.634.24-10.378-1.365-25.024-3.187-29.065-8.648-40.692-29.133-40.692z"/><path fill="#80BBCE" d="M99.982 125.414l-37.477-14.531s-1.005 5.87 13.828 20.09c9.221 8.839 19.213 14.887 25.455 18.199-.039-4.182-.273-10.032-1.371-20.047a250.033 250.033 0 00-.435-3.711z"/><g><path fill="#F0D986" d="M119.969 128.502c6.498-3.389 10.033-3.427 14.449 1.629 4.417 5.057 1.466 7.357-.604 7.51-2.071.153-3.063-5.697-7.278-6.424-4.218-.729-5.273 6.189-2.944 9.201 2.328 3.012 5.855-1.336 8.974 2.436 3.116 3.773 1.846 8.508-5.99 10.611-7.84 2.102-15.814-.748-16.376-12.633-.562-11.884 4.219-9.438 9.769-12.33z"/><path fill="#A9DDE4" d="M63.801 105.853c-5.004 8.862 4.707 17.661 23.769 28.423 4.604 2.599 16.265 9.093 19.285 10.797 3.947 2.229 4.767.85 9.938-8.311 4.768-8.445 6.195-10.607 3.365-12.207-3.474-1.959-15.654-8.612-21.642-11.992-19.907-11.24-29.71-15.575-34.715-6.71z"/></g><path fill="#80BBCE" d="M41.708 147.477c-.022 2.799-.007 4.934-.007 7.153 0 4.535 14.021 5.349 28.412 5.349 17.969 0 31.67-.396 31.67-5.829 0-1.865.037-3.923-.021-6.657-2.759 6.235-18.581 8.636-30.017 8.636-11.444-.001-26.912-3.104-30.037-8.652z"/><path fill="#BF5B51" d="M156 147.492c-.059 2.734-.021 4.792-.021 6.657 0 5.434 13.702 5.829 31.67 5.829 14.393 0 28.411-.813 28.411-5.349 0-2.22.016-4.354-.006-7.153-2.721 5.049-18.593 8.651-30.038 8.651-11.435.001-27.257-3.436-30.016-8.635z"/><g><path fill="#F0D986" d="M179.543 160.347c-6.146 3.993-7.917 7.051-5.686 13.384 2.23 6.332 5.686 4.893 6.837 3.166 1.15-1.727-3.454-5.469-2.016-9.498s7.981-1.547 9.46 1.961c1.477 3.508-4.043 4.442-2.289 9.012 1.752 4.568 6.5 5.791 12.184 0 5.686-5.792 7.123-14.139-2.949-20.471-10.072-6.331-10.295-.965-15.541 2.446z"/><path fill="#FF9085" d="M187.434 100.301c10.18 0 13.064 12.781 13.064 34.672 0 5.287-.078 18.633-.078 22.1 0 4.533-1.603 4.57-12.123 4.57-9.698 0-12.284.179-12.284-3.072 0-3.988.197-17.865.197-24.741 0-22.862 1.044-33.529 11.224-33.529z"/></g><path fill="#7F4220" d="M36.25 36.296c0-.671.021-1.337.059-1.998-7.487 10.804-8.335 25.594 1.696 40.705h32.718v-2.585C51.43 70.928 36.25 55.33 36.25 36.296z"/></svg>