<svg xmlns="http://www.w3.org/2000/svg" xmlns:xlink="http://www.w3.org/1999/xlink" width="250" height="250"><g opacity=".08"><ellipse cx="125" cy="205.691" rx="93.301" ry="16.175"/><ellipse cx="67.524" cy="222.346" rx="24.273" ry="8.959"/><ellipse cx="182.475" cy="222.346" rx="24.274" ry="8.959"/></g><path fill="#F0D986" d="M155.967 118.546c3.719-1.12 15.265-.155 23.528-15.583 8.266-15.427 18.08-27.611 27.5-24.659 9.421 2.952 12.954 11.725 10.599 19.899-2.355 8.174-12.977 42.718-55.162 36.829-42.187-5.887-6.465-16.486-6.465-16.486z"/><path fill="#F7E9AD" d="M200.715 85.305c-7.402 2.709-10.206 9.926-5.104 16.48 5.104 6.556 14.916.66 16.879-6.01 1.961-6.67-3.532-13.487-11.775-10.47z"/><path fill="#E4CC80" d="M206.834 87.275c6.055 4.494 3.781 12.125 3.781 12.125l.002-.003c.849-1.127 1.5-2.36 1.873-3.622 1.961-6.67-3.532-13.487-11.775-10.471a14.235 14.235 0 00-2.872 1.433c1.964-1.171 5.623-1.962 8.991.538z"/><path fill="#F0D986" d="M94.979 115.309c-22.549-1.865-23.8-15.211-36.362-30.961-12.56-15.75-29.046.83-26.691 11.185 2.355 10.355 12.169 43.101 59.273 36.935 47.104-6.168 3.78-17.159 3.78-17.159z"/><path fill="#E6C373" d="M91.199 132.467c37.459-4.904 17.729-12.859 8.08-15.911-10.682 6.237-23.422 11.362-35.779 10.636-5.457-.32-10.283-1.545-14.537-3.318 8.838 6.771 22.142 11.224 42.236 8.593zM162.432 135.032c16.411 2.291 28.044-1.538 36.271-7.553a69.701 69.701 0 01-9.604 1.712c-13.158 1.375-25.828-3.33-36.363-9.55-7.735 2.858-24.269 10.651 9.696 15.391z"/><path fill="#F7E9AD" d="M44.235 84.268c-6.395 4.871-6.028 19.266 3.392 19.658 9.422.393 13.347-11.05 7.852-16.711-5.497-5.663-9.173-4.526-11.244-2.947z"/><path fill="#F7E9AD" d="M40.339 97.592a21.88 21.88 0 01-.419-3.521 13.389 13.389 0 00.419 3.521zM57.597 90.878c.015.052.025.095.032.12-.012-.04-.021-.08-.032-.12z"/><path fill="#E4CC80" d="M57.629 90.998zM40.348 97.633v-.01l-.009-.031a.977.977 0 00.009.041zM46.834 86.441c6.834-3.166 10.803 4.59 10.803 4.59l-.008-.032v-.001l-.032-.12a8.77 8.77 0 00-2.118-3.663c-5.496-5.663-9.173-4.525-11.243-2.947-2.776 2.115-4.275 6.023-4.315 9.803a21.88 21.88 0 00.419 3.521c.003.01.005.021.009.031-.009-.106-.309-8.033 6.485-11.182z"/><path fill="#F0D986" d="M160.568 152.774c7.311-5.103 17.877-9.421 27.475-4.141 13.27 7.302 10.988 24.221 5.61 33.094 0 0 13.783-7.813 19.75 1.409 6.987 10.805-2.865 25.621-25.516 37.152-22.648 11.531-23.121-1.58-24.853-14.926-1.852-14.277-25.468-9.88-25.468-9.88l23.002-42.708zM83.399 153.166c-3.85-3.533-12.173-11.775-26.46-1.963-14.287 9.814-3.376 27.085 0 31.01 0 0-13.895-9.813-20.96 3.533s10.638 30.225 27.888 36.506c17.252 6.28 21.963-2.355 23.141-7.066 1.178-4.709-6.626-9.598 1.717-15.779 8.343-6.18 24.533-1.547 27.434-5.105 2.901-3.563-32.76-41.136-32.76-41.136z"/><path fill="#F7E9AD" d="M42.445 188.887c-2.947 3.368-.165 10.483 12.168 19.626 12.558 9.31 19.014 9.028 22.068 6.673 3.054-2.354-3.206-9.084-14.218-17.663-11.012-8.58-17.271-11.777-20.018-8.636zM187.682 196.345c-7.083 6.792-15.947 14.708-11.698 19.052 4.247 4.346 11.921-1.536 21.671-8.912 7.297-5.522 13.187-14.07 10.832-17.99-2.356-3.923-13.696 1.033-20.805 7.85z"/><path fill="#F0D986" d="M98.314 33.76s-8.504-10.076-20.803-6.936c-12.3 3.141-6.02 4.973-6.02 4.973s-4.973 2.879-2.879 8.375c0 0-4.448 3.139-3.139 6.803 1.309 3.664 3.139 2.094 3.139 2.094s.262 10.205 9.684 14.654c9.422 4.448 20.018-29.963 20.018-29.963zM149.737 31.012s11.775-8.373 18.057-6.541c6.28 1.83 7.064 4.709 7.064 4.709s.785-2.617 3.664-1.57c2.878 1.047 3.402 8.375 3.402 8.375s1.308-.263 1.57 1.308c.261 1.571-1.047 4.973-1.047 4.973s1.901.261 1.081 4.972-7.886 17.241-12.857 16.864c-4.972-.379-22.766-27.856-20.934-33.09z"/><path fill="#F7E9AD" d="M156.671 37.488c.487-1.043 4.688-6.477 9.999-5.691 5.311.785 8.449 4.121 9.236 9.027.784 4.907-4.515 19.627-11.188 17.272-6.672-2.356-10.99-14.326-8.047-20.608z"/><path fill="#E4CC80" d="M155 39.566s6.125-11.125 14.75-8.75 9.875 16.664 0 28.457c0 0 8.875-14.395 2.375-23.957-3.901-5.74-12.645-2.375-17.125 4.25z"/><path fill="#F7E9AD" d="M94.652 40.433c-2.006-3.573-10.819-10.991-15.42-6.673-4.6 4.317-7.151 15.309-2.637 21 4.514 5.691 11.773 6.28 16.094-1.373 4.318-7.656 1.963-12.954 1.963-12.954z"/><path fill="#F0D986" d="M97.683 103.087c-3.532 4.86-24.306 27.104-19.671 56.675s25.213 39.645 49.373 39.645c24.161 0 38.368-10.597 43.341-32.578 4.972-21.982 1.146-47.129-19.527-65.828-20.674-18.698-53.516 2.086-53.516 2.086z"/><path fill="#E6C373" d="M77.396 154.289s2.547 36.507 46.902 38.076c44.355 1.57 48.291-38.076 48.291-38.076s3.564 48.226-47.055 48.226c-50.614 0-48.138-48.226-48.138-48.226zM95.293 103.087c0 6.038 11.359 20.815 28.724 20.854 16.642.037 28.337-8.535 31.714-22.941 3.434-14.646-60.438 2.087-60.438 2.087z"/><path fill="#E4CC80" d="M95.293 40.775s-9.224-8.434-13.52-6.668c-4.296 1.767-9.061 13.002-6.417 18.585 0 0-5.746-5.021.913-16.778 6.66-11.756 18.107 3.527 19.024 4.861z"/><path fill="#F0D986" d="M78.95 77.289c-1.25-12.237 1.233-25.009 8.926-34.988 7.692-9.98 15.28-14.043 26.532-16.198 0 0 1.57-8.698 6.282-7.39 4.71 1.307 0 7.39 0 7.39s3.925-5.819 8.635-5.558 0 3.662 0 3.662 11.515-1.045 23.028 8.113c11.514 9.159 22.766 21.458 17.795 45.271-4.972 23.814-20.543 35.852-47.365 35.852-28.524 0-42.523-23.33-43.833-36.154z"/><ellipse fill="#9B6D44" cx="104.693" cy="66.475" rx="6.379" ry="5.201"/><ellipse fill="#7F4220" cx="104.692" cy="66.475" rx="3.769" ry="3.072"/><ellipse transform="rotate(-13.675 102.954 64.6)" fill="#FFF" cx="102.938" cy="64.591" rx="2.639" ry="1.884"/><g><ellipse fill="#9B6D44" cx="143.946" cy="66.475" rx="6.379" ry="5.201"/><ellipse fill="#7F4220" cx="143.946" cy="66.475" rx="3.769" ry="3.072"/><ellipse transform="rotate(-13.68 142.204 64.596)" fill="#FFF" cx="142.19" cy="64.591" rx="2.638" ry="1.884"/></g><g><path fill="#F7E9AD" d="M124.23 71.424c-10.723.605-17.482 2.582-20.587 12.38-3.104 9.798 1.905 15.489 10.294 19.808 8.388 4.318 19.736 2.158 26.721-3.729s7.377-17.075.803-22.374c-6.575-5.3-10.512-6.464-17.231-6.085z"/><path fill="#9B6D44" d="M123.699 75.35c-4.905-.127-7.721 1.111-3.939 5.712 4.326 5.263 8.648.764 9.631-1.396.919-2.021 1.963-4.121-5.692-4.316zM109.176 88.051c-1.592 1.408 2.088 5.582 6.771 5.582 4.317 0 8.283-2.835 8.283-2.835s3.271 2.817 8.887 2.817c4.45 0 9.55-4.416 7.177-5.564-1.511-.73-1.804 3.064-6.71 3.807-4.907.742-5.682-3.883-9.354-3.943s-3.355 4.095-8.313 3.943c-4.958-.151-5.013-5.336-6.741-3.807z"/><g fill="#7F4220"><path d="M120.751 77.941c-.894-.626-1.884-.15-2.607.424.22.733.731 1.619 1.616 2.696.586.713 1.172 1.241 1.75 1.626.211-1.595.32-3.99-.759-4.746zM129.391 79.666c.176-.386.354-.775.477-1.153-.734-.634-1.816-1.251-2.786-.571-1.126.788-.958 3.362-.731 4.95 1.485-.818 2.599-2.256 3.04-3.226z"/></g><path fill="#E4CC80" d="M113.938 103.611c8.388 4.318 19.736 2.158 26.721-3.729 4.459-3.761 6.219-9.678 5.205-14.847.152 1.402 1.293 16.656-21.428 16.656-22.973 0-21.446-14.882-21.31-15.935-1.876 8.615 2.997 13.833 10.812 17.855z"/></g><path fill="#E4CC80" d="M195.465 88.707c-.318.361-.485.607-.485.607s.171-.232.485-.607z"/><path fill="#FF7E70" d="M145.098 137.416c-12.219-6.669-19.834 4.128-19.834 4.128s-7.616-10.797-19.835-4.128c-6.37 3.477-6.903 16.832 0 25.881 6.337 8.305 19.835 12.496 19.835 12.496s13.497-4.191 19.834-12.496c6.904-9.049 6.371-22.404 0-25.881z"/><path fill="#E4CC80" d="M43.408 190.84c3.277-3.944 12.352 1.771 13.042 2.217-7.343-5.125-11.805-6.686-14.005-4.17-2.947 3.368-.165 10.483 12.168 19.626.639.474 1.25.905 1.856 1.329-.57-.518-16.407-14.975-13.061-19.002zM208.486 188.494c-2.204-3.67-12.276.436-19.387 6.564.014-.01 13.9-9.716 17.649-5.543 3.75 4.175-14.798 21.225-14.804 21.23 1.809-1.309 3.713-2.753 5.709-4.262 7.298-5.521 13.188-14.069 10.833-17.989z"/><g><defs><path id="a" d="M145.098 137.416c-12.219-6.669-19.834 4.128-19.834 4.128s-7.616-10.797-19.835-4.128c-6.37 3.477-6.903 16.832 0 25.881 6.337 8.305 19.835 12.496 19.835 12.496s13.497-4.191 19.834-12.496c6.904-9.049 6.371-22.404 0-25.881z"/></defs><clipPath id="b"><use xlink:href="#a" overflow="visible"/></clipPath><g clip-path="url(#b)"><path fill="#BF5B51" d="M94.663 102.832v102.386h61.201V102.832H94.663zm30.601 64.921c-15.328 0-27.752-11.637-27.752-25.989 0-14.354 12.424-25.99 27.752-25.99s27.752 11.637 27.752 25.99c0 14.352-12.424 25.989-27.752 25.989z"/></g></g></svg>