<svg xmlns="http://www.w3.org/2000/svg" width="250" height="250"><ellipse opacity=".08" cx="124.371" cy="221.292" rx="82.296" ry="17.167"/><path fill="#B3B2B3" d="M66 82h2v52h-2z"/><path fill="#E4CC80" d="M80.826 127.275a2.196 2.196 0 00-2.094-.999l-7.678.861-5.063-5.837a2.2 2.2 0 00-2.219-.688 2.202 2.202 0 00-1.596 1.686l-1.554 7.566-7.115 3.011a2.2 2.2 0 00-.23 3.936l6.716 3.818.663 7.696a2.201 2.201 0 003.676 1.435l5.706-5.21 7.524 1.747c.355.083.716.074 1.053-.016a2.195 2.195 0 001.145-.733c.53-.646.646-1.539.303-2.301l-3.191-7.037 3.988-6.617a2.19 2.19 0 00-.034-2.318z"/><path fill="#B3B2B3" d="M154 68h1v89h-1z"/><path fill="#FF7E70" d="M167.074 149.268c-.416-1.953-1.408-3.443-2.793-4.2-1.428-.781-2.873-1.177-4.291-1.177-2.585 0-4.498 1.297-5.598 2.313-1.101-1.017-3.013-2.313-5.598-2.313-1.417 0-2.861.396-4.291 1.176-1.387.758-2.378 2.248-2.794 4.201-.681 3.193.254 7.054 2.378 9.836 3.176 4.164 9.641 6.209 9.913 6.293a1.334 1.334 0 00.783 0c.275-.084 6.739-2.129 9.916-6.292 2.122-2.784 3.055-6.644 2.375-9.837z"/><g><path fill="#B3B2B3" d="M201 61h1v53h-1z"/><path fill="#E4CC80" d="M195.221 111.076a1.62 1.62 0 00-1.037 1.512c0 .67.416 1.27 1.043 1.506a7.914 7.914 0 014.391 4.06c1.867 3.972.152 8.722-3.818 10.587a7.937 7.937 0 01-5.742.396 1.613 1.613 0 00-1.861 2.375 14.039 14.039 0 0018.041 5.463c7.029-3.301 10.063-11.705 6.759-18.734-3.121-6.642-10.929-9.79-17.776-7.165z"/></g><g><path fill="#B3B2B3" d="M122 19h7v191h-7z"/><path fill="#A3A2A3" d="M126 19h3v191h-3z"/><path fill="#80BBCE" d="M110 226.752c-11.854 0-22-9.609-22-21.422v-3.08c0-3.598 3.402-6.515 7-6.515s7 2.917 7 6.515v3.08c0 4.629 3.33 8.394 8 8.394s8-3.765 8-8.394v-17.412c0-3.598 3.402-6.514 7-6.514s7 2.916 7 6.514v17.412c0 11.813-10.147 21.422-22 21.422z"/><path fill="#A9DDE4" d="M125.001 18.508c-57.74 0-104.55 37.637-104.55 84.145 0 0 6.311-8.617 23.998-8.617 17.548 0 36.466 12.465 40.355 16.353l.013-.389h.011s.025.322.065.294c.058-50.901 17.992-91.786 40.108-91.786z"/><path fill="#80BBCE" d="M125.001 18.508c22.114.001 40.047 40.885 40.105 91.786.04.028.064-.294.064-.294h.01l.015.394c3.805-3.804 22.807-16.516 40.355-16.516 17.658 0 23.996 8.688 23.996 8.688.001-46.505-46.806-84.057-104.545-84.058z"/><path fill="#91D0DD" d="M125.001 18.508c-22.116 0-40.05 41.225-40.107 92.127 1.157-.824 18.667-12.977 40.106-12.977s38.95 12.152 40.106 12.977c-.058-50.903-17.991-92.126-40.105-92.127z"/><path fill="#A3A2A3" d="M117.372 19.266c0 1.786 1.646 3.621 7.441 3.621 5.796 0 7.442-1.835 7.442-3.621"/><ellipse fill="#B3B2B3" cx="124.814" cy="19.266" rx="7.442" ry="2.842"/><g><path fill="#80BBCE" d="M131.813 189.779v2.467c0-.396.125-1.385 0-2.467z"/></g><path fill="#91D0DD" d="M106.781 221.012c10.361 0 18.762-7.68 18.762-17.152v-22.428a6.515 6.515 0 00-.543-.027c-3.598 0-6.813 2.916-6.813 6.514v17.412c0 4.629-3.602 8.394-8.271 8.394-4.671 0-8.272-3.765-8.272-8.394v-3.08c0-3.598-3.215-6.515-6.813-6.515-3.599 0-6.813 2.917-6.813 6.515v1.609c.001 9.472 8.401 17.152 18.763 17.152z"/></g></svg>