<svg xmlns="http://www.w3.org/2000/svg" width="162.305" height="994.61"><g opacity=".6" fill="#A3A2A3"><path d="M62.973 3.433C63.286.269 65.626.447 68.372.976c1.379.258 2.59.591 3.366 1.273.396.332.778.64 1.01 1.086.225.455.327 1.02.264 1.751-.246 2.921-2.64 5.017-5.429 4.654-2.791-.366-4.914-3.134-4.61-6.307zM73.102 11.3c-.692-.815-.729-1.87-.09-2.345.64-.461 1.701-.155 2.381.673.678.827.728 1.843.101 2.31-.627.458-1.701.177-2.392-.638zM68.393 13.641c-.227-1.145.367-2.18 1.325-2.266.958-.09 1.902.777 2.126 1.912.228 1.145-.346 2.139-1.3 2.236-.946.106-1.923-.735-2.151-1.882zM61.905 9.845c.798-.654.983-1.72.415-2.392-.567-.673-1.679-.685-2.49-.018-.813.663-.983 1.762-.407 2.418.578.661 1.693.654 2.482-.008zM66.348 13.401c.333-1.096-.135-2.248-1.074-2.589-.94-.342-1.992.288-2.332 1.404-.344 1.112.152 2.265 1.098 2.583.944.317 1.976-.302 2.308-1.398zM39.441 4.661c2.97-1.625 4.113.455 5.413 3.026 1.293 2.579 2.253 4.676-.621 6.264-2.869 1.592-6.329.948-7.712-1.604-1.386-2.548-.068-6.061 2.92-7.686zM38.62 17.843c.275-1.074 1.225-1.746 2.074-1.518.853.23 1.301 1.27 1.012 2.318-.276 1.056-1.189 1.732-2.045 1.518-.855-.215-1.324-1.25-1.041-2.318zM33.473 15.416c.902-.91 2.2-1.034 2.886-.3.681.731.522 2.045-.375 2.935-.896.891-2.193 1.038-2.891.319s-.526-2.047.38-2.954zM33.083 7.604c1.048.284 2.119-.2 2.397-1.09.278-.889-.335-1.856-1.375-2.153-1.04-.298-2.119.199-2.404 1.101-.286.902.334 1.858 1.382 2.142zM32.439 13.552c1.199-.392 1.974-1.492 1.721-2.491-.251-.998-1.427-1.512-2.638-1.127-1.207.387-2.004 1.517-1.733 2.525.264 1.004 1.455 1.484 2.65 1.093zM44.905 32.699c-.215-3.198 2.147-3.391 4.958-3.412 2.833-.022 5.098.162 5.28 3.254.166 3.076-1.859 5.567-4.694 5.659-2.818.095-5.352-2.314-5.544-5.501zM56.169 38.835c-.812-.7-1.015-1.754-.456-2.345.563-.59 1.681-.477 2.479.234.794.71.994 1.747.448 2.326-.55.578-1.659.485-2.471-.215zM51.867 41.944c-.405-1.102.016-2.221.949-2.469.94-.247 2.006.457 2.402 1.554.409 1.104-.002 2.185-.929 2.438-.925.253-2.015-.419-2.422-1.523zM44.861 39.222c.686-.774.696-1.861.028-2.436-.668-.574-1.766-.407-2.458.382-.691.789-.708 1.89-.034 2.448.673.56 1.779.38 2.464-.394zM49.805 42.032c.167-1.132-.487-2.208-1.465-2.392-.979-.185-1.918.606-2.095 1.756-.163 1.155.524 2.222 1.502 2.385.981.163 1.881-.621 2.058-1.749zM21.85 37.647c2.683-2.085 4.13-.207 5.822 2.131 1.706 2.355 2.958 4.26.381 6.297-2.562 2.045-6.114 1.971-7.873-.327-.879-1.149-1.139-2.648-.85-4.133.308-1.473 1.189-2.917 2.52-3.968zM23.14 50.851c.104-1.108.904-1.943 1.792-1.851.883.089 1.478 1.037 1.385 2.131-.1 1.09-.891 1.91-1.771 1.841s-1.511-1.015-1.406-2.121zM17.663 49.308c.75-1.057 2-1.401 2.798-.785.799.616.85 1.943.109 2.978-.741 1.034-1.999 1.401-2.806.806-.806-.595-.849-1.945-.101-2.999zM16.031 41.604c1.085.111 2.036-.562 2.189-1.48.145-.923-.608-1.782-1.686-1.909-1.074-.125-2.086.534-2.219 1.481-.131.95.639 1.8 1.716 1.908zM16.341 47.627c1.107-.6 1.702-1.818 1.3-2.766-.403-.948-1.647-1.266-2.789-.683-1.151.577-1.733 1.85-1.305 2.81.421.956 1.677 1.232 2.794.639zM31.822 64.44c-.733-3.093 1.537-3.692 4.299-4.176 2.786-.489 5.052-.666 5.755 2.317.365 1.493.142 2.917-.525 4.042a4.532 4.532 0 01-3.083 2.251c-2.757.572-5.667-1.33-6.446-4.434zM43.982 68.53c-.929-.545-1.323-1.536-.853-2.196.46-.663 1.569-.737 2.481-.176.911.562 1.284 1.53.829 2.175-.433.648-1.531.742-2.457.197zM40.31 72.263c-.608-1-.354-2.149.512-2.549.873-.398 2.051.107 2.64 1.103.595.997.345 2.101-.49 2.507-.852.401-2.047-.06-2.662-1.061zM32.941 70.831c.504-.883.357-1.937-.404-2.383-.754-.445-1.82-.095-2.368.799-.523.898-.327 1.983.44 2.409.768.428 1.814.054 2.332-.825zM38.316 72.705c-.068-1.13-.897-2.063-1.891-2.073-1.006-.014-1.758.928-1.708 2.079.053 1.153.907 2.063 1.905 2.05.996-.014 1.754-.927 1.694-2.056zM10.04 73.547c2.256-2.599 4.028-.996 6.123.991 2.102 2.005 3.671 3.628 1.569 6.149-2.129 2.519-5.639 3.175-7.804 1.253-2.15-1.912-2.198-5.799.112-8.393zM13.855 86.395c-.118-1.117.498-2.107 1.372-2.199.874-.093 1.678.729 1.798 1.823.121 1.095-.49 2.064-1.367 2.179s-1.685-.687-1.803-1.803zM8.178 86.003c.525-1.208 1.683-1.809 2.587-1.362.906.448 1.22 1.752.7 2.931s-1.68 1.809-2.59 1.39c-.91-.419-1.222-1.752-.697-2.959zM5.066 78.655c1.081-.111 1.913-.968 1.861-1.924-.06-.96-.941-1.663-2.031-1.577-1.098.083-1.919.964-1.875 1.939.048.979.965 1.673 2.045 1.562zM6.547 84.605c.978-.826 1.274-2.174.716-3.03-.575-.862-1.859-.926-2.873-.108-1.025.813-1.302 2.222-.71 3.087.602.867 1.888.876 2.867.051zM25.177 97.876c-1.367-2.842.719-3.912 3.315-4.945 1.295-.521 2.499-.94 3.543-.885 1.036.056 1.884.584 2.571 1.94.677 1.356.764 2.76.353 3.973-.389 1.211-1.221 2.237-2.507 2.805-2.558 1.14-5.82-.042-7.275-2.888zM37.938 99.224c-1.036-.322-1.621-1.185-1.304-1.911.307-.727 1.374-1.023 2.385-.676 1.01.347 1.583 1.188 1.276 1.89-.296.702-1.326 1.02-2.357.697zM35.191 103.554c-.795-.819-.822-1.972-.063-2.536.76-.567 2.021-.333 2.819.483.797.818.827 1.911.064 2.479-.727.565-2.02.393-2.82-.426zM27.679 103.806c.322-.961-.065-1.943-.906-2.208-.836-.264-1.79.31-2.133 1.296-.349.985.135 1.991.969 2.229.846.24 1.774-.356 2.07-1.317zM33.342 104.412c-.331-1.063-1.303-1.774-2.291-1.566a1.64 1.64 0 00-1.106.853c-.21.43-.259.973-.098 1.519.324 1.095 1.368 1.771 2.334 1.533.965-.239 1.486-1.276 1.161-2.339z"/><g><path d="M6.042 111.775c1.548-3.114 3.66-1.941 6.18-.49 2.539 1.469 4.455 2.668 2.988 5.642-1.409 2.975-4.631 4.507-7.222 3.157-1.296-.677-2.188-1.964-2.58-3.484-.324-1.518-.138-3.265.634-4.825zM12.865 123.456c-.406-1.039.003-2.183.823-2.484.83-.31 1.795.293 2.155 1.33.373 1.032.073 2.103-.752 2.431-.816.324-1.813-.243-2.226-1.277zM7.277 124.486c.166-1.253 1.204-2.181 2.17-1.956.963.224 1.602 1.394 1.425 2.634-.187 1.247-1.139 2.124-2.131 1.947-.991-.176-1.648-1.357-1.464-2.625zM2.438 118.05c1.019-.379 1.584-1.431 1.346-2.364-.256-.934-1.299-1.417-2.331-1.065-1.03.353-1.665 1.429-1.396 2.387.298.96 1.365 1.421 2.381 1.042zM5.338 123.563c.766-1.063.758-2.465-.021-3.172-.779-.707-2.037-.45-2.806.614-.765 1.059-.76 2.539.035 3.225.817.66 2.05.369 2.792-.667z"/></g><g><path d="M26.654 131.85c-1.962-2.479-.204-4.008 2.083-5.667 2.285-1.67 4.233-2.837 6.186-.443.976 1.195 1.392 2.59 1.279 3.907a4.798 4.798 0 01-.562 1.881 4.556 4.556 0 01-1.264 1.521c-1.101.854-2.519 1.173-3.927.968-1.399-.205-2.841-.927-3.795-2.167zM39.371 130.234c-1.062-.093-1.82-.829-1.693-1.636.126-.807 1.092-1.364 2.158-1.256 1.063.109 1.82.831 1.69 1.621-.13.791-1.094 1.364-2.155 1.271zM37.747 135.218c-.982-.644-1.3-1.785-.704-2.523.596-.738 1.881-.795 2.864-.153.984.643 1.293 1.74.696 2.481-.597.738-1.874.838-2.856.195zM30.482 137.128c.093-1.023-.543-1.903-1.423-1.975-.879-.072-1.666.703-1.755 1.745-.089 1.04.55 1.937 1.425 1.989.875.056 1.66-.738 1.753-1.759zM36.135 136.49c-.536-1.002-1.702-1.482-2.599-1.06-.899.423-1.188 1.607-.648 2.631.541 1.024 1.7 1.481 2.595 1.036.894-.445 1.188-1.606.652-2.607z"/><g><path d="M10.942 149.458c.866-3.293 3.174-2.619 5.948-1.733 2.777.898 4.968 1.675 4.082 4.863-.886 3.19-3.795 5.275-6.554 4.465-2.759-.805-4.34-4.292-3.476-7.595zM19.883 159.391c-.592-.955-.467-2.108.282-2.563.749-.455 1.833-.058 2.418.876.585.935.456 2.067-.287 2.543-.742.476-1.821.098-2.413-.856zM14.582 161.45c-.05-1.309.735-2.34 1.747-2.323 1.013.017 1.863 1.056 1.906 2.337.042 1.28-.732 2.339-1.737 2.348-1.004.009-1.866-1.055-1.916-2.362zM8.65 156.169c.934-.562 1.333-1.688.89-2.525-.444-.839-1.566-1.089-2.505-.547-.939.542-1.334 1.687-.885 2.543.448.858 1.567 1.09 2.5.529zM12.502 160.888c.528-1.158.197-2.492-.652-3.028-.878-.53-2.068-.04-2.649 1.126-.592 1.167-.218 2.548.688 3.073.921.522 2.087-.016 2.613-1.171z"/></g></g><g><path d="M35.023 164.977c-2.546-1.963-1.05-3.836.901-5.894 1.949-2.071 3.664-3.563 5.977-1.632a5.487 5.487 0 011.343 1.636c.33.592.58 1.203.667 1.836.188 1.259-.162 2.561-1.084 3.619-1.843 2.121-5.299 2.411-7.804.435zM47.159 160.814c-1.064.136-1.977-.396-2.033-1.177-.065-.778.777-1.502 1.84-1.613 1.071-.113 1.978.398 2.027 1.157.049.759-.77 1.497-1.834 1.633zM46.48 165.942c-1.065-.416-1.572-1.459-1.119-2.297.452-.84 1.694-1.159 2.76-.745 1.067.414 1.552 1.406 1.098 2.248-.453.841-1.673 1.211-2.739.794zM39.758 169.333c-.091-1.021-.866-1.748-1.735-1.637-.869.11-1.496 1.034-1.395 2.077.05.521.271.968.586 1.269.334.293.766.436 1.2.368.89-.144 1.419-1.049 1.344-2.077zM45.136 167.519c-.694-.859-1.911-1.083-2.71-.483-.781.591-.914 1.837-.124 2.685.771.856 2.014 1.033 2.788.414.778-.623.778-1.775.046-2.616z"/><g><path d="M23.415 185.598c.197-3.484 2.572-3.298 5.428-3.016 1.435.143 2.703.302 3.617.821.939.51 1.494 1.389 1.449 3.042-.093 3.299-2.423 6.007-5.32 5.844-1.45-.084-2.772-.883-3.732-2.099-.963-1.212-1.572-2.832-1.442-4.592zM34.401 193.357c-.831-.775-.884-1.985-.265-2.597.632-.621 1.753-.467 2.496.334.792.771.938 1.899.328 2.534-.61.636-1.753.519-2.559-.271zM29.725 196.589c-.378-1.253.186-2.466 1.165-2.676.957-.195 2.059.603 2.401 1.842.349 1.235-.152 2.445-1.13 2.688-.977.244-2.073-.593-2.436-1.854zM22.728 192.729c.775-.762.889-1.954.248-2.677s-1.802-.72-2.588.021c-.788.741-.892 1.954-.24 2.696.651.744 1.804.72 2.58-.04zM27.561 196.521c.26-1.264-.29-2.54-1.284-2.858-.99-.32-2.034.43-2.313 1.707-.268 1.269.287 2.61 1.329 2.896 1.023.297 2.032-.497 2.268-1.745z"/></g></g><g><path d="M50.456 195.256c-2.933-1.321-1.894-3.503-.495-5.94 1.405-2.461 2.725-4.299 5.432-2.984 2.632 1.34 3.866 4.173 2.551 6.686-1.298 2.496-4.592 3.579-7.488 2.238zM61.282 188.372c-1.003.38-2.016.071-2.254-.678-.252-.744.431-1.66 1.427-2.013.985-.347 2.006-.064 2.227.669.227.732-.397 1.642-1.4 2.022zM61.827 193.539c-1.134-.16-1.872-1.062-1.629-1.984.243-.925 1.376-1.524 2.511-1.366 1.136.158 1.842 1.017 1.598 1.943-.211.91-1.342 1.566-2.48 1.407zM56.085 198.396c-.343-.965-1.255-1.501-2.078-1.188-.819.31-1.213 1.355-.873 2.348.331.997 1.347 1.49 2.15 1.165.816-.333 1.172-1.378.801-2.325zM60.915 195.373c-.931-.65-2.129-.606-2.778.169a1.656 1.656 0 00-.339 1.363c.104.475.408.937.879 1.271.944.673 2.194.571 2.805-.213.61-.783.362-1.939-.567-2.59z"/><g><path d="M43.855 217.954c-.566-3.405 1.778-3.782 4.611-4.149 2.875-.393 5.197-.652 5.774 2.596.57 3.264-1.126 6.33-3.992 6.835-2.836.471-5.751-1.953-6.393-5.282zM56.149 222.967c-.922-.609-1.279-1.704-.792-2.436.485-.733 1.623-.837 2.534-.238.912.599 1.26 1.682.784 2.425-.476.743-1.605.858-2.526.249zM52.212 227.076c-.569-1.149-.281-2.412.633-2.83.916-.419 2.104.154 2.66 1.288.557 1.135.282 2.411-.621 2.844-.902.433-2.102-.153-2.672-1.302zM44.668 224.944c.602-.906.479-2.085-.279-2.641-.759-.556-1.876-.29-2.489.602-.613.893-.48 2.084.29 2.652.769.571 1.876.293 2.478-.613zM50.119 227.463c.01-1.261-.81-2.323-1.842-2.396-1.017-.1-1.889.871-1.903 2.14-.01 1.26.833 2.352 1.866 2.422s1.868-.908 1.879-2.166z"/></g></g><g><path d="M72.232 221.77c-3.078-.867-2.546-3.121-1.679-5.805.899-2.711 1.793-4.812 4.771-3.969 3.036.815 4.737 3.622 3.926 6.342-.788 2.704-3.957 4.305-7.018 3.432zM81.686 213.104c-.928.535-1.997.37-2.381-.364-.386-.735.065-1.754 1.002-2.282.936-.526 1.997-.369 2.373.357.377.726-.066 1.753-.994 2.289zM83.318 218.291c-1.198-.002-2.135-.799-2.085-1.772.049-.974 1.068-1.756 2.266-1.756 1.198.001 2.121.785 2.071 1.76-.05.973-1.054 1.769-2.252 1.768zM78.429 223.999c-.517-.914-1.552-1.297-2.316-.856-.764.438-.962 1.537-.439 2.458.523.92 1.565 1.307 2.321.862.757-.445.951-1.55.434-2.464zM82.738 220.284c-1.039-.557-2.284-.308-2.776.559-.494.867-.041 2.031 1.005 2.595 1.046.563 2.283.308 2.769-.566.484-.875.04-2.031-.998-2.588z"/><g><path d="M68.983 245.01c-.906-3.157 1.308-3.906 4.066-4.683 2.761-.779 5.018-1.264 5.909 1.845.889 3.116-.61 6.296-3.357 7.096-2.746.801-5.701-1.076-6.618-4.258zM81.331 248.425c-.935-.513-1.355-1.559-.927-2.328.426-.771 1.534-.978 2.473-.462.938.516 1.346 1.554.918 2.323-.429.769-1.533.978-2.464.467zM77.7 252.807c-.589-1.046-.391-2.319.479-2.815.87-.498 2.058-.051 2.651.998.595 1.052.375 2.307-.491 2.808-.864.499-2.046.057-2.639-.991zM70.302 251.639c.522-.943.322-2.052-.447-2.475-.774-.432-1.829-.026-2.35.922-.519.951-.31 2.073.457 2.491.77.424 1.817.004 2.34-.938zM75.697 253.4c-.049-1.223-.897-2.178-1.895-2.135-.999.043-1.77 1.068-1.721 2.291.048 1.222.901 2.181 1.896 2.136.986-.052 1.764-1.073 1.72-2.292z"/></g></g><g><path d="M97.282 246.333c-3.149-.82-2.713-3.087-2.019-5.861.697-2.772 1.391-4.996 4.561-4.204 3.161.763 5.211 3.787 4.493 6.548-.712 2.779-3.881 4.332-7.035 3.517zM106.514 237.428c-.936.542-2.064.356-2.523-.416-.461-.772-.083-1.844.848-2.391.93-.547 2.063-.357 2.527.42s.081 1.844-.852 2.387zM108.51 242.876c-1.243-.071-2.241-.891-2.234-1.904.005-1.009 1.013-1.804 2.257-1.769 1.243.028 2.253.89 2.247 1.928-.007 1.025-1.028 1.803-2.27 1.745zM103.643 248.614c-.539-.959-1.604-1.365-2.369-.916-.766.447-.933 1.544-.4 2.493.535.944 1.589 1.355 2.356.924.767-.43.956-1.549.413-2.501zM107.979 244.932c-1.094-.627-2.364-.412-2.842.473-.479.885.008 2.098 1.093 2.715s2.364.412 2.853-.464c.485-.875-.01-2.097-1.104-2.724z"/><g><path d="M93.627 269.312c-.607-3.052 1.538-3.799 4.279-4.49 2.734-.699 5.027-1.079 5.689 2.027.594 3.152-1.264 6.118-3.996 6.743-2.693.612-5.364-1.235-5.972-4.28zM105.262 273.139c-.861-.567-1.147-1.608-.646-2.331.499-.723 1.605-.844 2.479-.262.871.582 1.17 1.634.658 2.342-.513.709-1.631.818-2.491.251zM101.184 277.097c-.445-1.038-.084-2.237.815-2.665.9-.429 2.012.089 2.473 1.145.435 1.07.015 2.269-.886 2.671-.906.404-1.936-.12-2.402-1.151zM94.275 275.657c.607-.884.515-1.946-.188-2.369-.705-.423-1.75-.037-2.342.856-.592.895-.512 1.947.182 2.359.701.411 1.739.039 2.348-.846zM99.167 277.544c.117-1.159-.577-2.116-1.533-2.118-.957-.001-1.815.954-1.935 2.112-.118 1.159.549 2.083 1.506 2.085.958.001 1.845-.92 1.962-2.079z"/></g></g><g><path d="M121.31 273.061c-3.021-1.336-2.323-3.474-1.301-6.209 1.017-2.71 1.909-4.935 5.071-3.569 1.582.686 2.83 1.879 3.538 3.236.667 1.41.802 2.964.241 4.313-1.123 2.696-4.568 3.602-7.549 2.229zM131.818 265.717c-1.023.368-2.124-.08-2.529-.931-.394-.866.104-1.897 1.119-2.293 1.013-.392 2.18.001 2.574.901.381.923-.144 1.958-1.164 2.323zM133.105 271.776c-1.262-.316-2.15-1.39-2.004-2.429s1.274-1.651 2.54-1.337 2.187 1.438 2.036 2.478c-.148 1.039-1.309 1.603-2.572 1.288zM127.303 276.541c-.401-1.047-1.41-1.664-2.242-1.365-.833.298-1.187 1.38-.799 2.405.194.514.539.919.941 1.162.385.256.831.349 1.248.214.824-.258 1.264-1.378.852-2.416zM132.266 273.733c-1.025-.854-2.348-.89-2.963-.098-.632.807-.272 2.063.666 2.95.955.871 2.264.964 2.91.188.642-.77.381-2.158-.613-3.04z"/><g><path d="M113.27 294.686c.066-2.939 2.307-3.294 5.156-3.426 2.828-.145 5.076.05 4.948 3.184-.133 3.134-2.681 5.481-5.489 5.471-2.84-.006-4.821-2.242-4.615-5.229zM123.373 300.832c-.654-.755-.633-1.82.041-2.393.673-.573 1.753-.416 2.42.367.666.782.658 1.871-.027 2.416-.686.547-1.78.365-2.434-.39zM118.395 303.586c-.119-1.081.563-2.13 1.531-2.321.97-.192 1.873.573 2.01 1.687.135 1.115-.561 2.127-1.546 2.286-.986.158-1.876-.571-1.995-1.652zM112.2 300.734c.808-.693 1.011-1.698.463-2.23-.55-.532-1.631-.37-2.426.349-.796.72-1.013 1.702-.478 2.208s1.634.367 2.441-.327zM116.369 303.531c.438-1.055.093-2.136-.842-2.333-.935-.2-1.998.509-2.396 1.543-.448 1.058-.103 2.061.792 2.279.895.218 2-.43 2.446-1.489z"/></g></g><g><path d="M138.802 305.07c-2.565-2.136-1.173-4.054.513-6.422 1.656-2.333 3.063-4.268 5.863-2.06 2.637 2.291 3.372 6.216 1.574 8.478-1.796 2.271-5.396 2.148-7.95.004zM150.963 300.979c-1.091.06-2.073-.673-2.199-1.649-.127-.977.64-1.852 1.723-1.938 1.081-.087 2.074.669 2.211 1.674.135 1.004-.644 1.854-1.735 1.913zM150.51 307.239c-1.106-.683-1.559-2.008-1.183-2.958.411-.96 1.671-1.228 2.827-.556 1.141.675 1.631 2.059 1.179 3.027-.462.973-1.731 1.172-2.823.487zM143.563 310.149c-.051-1.137-.807-2.035-1.682-1.99-.875.044-1.546.99-1.504 2.101.043 1.109.79 1.982 1.672 1.966.884-.017 1.564-.94 1.514-2.077zM149.111 308.896c-.701-1.14-1.936-1.567-2.761-.979-.826.589-.94 1.945-.251 3.051.69 1.105 1.932 1.568 2.769 1.013.836-.553.945-1.945.243-3.085z"/><g><path d="M124.89 323.48c1.038-2.84 3.24-2.513 5.94-1.798 2.697.697 4.869 1.514 3.869 4.487a5.904 5.904 0 01-1.099 1.944 6.037 6.037 0 01-1.708 1.342c-1.26.663-2.703.842-4.02.426-2.649-.844-4.042-3.568-2.982-6.401zM132.885 332.357c-.425-.92-.113-1.95.691-2.313s1.803.098 2.23 1.042c.429.943.123 1.994-.686 2.333s-1.809-.142-2.235-1.062zM127.341 333.635c.178-1.098 1.12-1.929 2.105-1.837.987.091 1.649 1.095 1.478 2.221-.172 1.128-1.117 1.928-2.108 1.807s-1.652-1.094-1.475-2.191zM122.201 329.022c.969-.438 1.438-1.353 1.051-2.027s-1.478-.835-2.441-.371c-.963.464-1.438 1.354-1.057 2.003.382.649 1.479.833 2.447.395zM125.404 332.997c.717-.914.641-2.07-.161-2.547-.804-.478-2.032-.096-2.752.817-.718.913-.652 2.013.153 2.491.804.478 2.044.154 2.76-.761z"/></g></g><g><path d="M146.617 340.596c-.939-1.357-.955-2.395-.446-3.329.52-.934 1.541-1.757 2.642-2.653 2.233-1.785 4.119-3.23 6.199-.411 1.981 2.829 1.573 6.668-.747 8.371-2.339 1.707-5.769.728-7.648-1.978zM159.416 339.766c-1.064-.212-1.811-1.14-1.667-2.085.143-.945 1.119-1.567 2.184-1.377 1.063.19 1.812 1.138 1.67 2.104-.142.966-1.122 1.569-2.187 1.358zM157.447 345.524c-.929-.904-1.149-2.263-.495-3.064.654-.803 1.938-.745 2.869.16s1.154 2.314.497 3.115c-.707.792-1.953.692-2.871-.211zM150.01 346.622c.217-1.093-.364-2.132-1.227-2.303-.87-.173-1.724.566-1.908 1.641-.182 1.073.265 2.091 1.136 2.282.855.193 1.752-.527 1.999-1.62zM155.688 346.751c-.367-1.232-1.552-1.939-2.465-1.578-.468.178-.794.585-.96 1.096a2.706 2.706 0 00-.02 1.73c.38 1.209 1.458 1.93 2.409 1.597.952-.332 1.416-1.614 1.036-2.845z"/><g><path d="M128.664 355.271c1.554-2.617 3.662-1.751 6.182-.425 2.503 1.313 4.56 2.588 2.798 5.294-1.718 2.707-5.079 3.605-7.517 2.211-2.469-1.403-2.93-4.461-1.463-7.08zM134.599 365.86c-.249-.999.245-1.951 1.103-2.139.857-.188 1.753.476 2 1.494.248 1.018-.246 1.988-1.103 2.156-.856.169-1.751-.514-2-1.511zM128.92 365.97c.375-1.056 1.451-1.683 2.403-1.384.952.298 1.419 1.43 1.044 2.51-.355 1.085-1.499 1.675-2.432 1.354-.904-.318-1.395-1.426-1.015-2.48zM124.812 360.258c1.05-.229 1.737-1.047 1.536-1.813-.188-.765-1.252-1.181-2.282-.928-1.02.255-1.729 1.05-1.521 1.796.201.746 1.217 1.174 2.267.945zM127.133 364.928c.871-.761 1.008-1.927.307-2.573-.703-.647-1.981-.532-2.854.227-.872.761-1.006 1.877-.303 2.526.703.647 1.979.58 2.85-.18z"/></g></g><g><path d="M146.366 376.745c-1.342-3.035.712-4.119 3.328-5.418 2.614-1.284 4.801-2.299 6.138.852 1.336 3.163.276 6.87-2.334 8.065-2.611 1.202-5.79-.461-7.132-3.499zM159.073 378.534c-1.005-.426-1.563-1.49-1.245-2.391.316-.9 1.391-1.313 2.398-.91s1.564 1.488 1.244 2.409c-.319.923-1.392 1.316-2.397.892zM155.914 383.786c-.698-1.077-.525-2.449.24-3.105.791-.656 2.039-.338 2.782.742.71 1.078.562 2.507-.272 3.158-.838.651-2.067.281-2.75-.795zM148.396 383.341c.453-1.031.167-2.158-.639-2.503-.806-.346-1.823.202-2.271 1.211-.449 1.009-.16 2.114.641 2.481.8.368 1.816-.158 2.269-1.189zM153.932 384.641c-.133-1.309-1.055-2.224-2.054-2.063-1 .16-1.696 1.312-1.561 2.591.138 1.278 1.053 2.222 2.049 2.09.995-.131 1.699-1.312 1.566-2.618z"/><g><path d="M125.82 387.292c1.105-1.065 2.008-1.315 3.033-1.036.99.271 2.061 1.061 3.107 1.96 2.123 1.793 3.725 3.456 1.52 5.722-2.205 2.263-5.647 2.372-7.752.474-2.103-1.906-2.091-4.99.092-7.12zM129.26 398.791c.016-1.011.75-1.807 1.629-1.794.883.013 1.594.854 1.564 1.886-.023 1.032-.758 1.852-1.637 1.813-.878-.036-1.574-.895-1.556-1.905zM123.691 397.594c.641-.914 1.854-1.265 2.705-.765.852.5 1.012 1.686.365 2.629-.648.944-1.851 1.266-2.694.736-.842-.529-1.014-1.685-.376-2.6zM120.951 391.202c1.067.013 1.894-.622 1.844-1.405-.051-.783-.962-1.398-2.035-1.389-1.073.011-1.895.625-1.839 1.384.056.76.964 1.397 2.03 1.41zM122.221 396.198c.523-.261.895-.66 1.07-1.09a1.39 1.39 0 00-.18-1.297c-.561-.783-1.828-.957-2.82-.423-.96.544-1.426 1.551-.896 2.327.517.772 1.779 1.005 2.826.483z"/></g></g><g><path d="M138.188 412.09c-.271-1.633.208-2.562 1.016-3.211.815-.646 2.069-.968 3.469-1.304 2.796-.664 5.129-1.169 5.784 2.257a7.66 7.66 0 01.054 2.532 6.633 6.633 0 01-.843 2.22c-.795 1.328-2.005 2.294-3.435 2.569-2.856.549-5.524-1.815-6.045-5.063zM150.113 416.807c-.87-.648-1.139-1.812-.596-2.61.544-.799 1.692-.952 2.574-.323.878.626 1.14 1.81.589 2.631-.549.82-1.698.95-2.567.302zM145.817 421.203c-.442-1.223-.049-2.551.893-3s2.076.152 2.521 1.377c.444 1.224.028 2.604-.914 3.05-.943.447-2.056-.206-2.5-1.427zM138.641 419.006c.644-.912.593-2.092-.117-2.62-.71-.529-1.803-.227-2.438.664-.613.899-.613 2.032.069 2.574.677.539 1.834.289 2.486-.618zM143.73 421.582c.135-1.322-.573-2.44-1.571-2.516-1.014-.083-1.864.917-2.081 2.167-.187 1.264.468 2.39 1.472 2.499 1.002.11 1.984-.859 2.18-2.15z"/><g><path d="M115.699 417.511c2.515-1.641 4.045.04 5.739 2.329.84 1.138 1.601 2.218 1.761 3.208.154.986-.235 1.911-1.586 2.75-2.703 1.687-6.104 1.015-7.691-1.318a4.527 4.527 0 01-.663-3.756c.325-1.248 1.22-2.383 2.44-3.213zM116.395 429.604c.271-.982 1.074-1.645 1.939-1.43.85.209 1.368 1.202 1.152 2.231-.254 1.01-1.166 1.643-2.015 1.413-.85-.229-1.33-1.225-1.076-2.214zM111.234 427.19c.859-.76 2.074-.856 2.802-.167.747.698.611 1.896-.241 2.685-.855.787-2.11.842-2.813.138-.701-.705-.592-1.889.252-2.656zM110.048 420.249c1.041.256 2.007-.178 2.153-.956.147-.78-.588-1.596-1.639-1.833s-2.008.179-2.145.939.591 1.594 1.631 1.85zM110.128 425.481c1.116-.299 1.731-1.292 1.38-2.184-.354-.894-1.549-1.354-2.656-1.054-1.117.297-1.684 1.254-1.373 2.137.32.885 1.5 1.389 2.649 1.101z"/></g></g><g><path d="M122.192 444.54c.041-.817.218-1.432.505-1.896.268-.477.65-.802 1.121-1.023.941-.444 2.24-.479 3.682-.489 2.878-.018 5.256.036 5.15 3.458-.067 3.474-2.681 6.205-5.576 6.118-2.896-.081-5.042-2.903-4.882-6.168zM132.869 451.644c-.721-.808-.754-1.978-.07-2.62.665-.663 1.793-.571 2.533.233.743.808.792 2.017.09 2.663-.693.657-1.833.53-2.553-.276zM127.832 454.912c-.196-1.258.447-2.445 1.453-2.673 1.005-.228 1.992.593 2.189 1.852.199 1.26-.468 2.479-1.474 2.705-1.004.226-1.969-.626-2.168-1.884zM121.236 451.318c.813-.746.999-1.892.41-2.55-.588-.66-1.72-.594-2.523.139-.802.734-.978 1.868-.416 2.525.57.665 1.727.64 2.529-.114zM125.717 454.839c.389-1.234-.084-2.454-1.045-2.734-.969-.287-2.029.481-2.431 1.673-.408 1.185.032 2.399.992 2.704.953.297 2.095-.412 2.484-1.643z"/><g><path d="M98.963 445.576c2.842-1.224 4.004.748 5.234 3.317.615 1.282 1.141 2.469 1.139 3.492-.02 1.014-.562 1.867-2.041 2.486-2.963 1.241-6.25.078-7.414-2.51-1.187-2.595.267-5.56 3.082-6.785zM97.46 457.877c.409-.965 1.352-1.488 2.168-1.148.811.337 1.157 1.405.769 2.391-.4.978-1.398 1.484-2.205 1.138-.811-.348-1.137-1.416-.732-2.381zM92.713 454.733c.978-.674 2.215-.591 2.822.208.614.802.303 2.006-.673 2.69-.976.685-2.24.582-2.83-.223-.59-.803-.287-1.999.681-2.675zM92.803 447.492c.992.412 2.039.114 2.334-.661.295-.776-.278-1.728-1.277-2.131-.999-.404-2.04-.114-2.327.652-.289.766.278 1.727 1.27 2.14zM91.894 452.836c1.171-.153 1.977-1.064 1.79-2.022-.187-.958-1.295-1.602-2.466-1.45-1.175.151-1.95 1.043-1.783 1.999s1.265 1.62 2.459 1.473z"/></g></g><g><path d="M101.166 473.502c.523-3.196 2.794-3.021 5.646-2.613 2.84.401 5.146.836 4.638 4.119-.503 3.313-3.273 5.597-6.108 5.146-2.838-.446-4.692-3.445-4.176-6.652zM110.919 481.83c-.63-.876-.553-2.013.173-2.54.721-.542 1.82-.28 2.457.6.635.88.559 2.04-.172 2.564-.729.533-1.828.253-2.458-.624zM105.704 484.314c-.085-1.236.657-2.304 1.662-2.392s1.894.838 1.979 2.073c.085 1.236-.667 2.314-1.671 2.402-1.005.089-1.885-.847-1.97-2.083zM99.525 480.036c.877-.632 1.174-1.729.658-2.443-.514-.717-1.64-.786-2.514-.157-.873.629-1.165 1.722-.658 2.435.51.716 1.638.801 2.514.165zM103.628 483.982c.491-1.143.139-2.383-.782-2.773-.923-.394-2.059.217-2.549 1.342-.49 1.122-.144 2.355.775 2.755.917.395 2.066-.182 2.556-1.324z"/><g><path d="M77.817 472.363c3.021-1.073 3.971 1.037 4.966 3.712 1 2.675 1.665 4.899-1.388 5.985-3.051 1.087-6.316-.21-7.298-2.892-.99-2.676.71-5.738 3.72-6.805zM75.318 484.825c.454-.975 1.464-1.45 2.261-1.074.796.375 1.075 1.466.623 2.434-.453.971-1.465 1.457-2.262 1.081-.797-.374-1.076-1.467-.622-2.441zM70.708 481.492c1.021-.683 2.288-.542 2.844.286.558.83.184 2.054-.833 2.731-1.018.677-2.293.552-2.849-.28-.557-.832-.182-2.058.838-2.737zM71.375 474.053c.975.461 2.064.193 2.432-.597.368-.79-.123-1.803-1.098-2.263-.976-.46-2.063-.192-2.431.596-.368.789.122 1.803 1.097 2.264zM69.993 479.519c1.213-.123 2.105-1.025 1.994-2.014-.111-.989-1.185-1.692-2.397-1.57-1.212.124-2.102 1.021-1.995 2.016.106.996 1.182 1.695 2.398 1.568z"/></g></g><g><path d="M78.552 500.593c.515-3.189 2.842-2.913 5.645-2.402 2.809.513 5.057 1.074 4.519 4.246-.554 3.177-3.206 5.31-6.005 4.807-2.802-.502-4.677-3.464-4.159-6.651zM88.204 509.043c-.629-.874-.572-1.981.131-2.472.712-.494 1.794-.182 2.418.697.623.877.547 1.988-.145 2.473-.697.487-1.775.175-2.404-.698zM83.135 511.304c-.107-1.2.607-2.224 1.592-2.282.986-.059 1.87.872 1.979 2.071.108 1.199-.6 2.215-1.586 2.272-.985.059-1.876-.862-1.985-2.061zM76.95 507.027c.867-.61 1.151-1.683.637-2.396s-1.634-.797-2.504-.182c-.868.615-1.159 1.689-.636 2.4.517.712 1.634.788 2.503.178zM81.079 510.938c.464-1.1.098-2.316-.818-2.715-.916-.399-2.044.174-2.506 1.279-.448 1.109-.065 2.322.852 2.715.922.393 1.999-.179 2.472-1.279z"/><g><path d="M55.081 499.774c3.075-1.235 4.033.9 5.076 3.564 1.038 2.666 1.766 4.85-1.235 6.111-3.012 1.253-6.378.17-7.462-2.494-1.076-2.641.526-5.977 3.621-7.181zM52.909 512.599c.416-1.007 1.422-1.557 2.241-1.226.819.329 1.146 1.41.734 2.407-.422.988-1.378 1.571-2.205 1.248-.82-.317-1.167-1.402-.77-2.429zM48.1 509.567c.996-.779 2.304-.72 2.895.079.592.802.265 2.056-.708 2.839-.982.774-2.275.76-2.883-.04-.609-.799-.296-2.091.696-2.878zM48.554 501.898c1.003.404 2.101.055 2.457-.784.356-.84-.16-1.857-1.157-2.27-.997-.412-2.101-.056-2.462.791-.362.847.16 1.858 1.162 2.263zM47.292 507.612c1.235-.221 2.114-1.204 1.973-2.208-.142-1.006-1.25-1.652-2.486-1.433-1.234.22-2.127 1.222-1.986 2.227.147 1.015 1.264 1.631 2.499 1.414z"/></g></g><g><path d="M57.299 528.119c.212-3.199 2.586-3.089 5.391-2.763 2.822.326 5.064.776 4.828 3.89-.114 1.558-.793 2.88-1.775 3.789a4.55 4.55 0 01-3.64 1.282c-2.808-.265-4.994-2.986-4.804-6.198zM67.675 535.666c-.707-.801-.807-1.892-.139-2.401.653-.516 1.746-.271 2.446.541.704.813.732 1.87.109 2.381-.615.512-1.699.282-2.416-.521zM62.992 538.222c-.25-1.149.334-2.2 1.291-2.33.958-.131 1.928.71 2.179 1.857.25 1.149-.314 2.171-1.273 2.302-.958.13-1.947-.681-2.197-1.829zM56.401 534.599c.791-.676.953-1.751.368-2.407-.584-.656-1.701-.637-2.499.052-.797.689-.967 1.775-.375 2.418.591.644 1.716.612 2.506-.063zM60.926 538.037c.326-1.101-.174-2.254-1.122-2.564-.949-.312-1.995.349-2.331 1.464-.335 1.117.232 2.277 1.171 2.565.939.287 1.94-.37 2.282-1.465z"/><g><path d="M33.812 529.992c2.952-1.697 4.136.354 5.491 2.889.676 1.269 1.264 2.425 1.321 3.462.042 1.029-.399 1.966-1.792 2.823-2.799 1.696-6.308 1.162-7.752-1.354-1.443-2.51-.273-6.156 2.732-7.82zM33.311 543.249c.272-1.073 1.195-1.786 2.055-1.583.86.202 1.339 1.23 1.075 2.287-.258 1.06-1.189 1.747-2.033 1.575-.865-.184-1.381-1.214-1.097-2.279zM28.075 540.995c.907-.937 2.208-1.106 2.912-.395.709.717.545 2.017-.329 2.946-.845.947-2.125 1.159-2.853.459-.713-.688-.651-2.084.27-3.01zM27.511 533.143c1.054.248 2.103-.285 2.348-1.198.252-.909-.357-1.842-1.417-2.118-1.064-.281-2.134.255-2.381 1.19-.255.929.397 1.878 1.45 2.126zM27.007 539.166c1.206-.433 1.948-1.572 1.673-2.569-.276-.997-1.467-1.475-2.674-1.042-1.206.433-1.969 1.611-1.693 2.607.278.996 1.49 1.436 2.694 1.004z"/></g></g><g><path d="M40.147 557.853c-.284-3.136 2.024-3.447 4.837-3.559 2.818-.124 5.073-.001 5.405 3.043.345 3.039-1.68 5.491-4.397 5.737-2.768.225-5.475-2.05-5.845-5.221zM51.672 563.463c-.839-.654-1.074-1.673-.531-2.265.543-.593 1.653-.521 2.485.152.831.672 1.074 1.674.539 2.248-.535.575-1.653.519-2.493-.135zM47.631 566.696c-.472-1.063-.113-2.18.789-2.464.903-.286 2.01.367 2.484 1.43.475 1.063.134 2.132-.771 2.419-.904.285-2.029-.321-2.502-1.385zM40.495 564.341c.639-.8.588-1.876-.109-2.414-.697-.539-1.782-.32-2.429.498-.646.819-.603 1.912.101 2.431.704.519 1.797.284 2.437-.515zM45.584 566.874c.099-1.117-.616-2.147-1.6-2.284-.985-.139-1.876.688-1.985 1.829-.108 1.143.614 2.146 1.609 2.261.995.113 1.878-.688 1.976-1.806z"/><g><path d="M17.425 564.158c2.544-2.307 4.109-.491 5.949 1.748 1.834 2.252 3.246 4.079.743 6.281-2.424 2.23-5.892 2.47-7.863.273-2.029-2.207-1.362-5.979 1.171-8.302zM19.613 577.37c.028-1.118.768-2.02 1.647-1.999.88.018 1.571.933 1.548 2.029-.023 1.098-.756 1.979-1.642 1.98-.884.003-1.582-.892-1.553-2.01zM14.028 576.262c.678-1.124 1.905-1.57 2.745-1.015.841.556.983 1.883.314 2.981-.669 1.098-1.902 1.57-2.75 1.04-.848-.529-.985-1.883-.309-3.006zM11.796 568.585c1.094.027 2.05-.707 2.141-1.653.09-.946-.713-1.762-1.8-1.81-1.088-.049-2.051.705-2.147 1.67-.098.967.713 1.764 1.806 1.793zM12.591 574.677c1.078-.689 1.552-1.979 1.068-2.911-.484-.933-1.746-1.154-2.826-.465-1.079.688-1.567 2.028-1.081 2.959.485.931 1.761 1.104 2.839.417z"/></g></g><g><path d="M29.388 590.219c-1.002-3.014 1.136-3.818 3.854-4.517 2.781-.695 5.036-1.032 5.919 1.834 1.043 2.898-.283 5.729-2.999 6.53-2.714.796-5.765-.834-6.774-3.847zM41.85 593.251c-.966-.46-1.435-1.406-1.05-2.1.384-.694 1.472-.857 2.435-.376.961.481 1.435 1.407 1.054 2.08-.38.674-1.473.857-2.439.396zM38.458 597.238c-.689-.938-.516-2.092.32-2.559.843-.467 2.059-.064 2.721.866.678.936.482 2.029-.291 2.516-.802.478-2.036.124-2.75-.823zM31.002 596.461c.395-.931.203-1.952-.602-2.331-.787-.377-1.825.063-2.311.994-.426.944-.12 2.01.686 2.368.806.36 1.804-.107 2.227-1.031zM36.527 597.857c-.194-1.127-1.084-1.976-2.078-1.899-1.024.066-1.654 1.079-1.491 2.224.172 1.147 1.114 1.98 2.102 1.879.987-.103 1.644-1.082 1.467-2.204z"/><g><path d="M8.444 601.169c2.07-2.768 3.958-1.335 6.192.457 1.117.899 2.108 1.727 2.563 2.656.495.936.488 1.973-.455 3.316-1.88 2.682-5.308 3.606-7.643 1.88-1.167-.865-1.837-2.241-1.978-3.757a6.883 6.883 0 01.19-2.326c.221-.775.619-1.533 1.131-2.226zM13.332 613.564c-.183-1.093.375-2.118 1.244-2.278.869-.161 1.721.588 1.905 1.662.183 1.074-.372 2.082-1.242 2.261-.87.18-1.725-.552-1.907-1.645zM7.632 613.611c.453-1.226 1.576-1.906 2.507-1.536.933.369 1.323 1.63.872 2.831-.468 1.201-1.483 1.903-2.454 1.558-.472-.173-.833-.579-1.009-1.096-.158-.517-.143-1.145.084-1.757zM3.957 606.632c1.064-.197 1.811-1.109 1.668-2.047-.143-.938-1.117-1.563-2.18-1.385-1.063.178-1.811 1.107-1.67 2.063.141.958 1.118 1.566 2.182 1.369zM5.918 612.364c.93-.885 1.151-2.229.499-3.033-.653-.804-1.937-.762-2.867.122s-1.155 2.274-.501 3.077 1.94.716 2.869-.166z"/></g></g><g><path d="M25.494 624.205c-1.549-2.774.426-3.981 2.942-5.221 2.516-1.251 4.62-2.06 6.176.623 1.556 2.673.772 5.77-1.75 7.091-2.521 1.317-5.82.279-7.368-2.493zM38.304 624.771c-1.034-.271-1.668-1.121-1.417-1.891.25-.77 1.291-1.151 2.326-.864 1.033.288 1.668 1.122 1.418 1.874-.251.753-1.293 1.151-2.327.881zM35.767 629.423c-.432-.404-.695-.903-.734-1.38-.025-.475.144-.927.515-1.241.743-.63 2.011-.467 2.834.336.796.801.939 1.95.238 2.584-.705.632-1.982.51-2.853-.299zM28.292 630.066c.259-.996-.258-1.977-1.081-2.196-.85-.221-1.788.411-2.024 1.424-.25 1.013.242 2.007 1.098 2.211.857.205 1.756-.443 2.007-1.439zM33.977 630.409c-.374-1.088-1.452-1.764-2.404-1.498-.954.264-1.423 1.388-1.049 2.494.375 1.108 1.45 1.763 2.404 1.478.952-.286 1.424-1.388 1.049-2.474z"/><g><path d="M6.941 638.799c1.543-3.053 3.656-2.007 6.174-.655 1.259.679 2.382 1.313 2.997 2.144.657.831.826 1.854.133 3.341-1.384 2.967-4.599 4.473-7.198 3.186-1.299-.645-2.199-1.876-2.602-3.339a6.82 6.82 0 01-.217-2.314c.074-.798.334-1.599.713-2.363zM13.923 650.089c-.37-1.043.001-2.147.829-2.457.827-.311 1.797.277 2.165 1.302.368 1.024-.004 2.112-.83 2.439-.826.328-1.795-.242-2.164-1.284zM8.318 651.126c.234-1.281 1.221-2.145 2.202-1.944.982.2 1.586 1.371 1.351 2.629-.242 1.258-1.128 2.14-2.141 1.964-.498-.089-.916-.43-1.189-.909-.246-.481-.34-1.1-.223-1.74zM3.486 644.924c1.014-.38 1.59-1.405 1.286-2.3s-1.372-1.336-2.387-.974c-1.016.361-1.59 1.403-1.285 2.315.305.913 1.373 1.338 2.386.959zM6.414 650.201c.762-1.029.747-2.388-.036-3.062-.783-.675-2.039-.409-2.802.62-.762 1.029-.742 2.431.041 3.104.784.674 2.035.366 2.797-.662z"/></g></g><g><path d="M27.742 658.43c-2.002-2.45-.266-3.987 1.999-5.643 2.262-1.667 4.197-2.819 6.188-.47 1.991 2.34 1.746 5.496-.509 7.241-2.223 1.734-5.696 1.325-7.678-1.128zM40.447 656.707c-1.064-.08-1.834-.798-1.718-1.593.115-.795 1.074-1.352 2.142-1.253 1.067.099 1.834.799 1.715 1.574-.119.777-1.076 1.351-2.139 1.272zM38.815 661.67c-.988-.625-1.35-1.747-.735-2.49.625-.749 1.896-.814 2.85-.182.997.622 1.326 1.701.742 2.44-.586.738-1.861.856-2.857.232zM31.577 663.656c.074-1.018-.58-1.884-1.462-1.945-.882-.063-1.655.718-1.725 1.756-.069 1.037.588 1.922 1.465 1.963.877.043 1.647-.756 1.722-1.774zM37.225 662.95c-.555-.984-1.731-1.446-2.622-1.016-.893.43-1.159 1.609-.6 2.618.56 1.01 1.729 1.445 2.617.991.886-.454 1.16-1.608.605-2.593z"/><g><path d="M12.201 676.259c.383-1.653 1.262-2.337 2.266-2.479 1.038-.149 2.24.235 3.653.656 2.799.856 5.007 1.597 4.186 4.798-.821 3.204-3.69 5.341-6.468 4.574-2.778-.76-4.434-4.229-3.637-7.549zM21.319 686.057c-.604-.943-.52-2.09.25-2.564.745-.47 1.805-.081 2.421.837.603.922.494 2.055-.241 2.542-.734.485-1.821.127-2.43-.815zM16.053 688.202c-.073-1.303.693-2.346 1.706-2.347 1.013-.001 1.883 1.021 1.949 2.298.065 1.276-.692 2.344-1.697 2.37-1.005.027-1.885-1.02-1.958-2.321zM10.046 683.016c.923-.577 1.299-1.711.838-2.544s-1.59-1.067-2.519-.51c-.929.558-1.301 1.71-.833 2.563.467.852 1.591 1.068 2.514.491zM13.963 687.678a2.779 2.779 0 00.163-1.745c-.108-.549-.396-1.016-.841-1.274-.89-.518-2.071-.007-2.628 1.171-.583 1.186-.216 2.556.713 3.061s2.087-.053 2.593-1.213z"/></g></g><g><path d="M36.547 691.414c-2.578-1.938-1.078-3.841.819-5.923 1.911-2.102 3.598-3.623 5.952-1.723 2.274 1.915 2.871 4.967 1.038 7.13-1.812 2.151-5.273 2.467-7.809.516zM48.63 687.101c-1.064.146-1.988-.384-2.059-1.172-.085-.785.784-1.537 1.833-1.657 1.038-.116 1.974.389 2.033 1.16.064.769-.743 1.521-1.807 1.669zM48.044 692.285c-1.076-.414-1.603-1.462-1.164-2.311.438-.851 1.677-1.183 2.754-.771 1.078.412 1.584 1.414 1.145 2.267-.439.85-1.658 1.229-2.735.815zM41.357 695.738c-.107-1.024-.896-1.748-1.765-1.628-.869.119-1.483 1.051-1.367 2.094.118 1.041.902 1.786 1.792 1.637.871-.143 1.433-1.074 1.34-2.103zM46.723 693.88c-.711-.861-1.936-1.078-2.727-.469-.784.605-.863 1.839-.104 2.711.781.863 2.029 1.043 2.798.416.781-.632.74-1.795.033-2.658z"/><g><path d="M25.065 712.042c.202-3.435 2.57-3.277 5.429-3.008 1.431.138 2.717.284 3.613.811.897.525 1.472 1.39 1.405 3.035-.12 3.277-2.492 5.923-5.384 5.753-1.446-.086-2.753-.87-3.692-2.062a6.611 6.611 0 01-1.096-2.052 7.458 7.458 0 01-.275-2.477zM35.888 719.744c-.746-.815-.834-1.979-.192-2.589.641-.609 1.761-.447 2.498.354.72.811.859 1.923.231 2.543-.621.617-1.77.494-2.537-.308zM31.142 722.889c-.298-1.262.285-2.452 1.262-2.649.984-.201 1.976.655 2.309 1.864.315 1.221-.22 2.402-1.201 2.628-.98.225-2.045-.605-2.37-1.843zM24.277 719.065c.785-.748.916-1.918.289-2.624s-1.782-.695-2.575.036c-.794.73-.917 1.916-.282 2.638s1.783.697 2.568-.05zM29.024 722.785c.3-1.246-.242-2.493-1.224-2.809-.983-.315-2.035.421-2.336 1.669-.301 1.246.262 2.531 1.245 2.845.982.315 2.013-.46 2.315-1.705z"/></g></g><g><path d="M51.862 722.065c-2.825-1.488-1.765-3.604-.321-6.023 1.45-2.433 2.787-4.272 5.517-2.831 1.364.72 2.291 1.843 2.701 3.101.46 1.241.402 2.619-.285 3.85-1.37 2.462-4.744 3.368-7.612 1.903zM62.946 715.602c-1.023.332-2.056-.036-2.239-.833-.198-.793.473-1.686 1.495-2.003 1.022-.315 1.995.055 2.19.832.224.77-.422 1.671-1.446 2.004zM63.412 720.919c-1.154-.235-1.884-1.192-1.62-2.12.265-.93 1.424-1.479 2.578-1.247 1.155.233 1.866 1.162 1.601 2.093-.264.929-1.405 1.507-2.559 1.274zM57.443 725.492c-.303-.995-1.224-1.576-2.061-1.305-.836.271-1.266 1.301-.955 2.308s1.239 1.599 2.066 1.315c.829-.282 1.253-1.323.95-2.318zM62.414 722.735c-.879-.742-2.137-.748-2.803-.006-.667.742-.481 1.966.407 2.723.881.759 2.183.729 2.822-.02.637-.749.443-1.952-.426-2.697z"/><g><path d="M44.037 744.238c-.314-3.341 2.026-3.608 4.888-3.819 2.878-.215 5.142-.243 5.494 2.979.336 3.239-1.672 6.145-4.539 6.417-2.861.271-5.547-2.197-5.843-5.577zM55.708 750.049c-.844-.687-1.083-1.806-.53-2.493.552-.688 1.682-.69 2.52-.011.835.684 1.076 1.788.535 2.475s-1.687.721-2.525.029zM51.402 753.777c-.435-1.183-.019-2.41.923-2.747.947-.343 2.043.348 2.487 1.496.441 1.152.04 2.373-.9 2.724-.937.348-2.069-.301-2.51-1.473zM44.195 751.144c.676-.843.658-1.992-.043-2.571-.702-.58-1.81-.405-2.499.44-.69.85-.668 2.011.04 2.594.707.587 1.826.378 2.502-.463zM49.307 753.984c.146-1.242-.544-2.363-1.547-2.517-1.004-.152-1.944.722-2.089 1.965-.146 1.241.557 2.381 1.561 2.533 1.003.153 1.929-.739 2.075-1.981z"/></g></g><g><path d="M71.814 750.455c-2.977-1.215-2.196-3.408-1.061-6.014 1.135-2.609 2.204-4.646 5.15-3.456 2.932 1.188 4.398 4.244 3.318 6.87-1.099 2.624-4.404 3.802-7.407 2.6zM82.174 742.89c-.996.422-2.058.122-2.365-.669-.313-.79.238-1.769 1.229-2.188.989-.418 2.04-.122 2.348.663.311.786-.218 1.771-1.212 2.194zM83.287 748.334c-1.198-.159-2.044-1.081-1.887-2.056s1.258-1.633 2.456-1.475 2.038 1.073 1.881 2.049c-.158.975-1.253 1.641-2.45 1.482zM77.757 753.427c-.409-.979-1.396-1.492-2.206-1.146s-1.135 1.419-.724 2.402c.412.981 1.401 1.496 2.208 1.148.807-.348 1.13-1.426.722-2.404zM82.482 750.261c-.976-.695-2.246-.605-2.835.201-.591.807-.274 2.029.704 2.728.976.696 2.255.605 2.839-.205.579-.812.268-2.031-.708-2.724z"/><g><path d="M65.746 773.074c-.466-3.218 1.811-3.693 4.64-4.114 2.827-.422 5.142-.619 5.596 2.583.456 3.203-1.47 6.14-4.293 6.568-2.822.43-5.468-1.805-5.943-5.037zM77.472 778.041c-.859-.635-1.126-1.722-.598-2.425.528-.705 1.652-.761 2.51-.125.858.637 1.129 1.723.596 2.426-.529.703-1.649.759-2.508.124zM73.275 781.883c-.451-1.123-.066-2.341.86-2.719.925-.379 2.046.227 2.494 1.35.441 1.122.047 2.335-.878 2.713-.928.375-2.021-.22-2.476-1.344zM66.134 779.762c.646-.862.603-1.981-.096-2.497-.705-.523-1.799-.249-2.443.616-.644.867-.592 1.995.103 2.506.698.515 1.789.236 2.436-.625zM71.207 782.196c.124-1.211-.581-2.263-1.571-2.35-.991-.088-1.895.823-2.019 2.033-.124 1.209.579 2.259 1.569 2.347.991.088 1.896-.821 2.021-2.03z"/></g></g><g><path d="M93.563 778.151c-3.019-1.218-2.271-3.41-1.199-6.067 1.074-2.653 2.065-4.767 5.097-3.533 3.032 1.23 4.632 4.399 3.535 7.077-1.092 2.662-4.434 3.767-7.433 2.523zM103.918 770.583c-.997.408-2.088.089-2.435-.729-.349-.814.177-1.816 1.173-2.233s2.088-.091 2.438.728c.349.815-.178 1.825-1.176 2.234zM105.123 776.243c-1.221-.206-2.086-1.177-1.938-2.176.147-1 1.253-1.65 2.474-1.445 1.222.205 2.096 1.188 1.947 2.188-.148.999-1.262 1.637-2.483 1.433zM99.532 781.267c-.411-1.002-1.407-1.545-2.222-1.21-.815.334-1.145 1.415-.736 2.412s1.4 1.535 2.219 1.206c.817-.329 1.15-1.406.739-2.408zM104.319 778.188c-.997-.745-2.284-.689-2.877.116-.595.808-.273 2.057.718 2.795.993.737 2.284.688 2.883-.112.598-.799.273-2.055-.724-2.799z"/><g><path d="M86.95 800.528c-.281-3.146 1.972-3.59 4.798-3.927 2.813-.337 5.168-.459 5.436 2.743.246 3.215-1.885 5.987-4.699 6.283-1.406.148-2.713-.346-3.691-1.269-1.01-.914-1.705-2.257-1.844-3.83zM98.209 805.844c-.807-.67-.991-1.751-.418-2.418.572-.667 1.691-.662 2.502.018.812.679 1.003 1.767.424 2.425-.578.657-1.703.645-2.508-.025zM93.753 809.376c-.354-1.112.121-2.282 1.064-2.606.944-.325 2.007.326 2.369 1.448.372 1.117-.161 2.296-1.096 2.604-.932.306-1.977-.338-2.337-1.446zM86.908 807.028c.698-.816.758-1.913.083-2.432-.665-.521-1.759-.275-2.447.548-.691.823-.708 1.903-.061 2.419.636.519 1.724.282 2.425-.535zM91.685 809.583c.222-1.166-.389-2.223-1.354-2.347-.966-.125-1.923.73-2.146 1.896-.222 1.167.374 2.202 1.341 2.327.966.125 1.937-.709 2.159-1.876z"/></g></g><g><path d="M114.218 807.228c-2.923-1.51-1.987-3.629-.716-6.224 1.277-2.587 2.406-4.669 5.367-3.104 2.953 1.581 4.387 4.97 3.029 7.562-1.363 2.595-4.75 3.269-7.68 1.766zM125.247 800.672c-1.042.308-2.121-.145-2.414-1.016-.294-.871.304-1.841 1.34-2.16 1.034-.318 2.12.143 2.42 1.024.3.883-.304 1.843-1.346 2.152zM125.971 806.589c-1.205-.363-1.979-1.457-1.74-2.462.24-1.005 1.404-1.541 2.609-1.179 1.207.363 1.997 1.486 1.756 2.491-.241 1.005-1.421 1.511-2.625 1.15zM119.882 811.004c-.308-1.059-1.247-1.723-2.092-1.476-.845.245-1.282 1.298-.98 2.345.302 1.046 1.233 1.698 2.085 1.465.85-.234 1.295-1.275.987-2.334zM124.977 808.469c-.928-.882-2.219-.981-2.891-.233-.672.749-.478 2.05.44 2.916.919.865 2.219.98 2.9.248.681-.733.478-2.05-.449-2.931z"/><g><path d="M105.135 828.63c.172-3.098 2.43-3.3 5.254-3.297 2.819-.008 5.135.191 5.006 3.359-.139 3.173-2.742 5.633-5.514 5.542-2.756-.098-4.945-2.505-4.746-5.604zM115.451 835.22c-.686-.77-.698-1.857-.033-2.436.664-.58 1.761-.42 2.453.366.693.785.713 1.886.041 2.449s-1.775.39-2.461-.379zM110.523 838.061c-.168-1.129.482-2.208 1.457-2.399.977-.191 1.916.594 2.094 1.741s-.481 2.206-1.467 2.379c-.984.172-1.916-.593-2.084-1.721zM104.182 834.912c.803-.704.982-1.752.407-2.331-.576-.58-1.683-.462-2.478.257-.796.718-.982 1.753-.414 2.317.569.566 1.683.461 2.485-.243zM108.467 837.987c.405-1.104-.023-2.216-.944-2.46-.923-.245-1.991.47-2.397 1.573s.004 2.179.927 2.425c.922.246 2.009-.433 2.414-1.538z"/></g></g><g><path d="M131.04 839.011c-2.632-1.98-1.327-3.951.298-6.328 1.611-2.355 3.004-4.257 5.787-2.253 2.681 2.07 3.502 5.775 1.799 8.097-1.703 2.327-5.262 2.471-7.884.484zM142.975 834.309c-1.078.129-2.07-.513-2.22-1.442-.149-.929.593-1.808 1.665-1.953 1.07-.146 2.068.51 2.226 1.456.156.944-.594 1.809-1.671 1.939zM142.829 840.318c-1.118-.576-1.771-1.771-1.383-2.729.379-.954 1.618-1.295 2.777-.736 1.153.562 1.818 1.797 1.381 2.774-.412.97-1.659 1.268-2.775.691zM136.084 843.675c-.091-1.119-.964-1.915-1.84-1.811-.885.107-1.453 1.064-1.32 2.147.105 1.094.898 1.904 1.773 1.819s1.498-1.045 1.387-2.155zM141.523 842.03c-.743-1.052-2.011-1.368-2.795-.737-.777.626-.83 1.965-.084 2.99.744 1.026 1.997 1.372 2.797.761.798-.611.834-1.967.082-3.014z"/><g><path d="M118.547 858.527c.641-2.973 2.92-2.806 5.736-2.333 2.843.45 5.035 1.068 4.285 4.177s-3.643 5.033-6.41 4.473a4.552 4.552 0 01-3.109-2.251c-.656-1.131-.787-2.594-.502-4.066zM127.543 866.771c-.562-.87-.403-1.934.349-2.383.752-.451 1.817-.104 2.382.784.283.443.387.936.324 1.37-.08.44-.326.822-.71 1.041-.784.44-1.771.054-2.345-.812zM122.197 868.684c.01-1.129.826-2.068 1.826-2.085.982-.013 1.852.898 1.768 2.072-.065 1.169-.924 2.098-1.916 2.09-.997-.007-1.725-.938-1.678-2.077zM116.428 864.518c.922-.551 1.306-1.549.863-2.218-.444-.671-1.543-.746-2.458-.179-.916.568-1.306 1.55-.868 2.202.438.654 1.543.745 2.463.195zM120.163 868.256c.576-1.005.324-2.162-.554-2.559-.879-.397-2.054.115-2.631 1.119-.578 1.005-.338 2.12.542 2.519.88.397 2.067-.074 2.643-1.079z"/></g></g><g><path d="M142.183 873.29c-2.276-2.409-.698-4.099 1.347-6.153 2.048-2.042 3.787-3.675 6.088-1.178 2.283 2.51 2.567 6.269.409 8.258-1.07.999-2.479 1.37-3.884 1.19a5.912 5.912 0 01-2.063-.677 7.176 7.176 0 01-1.897-1.44zM154.771 870.795c-1.089-.064-1.967-.868-1.963-1.805.003-.937.883-1.666 1.969-1.619 1.084.047 1.966.866 1.966 1.819 0 .955-.884 1.668-1.972 1.605zM153.464 876.682c-1.008-.759-1.359-2.062-.792-2.936.568-.874 1.843-.987 2.852-.229s1.368 2.102.799 2.975-1.851.947-2.859.19zM146.238 878.784c.073-1.107-.58-2.057-1.457-2.11s-1.647.794-1.724 1.885.574 2.024 1.453 2.095 1.655-.763 1.728-1.87zM151.889 878.126c-.569-1.155-1.748-1.691-2.634-1.212-.888.48-1.149 1.779-.585 2.914.565 1.134 1.747 1.69 2.638 1.231s1.15-1.778.581-2.933z"/><g><path d="M126.416 890.324c.65-1.433 1.423-1.983 2.478-2.079 1.025-.089 2.294.289 3.593.776 2.63.961 4.718 1.941 3.469 4.882-1.25 2.939-4.419 4.36-7.061 3.33-2.643-1.034-3.745-4.057-2.479-6.909zM133.894 900.059c-.405-.958-.081-1.983.736-2.301.816-.318 1.812.205 2.224 1.178.438.97 0 2.024-.812 2.326-.829.304-1.792-.238-2.148-1.203zM128.282 901.061c.245-1.131 1.167-1.918 2.168-1.768 1 .15 1.646 1.209 1.37 2.363-.252 1.151-1.25 1.933-2.228 1.76-.977-.174-1.564-1.223-1.31-2.355zM123.287 895.919c1-.389 1.541-1.314 1.211-2.058-.329-.744-1.402-1.014-2.4-.609-.997.405-1.54 1.316-1.213 2.044.328.728 1.404 1.012 2.402.623zM126.369 900.285c.732-.903.672-2.096-.131-2.641-.803-.547-2.047-.239-2.779.661-.733.902-.677 2.058.127 2.605.779.553 2.055.278 2.783-.625z"/></g></g><g><path d="M147.249 908.887c-1.854-2.729-.022-4.145 2.329-5.828 2.353-1.672 4.335-2.979 6.198-.174 1.863 2.813 1.466 6.519-.894 8.133-1.214.868-2.67 1.011-4.022.583a6.888 6.888 0 01-3.611-2.714zM160.073 908.41c-1.063-.231-1.799-1.151-1.643-2.063.155-.913 1.142-1.484 2.205-1.268 1.063.216 1.798 1.149 1.644 2.076-.155.927-1.142 1.486-2.206 1.255zM157.861 914.285c-.864-1.015-.993-2.473-.289-3.317.658-.75 1.971-.731 2.849.263.87 1.016 1 2.571.29 3.412-.71.842-1.985.655-2.85-.358zM150.382 915.12c.262-1.133-.222-2.236-1.076-2.441-.854-.206-1.758.53-2.02 1.622-.261 1.093.22 2.158 1.073 2.404s1.761-.453 2.023-1.585zM156.063 915.526c-.363-1.35-1.436-2.137-2.39-1.793-.955.344-1.435 1.648-1.074 2.946.362 1.297 1.427 2.136 2.385 1.843.955-.292 1.443-1.648 1.079-2.996z"/><g><path d="M128.596 922.115c1.768-2.204 3.799-1.307 6.19.182 1.193.737 2.271 1.466 2.789 2.32.476.848.414 1.834-.576 3.024a5.707 5.707 0 01-3.717 2.036c-1.421.159-2.796-.182-3.938-.994-1.141-.814-1.789-1.928-1.905-3.087a3.962 3.962 0 01.231-1.762c.223-.583.471-1.171.926-1.719zM133.192 932.617c-.075-.974.578-1.782 1.459-1.828.882-.048 1.651.717 1.716 1.73s-.593 1.859-1.464 1.866c-.872.008-1.636-.795-1.711-1.768zM127.573 931.752c.542-.88 1.712-1.275 2.603-.851.891.423 1.158 1.548.607 2.479-.542.933-1.717 1.273-2.592.801-.865-.474-1.162-1.549-.618-2.429zM124.271 926.074c1.06-.06 1.815-.696 1.687-1.396-.128-.702-1.097-1.169-2.164-1.067-1.068.101-1.824.697-1.688 1.357.136.658 1.105 1.166 2.165 1.106zM125.981 930.521c.974-.528 1.334-1.55.706-2.229-.64-.684-1.908-.755-2.841-.226-.988.525-1.298 1.452-.706 2.133.592.679 1.858.851 2.841.322z"/></g></g><g><path d="M142.693 945.469c-.242-1.629.055-2.639.891-3.316.815-.683 2.077-1.063 3.487-1.476 2.817-.811 5.183-1.505 5.859 2.026.329 1.766.062 3.602-.691 5.034-.8 1.408-2.019 2.447-3.453 2.767-2.868.634-5.538-1.768-6.093-5.035zM154.701 949.967a2.14 2.14 0 01-.633-2.724c.499-.883 1.638-1.11 2.541-.486.893.617 1.236 1.907.681 2.795-.558.886-1.715 1.062-2.589.415zM150.338 954.654c-.383-1.223-.023-2.642.936-3.125.947-.493 2.088.099 2.528 1.369.441 1.271.02 2.743-.981 3.185-.981.462-2.085-.197-2.483-1.429zM143.127 952.472c.711-.9.649-2.114-.067-2.644-.723-.534-1.786-.195-2.452.695-.68.884-.665 2.034.023 2.586.689.552 1.805.275 2.496-.637zM148.196 955.048c.195-1.335-.48-2.456-1.492-2.525-1.014-.07-1.974.907-2.154 2.206-.18 1.298.475 2.454 1.475 2.56.998.107 1.977-.906 2.171-2.241z"/><g><path d="M120.223 950.783c2.563-1.548 4.064.123 5.71 2.415 1.648 2.276 2.858 4.313.106 5.948-2.727 1.642-6.109.91-7.662-1.451-1.578-2.366-.643-5.38 1.846-6.912zM120.711 962.868c.253-1.003 1.146-1.627 1.999-1.402s1.336 1.223 1.073 2.238c-.262 1.016-1.161 1.652-2.006 1.414-.843-.238-1.32-1.249-1.066-2.25zM115.59 960.391c.842-.778 2.103-.849 2.808-.148.706.701.583 1.923-.269 2.717-.852.796-2.104.85-2.799.132s-.584-1.923.26-2.701zM114.572 953.396c1.035.273 2.006-.144 2.164-.92.166-.778-.577-1.604-1.613-1.861-1.038-.256-2.006.145-2.152.902-.148.759.566 1.605 1.601 1.879zM114.496 958.645c1.135-.288 1.85-1.276 1.49-2.173-.34-.9-1.527-1.381-2.637-1.101-1.121.283-1.801 1.238-1.482 2.143.313.904 1.487 1.42 2.629 1.131z"/></g></g><g><path d="M126.441 977.859c.096-3.254 2.397-3.355 5.283-3.323 2.877.031 5.233.157 5.127 3.487-.054 1.663-.695 3.189-1.679 4.262-.983 1.054-2.31 1.685-3.743 1.643-2.868-.084-5.089-2.822-4.988-6.069zM137.169 984.888c-.735-.796-.807-1.909-.154-2.555.651-.637 1.781-.518 2.521.274.739.784.801 1.974.147 2.592s-1.778.478-2.514-.311zM132.329 987.989c-.254-1.185.352-2.356 1.333-2.563.984-.214 1.983.592 2.227 1.805.242 1.217-.362 2.378-1.336 2.563-.977.197-1.973-.61-2.224-1.805zM125.654 984.531c.785-.722.938-1.845.336-2.491-.601-.646-1.726-.566-2.512.16-.785.726-.936 1.836-.335 2.479s1.724.578 2.511-.148zM130.235 987.904c.331-1.171-.182-2.343-1.143-2.617-.962-.276-2.011.448-2.341 1.618-.33 1.171.183 2.342 1.145 2.618.961.276 2.009-.449 2.339-1.619z"/><g><path d="M103.081 979.905c2.893-1.563 4.099.438 5.447 2.964 1.347 2.53 2.321 4.613-.534 6.2-2.86 1.579-6.332.884-7.705-1.641-1.373-2.504-.101-5.996 2.792-7.523zM102.389 992.925c.291-1.065 1.22-1.747 2.068-1.515.85.23 1.303 1.277 1.02 2.329-.285 1.053-1.205 1.723-2.061 1.504-.856-.219-1.318-1.253-1.027-2.318zM97.248 990.48c.916-.901 2.207-1.024 2.891-.287.685.737.511 2.043-.394 2.927-.905.885-2.205 1.024-2.899.304s-.512-2.043.402-2.944zM96.842 982.731c1.043.289 2.1-.182 2.361-1.055.263-.879-.363-1.821-1.4-2.124-1.038-.301-2.099.181-2.365 1.062-.269.882.361 1.828 1.404 2.117zM96.226 988.615c1.203-.38 1.954-1.514 1.707-2.481-.251-.982-1.427-1.5-2.633-1.143-1.204.367-1.977 1.523-1.721 2.521.256 1.003 1.446 1.488 2.647 1.103z"/></g></g></g></svg>