<svg xmlns="http://www.w3.org/2000/svg" width="140" height="70"><g fill="#0095D8"><path d="M22.009 41.618c-1.045-1.916-3.34-2.909-5.427-2.675-1.494.168-3.004 2.088-2.007 4.743 1.486 3.96 4.891 4.414 6.122 3.63 2.289-1.451 2.063-4.32 1.312-5.698M34.232 38.943c-2.088-.234-4.383.759-5.427 2.675-.752 1.378-.979 4.247 1.311 5.698 1.232.784 4.637.33 6.123-3.63.996-2.654-.513-4.573-2.007-4.743"/><path d="M30.862 33.976a6.824 6.824 0 001.37-4.109c0-.71-.108-1.394-.309-2.038l.012.011a3.195 3.195 0 00-4.519-4.517 6.87 6.87 0 00-2.035-.304c-.697 0-1.37.102-2.004.296l.019-.019a3.192 3.192 0 00-4.542 4.489 6.853 6.853 0 00-.322 2.081c0 1.542.51 2.966 1.37 4.11-1.253 1.071-2.346 2.496-3.212 4.184 0 0 4.154-.363 5.967 2.953 1.87 3.414-.25 5.88-.688 6.441l3.299.005.099-.005h3.435c-.438-.564-2.557-3.029-.688-6.445 1.814-3.314 5.968-2.951 5.968-2.951-.867-1.687-1.963-3.113-3.22-4.182m.211-9.771c.538.535.561 1.391.069 1.955a6.894 6.894 0 00-2.015-2.028 1.433 1.433 0 011.946.073m-11.31-.048a1.435 1.435 0 011.949-.075 6.907 6.907 0 00-2.041 2.002 1.435 1.435 0 01.092-1.927m2.874 4.971c-.409.126-.616.641-.743.227a.777.777 0 111.487-.454c.125.411-.333.101-.744.227m2.778 6.102a2.254 2.254 0 01-2.255-2.252 2.253 2.253 0 112.255 2.252m3.504-5.841c-.127.409-.333-.104-.743-.229s-.868.182-.743-.226a.777.777 0 111.486.455"/><path d="M26.773 32.525c-.002-.674-.613-1.215-1.365-1.213-.75.002-1.355.551-1.353 1.223.002.635.545 1.152 1.236 1.207v.586c-.475-.047-.707-.332-.707-.332a.148.148 0 00-.148.148c0 .084.372.49.979.49.604 0 .978-.406.978-.49a.149.149 0 00-.15-.148s-.241.287-.707.332v-.586c.695-.056 1.24-.58 1.237-1.217M42.449 28.42h1.932l2.504 6.939.946 2.644h.079l.907-2.644 2.484-6.939h1.932v12.934h-1.557v-7.117c0-.579.022-1.217.068-1.912.047-.697.096-1.334.148-1.914h-.08l-1.044 2.878-2.484 6.767h-.927l-2.504-6.767-1.026-2.878h-.077c.04.58.085 1.217.138 1.914.053.695.079 1.333.079 1.912v7.117h-1.518V28.42zM63.395 37.41h-4.713l-1.241 3.945h-1.677l4.377-12.936h1.854l4.377 12.936h-1.755l-1.222-3.945zm-.415-1.32l-.613-1.972a80.222 80.222 0 01-.668-2.159c-.211-.717-.421-1.449-.632-2.199h-.078a77.777 77.777 0 01-1.282 4.358l-.61 1.972h3.883zM68.901 28.42h1.637v11.533h5.659v1.401h-7.296zM78.492 28.42h1.637v7.631c0 .775.079 1.426.236 1.952.157.524.371.946.641 1.261s.589.546.957.681c.367.138.762.208 1.183.208.433 0 .834-.07 1.203-.208a2.37 2.37 0 00.966-.681c.276-.314.492-.736.651-1.261.157-.526.235-1.177.235-1.952V28.42h1.578v7.589c0 1.04-.119 1.915-.354 2.624-.237.711-.563 1.285-.977 1.725a3.549 3.549 0 01-1.469.947 5.75 5.75 0 01-1.834.287 5.844 5.844 0 01-1.844-.287 3.544 3.544 0 01-1.479-.947c-.415-.439-.74-1.014-.977-1.725-.236-.709-.354-1.584-.354-2.624V28.42zM91.003 34.887c0-1.036.145-1.973.434-2.801s.69-1.531 1.203-2.109a5.202 5.202 0 011.824-1.33 5.639 5.639 0 012.297-.462c.788 0 1.479.159 2.07.481.591.322 1.077.693 1.459 1.113l-.927 1.045a4.23 4.23 0 00-1.134-.876c-.414-.218-.896-.327-1.449-.327-.62 0-1.177.123-1.676.365-.5.244-.928.592-1.282 1.045s-.631 1.003-.83 1.646c-.194.646-.294 1.367-.294 2.173 0 .812.096 1.545.286 2.194.19.65.456 1.207.799 1.668.341.459.759.814 1.252 1.063a3.63 3.63 0 001.665.376c.633 0 1.181-.126 1.647-.376a5.06 5.06 0 001.331-1.063l.927 1.005a5.798 5.798 0 01-1.736 1.383c-.644.326-1.379.491-2.209.491a5.556 5.556 0 01-2.256-.455c-.69-.301-1.288-.738-1.794-1.311s-.901-1.275-1.184-2.109c-.282-.835-.423-1.777-.423-2.829M103.403 28.42h1.637v5.423h6.014V28.42h1.656v12.934h-1.656v-6.092h-6.014v6.092h-1.637zM119.219 35.458h-3.589v-1.222h3.589v-3.843h1.282v3.843h3.588v1.222h-3.588v3.845h-1.282z"/></g></svg>