<svg xmlns="http://www.w3.org/2000/svg" width="110.023" height="113.366"><path fill="#A3A2A3" d="M76.842 88.347s9.266 3.5 20.258 2c0 0 1.439-2.131 1.466-3.398s.776-1.273 1.359-.521.417 2.085 0 3.919-.886 1.208-.716 2.375c.277 1.896 1.666-.429 2.091 1.271.563 2.25-4.708 1.271-4.708 1.271s-4.334 3.166-9.917 3.333-9.833-10.25-9.833-10.25zM63.727 99.941c-1.139-4.272-1.737-8.37-2.05-11.275-2.089 1.376-11.413 7.65-14.827 12.073 0 0-2.461.84-2.711 1.522-.352.978 1.986.763 1.986.763s-1.974 1.834-1.742 2.459c.377 1.027 3.181-1.041 3.181-1.041s-2.14 2.541-1.323 3.014c1.228.713 2.43-2.021 4.167-2.154 1.74-.133 2.104.615 2.735-.314.385-.559-1.459-1.939-1.459-1.939s7.512-2.63 12.043-3.108z"/><path fill="#A3A2A3" d="M93.306 110.408c-1.651-15.471-21.169-24.229-21.169-24.229L63.228 87.5S57.22 102 58.318 114h35.033c.083-1 .078-2.439-.045-3.592z"/><path fill="#D7C4C9" d="M79.115 92.082C66.711 81.33 63.537 105 64.884 114H90.78c.218-7-4.294-15.526-11.665-21.918z"/><path fill="#D1ACB3" d="M81.279 95.174c2.33 2.021 4.375 4.136 6.075 6.491-2.004-3.557-4.813-6.825-8.239-9.796C66.711 81.116 63.537 105 64.884 114h1.89c-.257-11 3.474-28.389 14.505-18.826z"/><path fill="#7F7D7D" d="M58.176 110.478c-3.93-1.938-8.967-3.063-14.629-1.043-11.883 4.238-18.461-7.181-13.85-12.296 0 0-3.791 3.339-1.949 8.164 1.687 4.404 6.791 8.795 18.355 5.93 3.945-.977 8.019.768 11.178 2.768h1.09a32.41 32.41 0 01-.195-3.523z"/><path fill="#A3A2A3" d="M98.09 90.488c.801-.15.713-.452 1.598 0s1.436.979 1.47 2.337c.033 1.356-1.313 1.8-1.866 1.96-.785.229-1.844-.377-1.844-.377l.642-3.92zM41.291 31.571c.875 11.383-7.643 21.328-19.025 22.201C10.877 54.649.938 46.124.063 34.741-.814 23.354 7.707 13.415 19.092 12.54c11.385-.874 21.324 7.644 22.199 19.031z"/><path fill="#D1ACB3" d="M33.07 31.62c.555 7.189-4.824 13.467-12.016 14.018-7.188.555-13.463-4.825-14.016-12.017-.553-7.185 4.828-13.46 12.014-14.013 7.193-.552 13.469 4.827 14.018 12.012z"/><path fill="#D7C4C9" d="M33.958 32.778c.539 7.033-4.722 13.167-11.748 13.707-7.028.541-13.165-4.714-13.706-11.749-.543-7.03 4.72-13.162 11.75-13.704 7.025-.539 13.164 4.716 13.704 11.746z"/><path fill="#A3A2A3" d="M96.415 25.344c-3.141 10.102-13.872 15.742-23.972 12.604-10.104-3.14-15.752-13.871-12.611-23.975C62.979 3.875 73.705-1.775 83.805 1.37c10.105 3.139 15.747 13.871 12.61 23.974z"/><path fill="#D1ACB3" d="M89.32 22.576c-1.986 6.38-8.758 9.941-15.139 7.96-6.378-1.982-9.945-8.76-7.958-15.141 1.978-6.377 8.761-9.94 15.138-7.957 6.38 1.982 9.94 8.758 7.959 15.138z"/><path fill="#D7C4C9" d="M89.414 23.961c-1.934 6.236-8.563 9.721-14.803 7.779-6.234-1.938-9.721-8.564-7.783-14.802 1.942-6.237 8.57-9.721 14.805-7.778 6.237 1.934 9.721 8.565 7.781 14.801z"/><path fill="#B3B2B3" d="M107.475 70.715l-.283-3.381s-4.045-3.688-6.6-3.678c-2.666.01-5.657-.533-8.256-1.178.5-2.813.662-5.736.428-8.723-1.459-19.005-18.053-33.232-37.063-31.768-19.004 1.463-33.232 18.06-31.769 37.063 1.461 19.009 17.313 33.397 36.373 33.042 24.066-.438 47.17-21.377 47.17-21.377z"/><path fill="#A3A2A3" d="M62.615 91.881c-19.06.356-34.912-14.034-36.375-33.041-1.42-18.445 11.94-34.618 30.102-36.892-.213.012-.426.022-.641.041C36.697 23.45 22.469 40.047 23.932 59.05c1.461 19.009 17.313 33.397 36.373 33.042a44.78 44.78 0 004.381-.299 42.17 42.17 0 01-2.071.088z"/><path fill="#494646" d="M110.01 66.772c.244 3.168-2.688 5.975-6.553 6.27-3.857.298-7.185-2.031-7.43-5.195-.242-3.174 2.693-5.979 6.549-6.273 3.861-.3 7.188 2.02 7.434 5.198z"/><path fill="#222221" d="M97.141 69.717c-.245-3.175 2.693-5.98 6.549-6.275 2.473-.192 4.726.693 6.09 2.188-.852-2.572-3.822-4.318-7.203-4.057-3.855.295-6.791 3.1-6.549 6.273.088 1.136.576 2.166 1.342 3.002a4.721 4.721 0 01-.229-1.131zM106.303 59.393c-.046.26-3.449-.783-7.462.404-4.005 1.135-6.646 3.449-6.791 3.252-.196-.134 2.296-2.869 6.557-4.086 2.104-.605 4.134-.578 5.53-.329 1.406.263 2.197.66 2.166.759z"/><path fill="#222221" d="M102.059 54.713c.068.227-2.691 1.172-5.35 3.512-2.693 2.286-4.348 4.69-4.548 4.559-.214-.106 1.169-2.818 3.985-5.219 2.806-2.465 5.888-3.1 5.913-2.852z"/><ellipse transform="rotate(-23.045 65.7 65.01)" fill="#222221" cx="65.701" cy="65.018" rx="1.999" ry="3.271"/><ellipse transform="rotate(-17.862 83.838 58.737)" fill="#222221" cx="83.842" cy="58.748" rx="2.001" ry="3.271"/><path fill="#222221" d="M35.766 89.576c-.129-.052.311-1.163 1.567-2.66 1.24-1.493 3.294-3.313 5.827-4.978 5.07-3.344 9.826-5.036 9.942-4.785.146.262-4.315 2.348-9.267 5.614-2.474 1.626-4.533 3.295-5.885 4.618-1.357 1.315-2.03 2.268-2.184 2.191zM27.809 79.01c-.139-.206 5.219-2.699 12.518-3.469 7.303-.846 13.176.729 13.027 1.047-.053.222-5.797-.845-12.894-.022-7.087.741-12.524 2.755-12.651 2.444z"/><g><path d="M85.889 80.036c.025.057-.229.236-.719.5-.49.258-1.217.604-2.143.966a25.04 25.04 0 01-3.344 1.041c-1.287.301-2.743.524-4.291.521-1.546-.003-3.033-.258-4.301-.736-1.272-.476-2.309-1.172-3.05-1.873-.744-.705-1.206-1.402-1.459-1.905-.258-.507-.313-.825-.255-.847.059-.025.223.23.557.652a9.688 9.688 0 001.587 1.605 9.498 9.498 0 002.905 1.563c1.184.401 2.561.612 4.019.616 1.458.005 2.854-.184 4.108-.428a36.24 36.24 0 003.312-.829c.937-.276 1.689-.522 2.218-.681.528-.158.83-.226.856-.165z"/><path d="M85.889 80.036c.025.057-.229.236-.719.5-.49.258-1.217.604-2.143.966a25.04 25.04 0 01-3.344 1.041c-1.287.301-2.743.524-4.291.521-1.546-.003-3.033-.258-4.301-.736-1.272-.476-2.309-1.172-3.05-1.873-.744-.705-1.206-1.402-1.459-1.905-.258-.507-.313-.825-.255-.847.059-.025.223.23.557.652a9.688 9.688 0 001.587 1.605 9.498 9.498 0 002.905 1.563c1.184.401 2.561.612 4.019.616 1.458.005 2.854-.184 4.108-.428a36.24 36.24 0 003.312-.829c.937-.276 1.689-.522 2.218-.681.528-.158.83-.226.856-.165z"/><path fill="#B3B2B3" d="M83.027 81.501a25.04 25.04 0 01-3.344 1.041c-1.287.301-2.743.524-4.291.521a15.484 15.484 0 01-.991-.039c.118.451.313 1.32.595 1.925.383.82.926 1.603 1.658 1.813 1.674.484 5.969.402 6.527-5.051.006-.045.012-.168.019-.28a3.288 3.288 0 01-.173.07z"/><path fill="#FFF" d="M83.027 81.501a25.04 25.04 0 01-3.344 1.041c-1.287.301-2.743.524-4.291.521-.289 0-.574-.012-.858-.031.116.445.269.987.462 1.402.383.821.926 1.602 1.658 1.812a5.422 5.422 0 001.829.173c.099-.007.202-.014.306-.029 1.809-.226 3.908-1.387 4.363-4.939-.041.016-.082.034-.125.05z"/><path fill="#B3B2B3" d="M79.066 83.41c-.054 1.92-.441 2.709-.809 3.019.075-.002.15-.004.226-.01.099-.007.202-.014.306-.029.221-.025.445-.069.671-.127-.06-.735-.372-3.523-.394-2.853z"/></g></svg>