<svg xmlns="http://www.w3.org/2000/svg" xmlns:xlink="http://www.w3.org/1999/xlink" width="192.622" height="206.717"><path opacity=".08" d="M111.299 149.172c1.579 0 3.122.033 4.617.094 7.568-2.354 20.282-3.898 34.693-3.898 23.203 0 42.013 4.006 42.013 8.943 0 4.939-18.81 8.943-42.013 8.943-14.411 0-27.125-1.543-34.693-3.896a113.37 113.37 0 01-4.617.094c-13.334 0-24.145-2.303-24.145-5.141s10.811-5.139 24.145-5.139z"/><path fill="#A3A2A3" d="M91.816 128.426c-.056-.768.164-2.314.164-2.314l4.107-2.16c2.1-1.533 19.413-9.488 22.771-11.002 3.721.176-4.727 11.064-6.264 14.641-5.12-.809-11.889.479-11.889.479s-4.348 4.74-6.328 4.322c-1.974-.42 0 0-1.137-1.176-.758-.791 2.44-2.92 2.44-2.92s-3.776 1.393-3.864.13zM102.159 138.77c2.292-2.969 7.716-8.404 11.804-4.613-.859 1.852 3.947 4.49 3.625 6.613-.602 3.953 2.256 8.521 3.708 11.449-9.367-3.463-22.13 2.041-22.13 2.041-.889-8.594-5.115-19.781-5.115-19.781 5.04-1.762 8.108 4.291 8.108 4.291z"/><path fill="#7F7D7D" d="M92.75 145.363c1.418 5.465 4.285 9.447 6.416 8.896 2.129-.555 2.711-5.432 1.301-10.891-1.417-5.459-4.285-9.439-6.416-8.891s-2.709 5.425-1.301 10.886z"/><path fill="#A3A2A3" d="M122.945 107.586s-16.578 18.268-11.062 35.391c6.053 18.77 32.051 15.383 38.282 2.977 8.578-17.109-17.285-41.379-17.285-41.379l-9.935 3.011z"/><path fill="#7F7D7D" d="M152.096 133.943c3.244-3.893 8.053-7.41 14.986-7.934 14.543-1.1 16.144-16.234 8.87-19.477 0 0 5.577 1.76 5.897 7.723.283 5.445-3.079 12.412-16.644 14.813-5.223.926-9.079 5.395-11.396 9.52a36.87 36.87 0 00-1.713-4.645z"/><path fill="#D7C4C9" d="M143.777 134.455c2.381 13.318-12.394 19.881-20.875 17.154-10.004-3.215-11.643-20.283-4.759-34.961 8.447-18.007 24.076 9.012 25.634 17.807z"/><path fill="#D1ACB3" d="M143.074 139.041c-1.559-8.795-17.188-35.813-25.633-17.807a45.289 45.289 0 00-3.307 9.857c.449-4.697 1.782-9.695 4.009-14.443 8.446-18.008 24.075 9.012 25.634 17.807.478 2.672.264 5.072-.449 7.178a16.172 16.172 0 00-.254-2.592z"/><path fill="#A3A2A3" d="M160.097 142.236c-.78-3.967-3.089-11.871-10.957-9.48-.061 2.199.711 6.576 0 8.777-1.321 4.102-2.296 6.65-5.106 8.773 2.811-2.123 11.494 8.307 11.494 8.307C160.521 150.754 169.98 142 169.98 142c-4.011-4.123-9.883.236-9.883.236z"/><path fill="#7F7D7D" d="M165.996 153.121c-3.997 4.588-8.678 7.047-10.469 5.492-1.785-1.561.001-6.543 3.988-11.127 3.993-4.582 8.676-7.041 10.465-5.486 1.791 1.555.002 6.535-3.984 11.121z"/><path fill="#A43F69" d="M167.912 158.15a1 1 0 00-.847-.633l-111.658-9.551a.974.974 0 00-.521.096L.563 174.399a.998.998 0 00.197 1.87l122.963 30.287a1 1 0 00.977-.296l43.018-47.072a.997.997 0 00.194-1.038z"/><path fill="#D8D8D8" d="M61.646 190.133s-8.499-5.99-24.749-8.49C15.674 178.377 1 175.299 1 175.299l54.322-26.336s12.606-5.977 26.023-3.924c13.416 2.051 20.902 7.938 20.902 7.938l-40.601 37.156z"/><path fill="#D8D8D8" d="M1 175.299s2.137-2.572 1.043-3.518l18.322-1.695-7.75 5.832L1 175.299z"/><path fill="#C7C7C7" d="M166.98 158.514s-1.199-1.678-1.115-3.012l-38.125 23.625-4.25 22.5s-.234 1.182-.063 2.125c.162.891.535 1.834.535 1.834l43.018-47.072z"/><path fill="#D8D8D8" d="M61.646 190.133s8.983-3.027 30.926 4.711c17.784 6.271 31.392 10.742 31.392 10.742l43.018-47.072s-7.164-8.186-34.39-9.551c-22.325-1.121-30.343 4.014-30.343 4.014l-40.603 37.156z"/><path fill="#FFF" d="M61.646 190.133s-5.97-10.42-27.303-12.859c-21.333-2.438-32.3-5.492-32.3-5.492l53.322-26.336s12.563-2.459 25.98-.406c13.416 2.051 20.902 7.938 20.902 7.938l-40.601 37.155z"/><path fill="#FFF" d="M61.646 190.133s9.679-7.461 30.91 0c17.262 6.064 30.935 11.494 30.935 11.494l42.375-46.125s-12.933-5.195-33.246-8.578c-22.049-3.674-30.371 6.053-30.371 6.053l-40.603 37.156z"/><path fill="#F0D986" d="M34.598 159.061l-19.543 11.035c4.063.637 10.241 1.586 19.457 2.963l17.989-11.787c-6.619-1.106-13.309-1.807-17.903-2.211z"/><path fill="#CD96A3" d="M56.594 162.014l-17.201 11.797c8.879 1.51 14.684 3.883 18.455 6.223l15.674-12.477c-1.998-1.135-4.664-2.313-8.24-3.42-2.62-.813-5.595-1.516-8.688-2.123z"/><path fill="#80BBCE" d="M72.764 147.994c-6.348-.891-13.399-.666-17.943-.352l-13.164 7.467c4.482.27 11.061 1.008 17.234 2.02l13.873-9.135z"/><path fill="#A43F69" d="M78.745 149.293c-.828-.264-1.7-.49-2.597-.689l-13.45 9.23c2.153.453 5.843 1.063 7.535 1.668 3.757 1.344 6.056 2.33 8.157 4.178l11.596-9.23a50.036 50.036 0 00-11.241-5.157z"/><path fill="#FFF" d="M102.248 152.977l-40.603 37.156s-7.217-36.873-36.666-48.764l51.735-29.201c.001 0 27.96 14.674 25.534 40.809z"/><g><path fill="#F0D986" d="M100.379 187.879c7.834 2.576 15.193 5.512 20.126 7.584l13.836-14.996a489.046 489.046 0 00-20.139-7.158l-13.823 14.57z"/><defs><path id="a" d="M100.379 187.879c7.834 2.576 15.193 5.512 20.126 7.584l13.836-14.996a489.046 489.046 0 00-20.139-7.158l-13.823 14.57z"/></defs><clipPath id="b"><use xlink:href="#a" overflow="visible"/></clipPath><path clip-path="url(#b)" fill="#E6C373" d="M122.82 173.309s-3.02 3.695-2.592 8.027c0 0-2.736-.5-5.238 2.166-2.502 2.668 2.499 7.168 5.748 5 3.25-2.166 2.42-5.832 2.42-5.832s5.248-.521 10.695-5.395-11.033-3.966-11.033-3.966z"/><path fill="#80BBCE" d="M140.461 173.832l13.371-14.492c-5.8-2.422-13.943-4.504-20.832-5.844l-13.055 13.76c9.139 2.793 16.046 5.062 20.516 6.576z"/><defs><path id="c" d="M140.461 173.832l13.371-14.492c-5.8-2.422-13.943-4.504-20.832-5.844l-13.055 13.76c9.139 2.793 16.046 5.062 20.516 6.576z"/></defs><clipPath id="d"><use xlink:href="#c" overflow="visible"/></clipPath><path clip-path="url(#d)" fill="#A9DDE4" d="M122.537 162.904s4.328-2.152 5.328 1.682c.88 3.375 5.447.105 11-.906s7.057 6.303 7.057 6.303l-6.189 5.578-21.84-8.189 4.644-4.468z"/><path fill="#FF9085" d="M108.99 171.627c-8.312-2.615-15.054-2.477-19.991-1.51l-15.277 14.197c4.706-.814 11.104-.963 18.85 1.188 1.151.32 2.308.658 3.461 1.006L110 171.947l-1.01-.32z"/><defs><path id="e" d="M108.99 171.627c-8.312-2.615-15.054-2.477-19.991-1.51l-15.277 14.197c4.706-.814 11.104-.963 18.85 1.188 1.151.32 2.308.658 3.461 1.006L110 171.947l-1.01-.32z"/></defs><clipPath id="f"><use xlink:href="#e" overflow="visible"/></clipPath><path clip-path="url(#f)" fill="#A43F69" d="M84.957 173.002s-5.154 6.084.954 7.543c6.108 1.457 14.898-6.684 14.898-6.684s-2.3 4.758.946 4.699c3.244-.059 12.18-9.082 12.18-9.082l-6.588-2.107-16.335-1.385-6.055 7.016z"/><path fill="#BF5B51" d="M115.718 165.986l13.095-13.65c-9.53-2.029-15.238-1.58-20.714.031l-13.177 12.246c5.115-1.06 12.013-1.168 20.796 1.373z"/><path fill="#FF9085" d="M111.447 153.148s-2.431.93-4.676 3.223c-2.244 2.295-2.997 5.723-.916 6.041 3.896.596 4.949-2.896 4.949-2.896s1.481 3.523 5.043 1.402c3.33-1.982.594-7.105-4.4-7.77z"/><path fill="#D1ACB3" d="M53.99 130.734l-18.258 10.643c4.314 2.898 10.568 7.971 16.06 15.752l18.441-12.588c-4.507-7.285-11.315-11.529-16.243-13.807z"/><path fill="#E6C373" d="M75.322 140.646c.063.1.121.197.183.297l14.996-10.236c-4.589-6.477-10.059-10.721-13.888-13.158l-16.238 9.465c4.414 2.453 10.594 6.81 14.947 13.632z"/><path fill="#F1E9E9" d="M71.893 147.479L54.018 160.5c4.179 6.764 6.902 13.746 8.554 18.895l15.832-13.307c-.972-4.928-2.863-11.666-6.511-18.609z"/><defs><path id="g" d="M71.893 147.479L54.018 160.5c4.179 6.764 6.902 13.746 8.554 18.895l15.832-13.307c-.972-4.928-2.863-11.666-6.511-18.609z"/></defs><clipPath id="h"><use xlink:href="#g" overflow="visible"/></clipPath><path clip-path="url(#h)" fill="#D7C4C9" d="M74.17 150.98s-2.383-.063-2.908 2.846c0 0-2.461-1.633-3.82.441s.301 5.141 2.823 4.328c2.522-.811 1.802-3.74 1.802-3.74s3.688.08 5.172-.795c4.27-2.519-3.069-3.08-3.069-3.08zM78.848 162.281s-4.49 3.869-7.287 2.92c0 0 .232 2.941-2.24 3.125s-4.349-2.756-2.415-4.568c1.933-1.813 4.146.24 4.146.24s4.253-6.488 5.738-7.361c4.274-2.512 2.058 5.644 2.058 5.644z"/><path fill="#A9DDE4" d="M83.203 162.055l12.881-10.826c.125-5.254-.596-12.234-4.164-18.34l-14.805 10.785c3.851 6.99 5.453 13.556 6.088 18.381z"/><path fill="#F0D986" d="M88.006 144.393c-1.214-2.061-2.928-2.223-4.334-.971-1.742 1.549-1.513 4.377.536 5.717 2.569 1.679 5.41-2.012 3.798-4.746z"/><path fill="#494646" d="M70.514 126.604c-.923-.184-1.42.277-1.42 1.018 0 .918.889 1.59 1.818 1.34 1.167-.316.826-2.116-.398-2.358zM76.146 132.701c-.723-.602-1.379-.436-1.734.213-.441.805.018 1.822.953 2.047 1.175.283 1.739-1.459.781-2.26z"/><g><defs><path id="i" d="M53.99 130.734l-18.258 10.643c4.314 2.898 10.568 7.971 16.06 15.752l18.441-12.588c-4.507-7.285-11.315-11.529-16.243-13.807z"/></defs><clipPath id="j"><use xlink:href="#i" overflow="visible"/></clipPath><path clip-path="url(#j)" fill="#A43F69" d="M36.615 139.252s7.545 9.115 20.643 8.977 16.264-4.494 16.264-4.494L54.74 127.842l-18.125 11.41z"/></g><path fill="#BF5B51" d="M73.722 123.502s2.644-1.285 6.769 2.107 2.014 6.703 2.014 6.703-4.177-3.185-8.783-8.81z"/></g><path opacity=".08" d="M61.646 190.133l40.603-37.156a33.653 33.653 0 00-1.11-12.258 41.06 41.06 0 01-3.799 3.236c-14.333 10.76-49.875 8.282-56.55 7.709 16.354 15.527 20.856 38.469 20.856 38.469z"/><g><path fill="#A3A2A3" d="M116.863 35.833c6.656 11.4 21.297 15.254 32.695 8.596 11.406-6.66 15.248-21.305 8.59-32.705C151.492.322 136.851-3.524 125.45 3.136c-11.4 6.658-15.246 21.297-8.587 32.697z"/><path fill="#D1ACB3" d="M124.712 30.474c4.202 7.199 13.446 9.631 20.646 5.422 7.199-4.201 9.626-13.445 5.421-20.646-4.201-7.193-13.445-9.621-20.643-5.418-7.2 4.205-9.628 13.449-5.424 20.642z"/><path fill="#D7C4C9" d="M124.63 32.158c4.115 7.043 13.151 9.414 20.188 5.305 7.039-4.109 9.415-13.145 5.303-20.189-4.108-7.041-13.147-9.408-20.188-5.299-7.036 4.108-9.413 13.144-5.303 20.183z"/><path fill="#A3A2A3" d="M60.354 66.181c9.632 7.537 23.544 5.84 31.083-3.789 7.543-9.633 5.852-23.551-3.781-31.09-9.635-7.533-23.551-5.848-31.086 3.787-7.541 9.633-5.845 23.549 3.784 31.092z"/><path fill="#D1ACB3" d="M65.277 58.88c6.088 4.76 14.866 3.691 19.631-2.391 4.762-6.08 3.692-14.873-2.393-19.631-6.076-4.764-14.87-3.689-19.629 2.395-4.761 6.08-3.688 14.866 2.391 19.627z"/><path fill="#D7C4C9" d="M66.101 60.261c5.941 4.656 14.536 3.607 19.192-2.344 4.652-5.945 3.607-14.539-2.338-19.193-5.951-4.654-14.543-3.605-19.193 2.342-4.658 5.943-3.61 14.541 2.339 19.195z"/><path fill="#B3B2B3" d="M79.686 116.598l-1.971-3.43s1.298-6.086 3.668-7.672c2.611-1.748 5.178-4.305 7.28-6.689a39.8 39.8 0 01-6.146-8.012c-11.115-19.03-4.696-43.477 14.339-54.59 19.032-11.113 43.479-4.693 54.593 14.34 11.115 19.033 5.508 43.143-12.848 55.346-23.171 15.416-58.915 10.707-58.915 10.707z"/><path fill="#A3A2A3" d="M136.266 107.209c18.357-12.203 23.963-36.313 12.848-55.348-10.784-18.471-34.127-25.059-52.893-15.273.211-.129.421-.258.636-.383 19.032-11.113 43.479-4.693 54.593 14.34 11.115 19.033 5.508 43.143-12.848 55.346a53.043 53.043 0 01-4.362 2.598 53.117 53.117 0 002.026-1.28z"/><path fill="#494646" d="M74.684 114.514c1.851 3.174 6.486 3.914 10.354 1.65 3.864-2.254 5.494-6.656 3.646-9.826-1.855-3.176-6.494-3.912-10.354-1.658-3.867 2.258-5.504 6.652-3.646 9.834z"/><path fill="#222221" d="M88.855 108.85c-1.855-3.18-6.493-3.916-10.355-1.658-2.477 1.443-4.035 3.768-4.35 6.088-.883-3.006.795-6.621 4.18-8.6 3.859-2.254 8.498-1.518 10.354 1.658.665 1.139.878 2.438.7 3.738a5.475 5.475 0 00-.529-1.226zM73.354 105.061c.215.219 2.764-3.014 7.359-4.525 4.557-1.557 8.59-1.092 8.598-1.375.1-.256-4.072-1.219-8.924.428-2.398.811-4.311 2.17-5.475 3.326-1.164 1.175-1.654 2.073-1.558 2.146z"/><path fill="#222221" d="M74.309 97.82c.086.26 3.33-.66 7.396-.184 4.066.404 7.221 1.6 7.324 1.344.134-.24-2.964-1.91-7.225-2.342-4.287-.493-7.634.93-7.495 1.182zM113.394 84.164c.422 2.047 1.78 3.496 3.028 3.238 1.251-.256 1.922-2.121 1.5-4.17-.42-2.049-1.775-3.497-3.025-3.241-1.251.259-1.924 2.126-1.503 4.173zM92.072 90.34c.604 2 2.086 3.322 3.308 2.951C96.602 92.922 97.104 91 96.498 89c-.602-2-2.082-3.322-3.306-2.951-1.221.367-1.725 2.289-1.12 4.291zM160.277 87.354c.088-.137-1.061-.902-3.239-1.498-2.162-.605-5.313-.984-8.815-.9-7.02.156-12.657 1.676-12.603 1.992.035.344 5.649-.607 12.504-.758 3.423-.082 6.479.15 8.633.52 2.158.354 3.425.817 3.52.644zM160.893 72.072c-.005-.287-6.738.867-14.186 4.938-7.498 4-12.049 9.36-11.695 9.567.195.176 4.953-4.62 12.244-8.504 7.226-3.96 13.721-5.624 13.637-6.001z"/><g><path d="M106.343 111.258c.015.07.373.074 1.013.002a24.504 24.504 0 002.674-.492 28.662 28.662 0 003.863-1.209c1.422-.561 2.954-1.305 4.422-2.328 1.469-1.02 2.715-2.238 3.605-3.529.897-1.289 1.424-2.633 1.666-3.787.246-1.16.225-2.125.135-2.771-.088-.65-.244-.992-.314-.975-.073.016-.059.367-.1.988-.04.623-.135 1.52-.453 2.57a10.942 10.942 0 01-1.733 3.4c-.861 1.158-2.032 2.266-3.416 3.227-1.384.965-2.833 1.705-4.188 2.297s-2.622 1.037-3.693 1.391-1.951.613-2.557.811c-.605.196-.939.331-.924.405z"/><path d="M106.343 111.258c.015.07.373.074 1.013.002a24.504 24.504 0 002.674-.492 28.662 28.662 0 003.863-1.209c1.422-.561 2.954-1.305 4.422-2.328 1.469-1.02 2.715-2.238 3.605-3.529.897-1.289 1.424-2.633 1.666-3.787.246-1.16.225-2.125.135-2.771-.088-.65-.244-.992-.314-.975-.073.016-.059.367-.1.988-.04.623-.135 1.52-.453 2.57a10.942 10.942 0 01-1.733 3.4c-.861 1.158-2.032 2.266-3.416 3.227-1.384.965-2.833 1.705-4.188 2.297s-2.622 1.037-3.693 1.391-1.951.613-2.557.811c-.605.196-.939.331-.924.405z"/><path fill="#B3B2B3" d="M110.029 110.768a28.662 28.662 0 003.863-1.209c1.422-.561 2.954-1.305 4.422-2.328.316-.219.621-.451.917-.689.186.508.571 1.461.701 2.223.176 1.031.175 2.133-.384 2.814-1.272 1.563-5.41 4.311-9.529-.508-.035-.039-.121-.152-.202-.254l.212-.049z"/><path fill="#FFF" d="M110.029 110.768a28.662 28.662 0 003.863-1.209c1.422-.561 2.954-1.305 4.422-2.328.275-.189.538-.389.797-.594.183.5.393 1.115.483 1.637.175 1.033.173 2.133-.386 2.813-.347.428-.908.941-1.625 1.369-.1.059-.201.119-.311.174-1.867.975-4.627 1.252-7.398-1.826.054-.013.102-.025.155-.036z"/><path fill="#B3B2B3" d="M115.049 109.979c1.316 1.789 2.203 2.285 2.756 2.338a6.906 6.906 0 01-.221.139c-.1.059-.201.119-.311.174a6.123 6.123 0 01-.721.32c-.427-.739-1.963-3.595-1.503-2.971z"/></g></g><path fill="#A3A2A3" d="M95.484 126.111s-3.223 2.311-2.889 3.145 2 1.855 5-1.572-2.111-1.573-2.111-1.573zM131.633 125.846c0-8.793 2.148-13.047 3.977-13.355 3.072-.52 9.16 3.439 8.563 13.311-.726 12-5.718 15.461-9.312 21.252 0 0 .094 3.172-.579 3.748-.968.82-1.722-1.941-1.722-1.941s-1.252 3.039-2.064 3.041c-1.336.006-.17-4.078-.17-4.078s-1.992 3.531-2.879 2.801c-1.338-1.1 1.273-3.641.682-5.684-.593-2.043-1.603-2.139-.812-3.26.474-.678 2.84.84 2.84.84s1.476-2.615 1.476-16.675z"/></svg>