<svg xmlns="http://www.w3.org/2000/svg" width="53" height="44.125"><circle fill="#A3A2A3" cx="9.959" cy="15.73" r="9.959"/><path fill="#D1ACB3" d="M15.931 14.991a6.285 6.285 0 01-5.788 6.752 6.286 6.286 0 01-6.752-5.788 6.289 6.289 0 0112.54-.964z"/><circle fill="#D7C4C9" cx="10.227" cy="16.021" r="6.149"/><path fill="#A3A2A3" d="M46.445 11.968a9.223 9.223 0 01-11.547 6.071c-4.869-1.513-7.588-6.681-6.075-11.548C30.339 1.627 35.506-1.095 40.37.418a9.229 9.229 0 016.075 11.55z"/><circle fill="#D1ACB3" cx="37.464" cy="8.905" r="5.826"/><path fill="#D7C4C9" d="M43.073 11.302a5.695 5.695 0 01-7.132 3.747 5.696 5.696 0 113.382-10.878 5.695 5.695 0 013.75 7.131z"/><path fill="#B3B2B3" d="M51.773 33.824l-.137-1.643s-1.887-1.775-3.076-1.759c-1.311.021-2.793-.248-4.082-.565.242-1.356.319-2.764.207-4.203-.703-9.154-8.697-16.007-17.852-15.302-9.154.704-16.008 8.698-15.304 17.855a17.183 17.183 0 0017.524 15.916c11.592-.211 22.72-10.299 22.72-10.299z"/><path fill="#A3A2A3" d="M30.164 44.02a17.178 17.178 0 01-17.522-15.916c-.685-8.885 5.75-16.674 14.499-17.771-.102.006-.205.012-.308.02-9.154.704-16.008 8.698-15.304 17.855a17.183 17.183 0 0017.523 15.916 21.818 21.818 0 002.108-.145c-.332.02-.664.037-.996.041z"/><path fill="#494646" d="M52.993 31.924c.118 1.527-1.294 2.881-3.157 3.02-1.857.146-3.459-.978-3.577-2.5-.118-1.529 1.298-2.881 3.155-3.023 1.857-.146 3.462.974 3.579 2.503z"/><path fill="#222221" d="M46.795 33.343c-.119-1.528 1.297-2.881 3.154-3.022 1.189-.092 2.275.334 2.934 1.054-.41-1.238-1.842-2.08-3.469-1.955-1.857.142-3.273 1.494-3.155 3.022.041.548.276 1.043.646 1.447a2.31 2.31 0 01-.11-.546zM51.208 28.37c-.022.124-1.66-.376-3.595.194-1.93.547-3.201 1.662-3.271 1.566-.096-.063 1.104-1.381 3.158-1.968a6.13 6.13 0 012.664-.159c.678.129 1.059.319 1.044.367z"/><path fill="#222221" d="M49.164 26.115c.033.109-1.297.564-2.578 1.691-1.296 1.102-2.093 2.26-2.189 2.196-.103-.05.563-1.356 1.92-2.515 1.35-1.185 2.835-1.49 2.847-1.372z"/><ellipse transform="scale(-1) rotate(66.978 46.974 -47.831)" fill="#222221" cx="31.647" cy="31.08" rx="1.576" ry=".964"/><ellipse transform="rotate(-107.842 40.385 28.06)" fill="#222221" cx="40.387" cy="28.06" rx="1.575" ry=".962"/><path fill="#222221" d="M17.229 42.909c-.062-.025.15-.562.755-1.281.598-.719 1.587-1.595 2.809-2.397 2.441-1.61 4.734-2.428 4.79-2.306.069.126-2.08 1.132-4.465 2.704-1.193.785-2.184 1.589-2.834 2.225-.656.634-.98 1.091-1.055 1.055zM13.396 37.82c-.067-.1 2.514-1.301 6.031-1.67 3.518-.408 6.346.349 6.274.502-.024.108-2.792-.406-6.21-.01-3.415.358-6.034 1.326-6.095 1.178z"/><g><path d="M41.373 38.313c.014.028-.107.115-.346.242-.236.125-.586.29-1.032.465-.446.172-.989.355-1.61.5a8.914 8.914 0 01-2.066.252 5.944 5.944 0 01-2.072-.355 4.388 4.388 0 01-1.469-.902 3.44 3.44 0 01-.702-.916c-.125-.246-.152-.398-.124-.41.027-.012.105.111.268.315s.405.488.766.772c.355.285.828.563 1.398.754a6.117 6.117 0 001.936.296c.703.004 1.375-.089 1.979-.205a18.81 18.81 0 001.597-.4c.451-.134.813-.252 1.066-.327.254-.076.399-.109.411-.081z"/><path d="M41.373 38.313c.014.028-.107.115-.346.242-.236.125-.586.29-1.032.465-.446.172-.989.355-1.61.5a8.914 8.914 0 01-2.066.252 5.944 5.944 0 01-2.072-.355 4.388 4.388 0 01-1.469-.902 3.44 3.44 0 01-.702-.916c-.125-.246-.152-.398-.124-.41.027-.012.105.111.268.315s.405.488.766.772c.355.285.828.563 1.398.754a6.117 6.117 0 001.936.296c.703.004 1.375-.089 1.979-.205a18.81 18.81 0 001.597-.4c.451-.134.813-.252 1.066-.327.254-.076.399-.109.411-.081z"/><path fill="#B3B2B3" d="M39.996 39.021c-.446.172-.989.354-1.609.5a8.946 8.946 0 01-2.068.252 6.947 6.947 0 01-.479-.021c.059.218.152.637.287.93.186.394.447.771.799.873.807.233 2.875.193 3.146-2.433a3.19 3.19 0 00.008-.136l-.084.035z"/><path fill="#FFF" d="M39.996 39.021c-.446.172-.989.354-1.609.5a8.946 8.946 0 01-2.068.252c-.139 0-.276-.008-.412-.018.056.217.128.477.221.678.186.396.447.771.799.873.221.063.535.105.881.082.049-.003.098-.006.148-.012.871-.109 1.881-.669 2.1-2.38-.021.007-.038.015-.06.025z"/><path fill="#B3B2B3" d="M38.087 39.938c-.026.927-.211 1.308-.39 1.455.035 0 .072-.002.109-.004.047-.004.096-.007.147-.013.104-.017.214-.036.323-.063-.028-.353-.178-1.695-.189-1.375z"/></g></svg>