<svg xmlns="http://www.w3.org/2000/svg" width="212.432" height="223.115"><path opacity=".08" d="M152.594 201.432c.031-.145.05-.289.05-.434 0-5.303-21.177-9.602-47.301-9.602s-47.301 4.299-47.301 9.602c0 3.479 9.119 6.525 22.771 8.211-1.26.908-1.936 1.863-1.936 2.848 0 6.107 25.824 11.059 57.679 11.059s57.679-4.951 57.679-11.059c-.001-5.041-17.589-9.293-41.641-10.625z"/><g fill="#7F7D7D"><path d="M123.358 195.521c-3.113-4.363-8.719-17.629.749-23.037 2.176 1.943 3.615 7.57 6.385 8.889 5.156 2.459 6.619-4.58 13.97-3.01-3.707 2.174-1.152 25.514-1.152 25.514-12.123-2.344-25.558-2.834-25.558-2.834-.008-4.365 5.606-5.522 5.606-5.522z"/><path d="M131.657 208.15c8.068-.041 11.521-1.133 11.652-4.273.123-3.145-6.312-3.807-14.359-4.135-8.056-.324-11.066-1.84-11.198 1.301-.132 3.143 5.145 7.15 13.905 7.107z"/></g><path fill="#F6EDD1" d="M0 20.229L65.247 5.875l56.697 4.053L181.485 0l3.579 70.074 17.853 58.746-56.854 12.252-65.05-6.814-58.694 15.215-4.162-69.123z"/><path fill="#90CFDC" d="M7.186 44.021l63.742 9.352 30.53 17.383L135.49 86.15l56.107 5.004 1.576 5.604-56.559-4.766-47.208-20.965-17.714-12.269-62.854-9.266z"/><path fill="#E5C273" d="M76.161 17.008l3.607 29.109 27.294 16.436 24.464 2.982 16.343-1.947-6.537-45.93-17.676 3.822zM13.337 17.295l16.527 60.226 4.571 68.811 5.891-1.527-4.753-68.664-17.118-59.973z"/><path fill="#E5C273" d="M37.376 129.229l41.714-10.528 64.173 7.83 55.796-10.406 1.203 3.861-56.198 10.707-64.376-7.152-42.312 10.721z"/><path opacity=".02" d="M18.157 80.35l54.56-13.186 60.576 7.572 51.731-5.449 17.893 59.533-56.854 12.252-65.05-6.814-58.694 15.215z"/><path opacity=".02" d="M81.013 134.258l-8.296-67.094-7.47-61.289 56.697 4.053 11.349 64.808 12.77 66.336z"/><path fill="#7F7D7D" d="M121.313 151.23c10.934.531 8.011-1.729 13.875-4.596.033-.018 9.901 2.051 9.901-5.912-1.45-.145-3.344-1.367-3.793-2.873-.809-2.705.164-3.541-1.537-4.18-1.025-.393-3.977 4.156-3.977 4.156s-3.12 1.766-12.576-3.117c-10.359-5.349-14.99 15.886-1.893 16.522z"/><g><path fill="#A2A1A2" d="M130.741 133.693s-1.895 6.689 5.992 13.586c11.953 10.398 10.152 23.492 8.285 29.768-4.197 14.104-39.755 30.902-53.256-4.691-12.924-34.074 23.541-58.414 23.541-58.414l15.438 19.751z"/><path fill="#D6C3C8" d="M112.379 116.125l5.349 6.928s-3.551 3.281-14.293 18.645c-18.896 27.027.623 47.723.623 47.723-4.808-3.303-9.137-8.75-12.295-17.064-10.648-28.087 12.236-49.55 20.616-56.232z"/><path fill="#D0ABB2" d="M113.228 117.223s1.451 2.744-4.369 13.189-14.002 15.041-15.89 30.096c-1.888 15.057 8.101 24.887 8.101 24.887s-9.188-18.957-2.095-31.105c4.229-7.246 8.564-13.875 11.99-18.707 7.013-9.889 6.763-15.609 6.175-17.164l-3.912-1.196z"/></g><g><path fill="#222221" d="M51.013 101.512c.294.252 3.158-4.094 8.788-6.494 5.572-2.451 10.706-2.299 10.685-2.658.098-.332-5.262-1.096-11.198 1.5-2.937 1.281-5.201 3.197-6.54 4.781-1.341 1.603-1.862 2.791-1.735 2.871z"/><path fill="#222221" d="M51.44 92.285c.131.316 4.121-1.188 9.299-1.027 5.166.072 9.271 1.242 9.371.908.146-.32-3.94-2.09-9.354-2.174-5.456-.166-9.52 1.988-9.316 2.293z"/><path fill="#D0ABB2" d="M118.9 25.869c.053 8.486 6.959 15.316 15.446 15.273 8.483-.047 15.323-6.965 15.271-15.449-.04-8.482-6.964-15.32-15.449-15.271-8.48.047-15.314 6.963-15.268 15.447z"/><path fill="#D6C3C8" d="M118.272 27.518c.043 8.293 6.808 14.979 15.108 14.93 8.292-.049 14.978-6.811 14.932-15.104-.05-8.301-6.813-14.982-15.108-14.93-8.295.043-14.98 6.807-14.932 15.104z"/><path fill="#A2A1A2" d="M109.255 26.609c.08 13.432 11.028 24.256 24.462 24.182 13.44-.078 24.271-11.025 24.193-24.463-.084-13.432-11.026-24.266-24.462-24.184-13.437.077-24.265 11.028-24.193 24.465z"/><path fill="#B2B1B2" d="M50.851 73.107l4.271-4.738s2.017.283 5.619 1.439c3.967 1.275 9.367 4.496 13.58 4.717a52.606 52.606 0 013.267-12.984c10.631-27.223 41.327-40.678 68.555-30.039 27.223 10.633 40.676 41.332 30.041 68.555-10.635 27.225-40.313 41.246-68.111 32.213-35.103-11.395-57.222-59.163-57.222-59.163z"/><path fill="#A2A1A2" d="M104.778 130.928c27.799 9.037 57.479-4.988 68.11-32.213 10.322-26.418-2.046-56.109-27.669-67.561.307.113.613.227.922.348 27.223 10.633 40.676 41.332 30.041 68.555-10.635 27.225-40.313 41.246-68.111 32.213a69.71 69.71 0 01-6.291-2.395c.99.373 1.991.727 2.998 1.053z"/><path fill="#494646" d="M45.997 66.24c-2.577 4.135-.578 10.031 4.467 13.168 5.036 3.139 11.209 2.326 13.781-1.801 2.579-4.143.574-10.037-4.459-13.17-5.039-3.14-11.208-2.341-13.789 1.803z"/><path fill="#222221" d="M61.408 79.361c2.582-4.145.574-10.039-4.461-13.172-3.228-2.012-6.915-2.404-9.832-1.336 2.979-2.895 8.258-3.164 12.671-.416 5.033 3.133 7.038 9.027 4.459 13.17-.922 1.482-2.314 2.535-3.949 3.131.42-.408.795-.865 1.112-1.377z"/><g><path fill="#222221" d="M92.603 70.691c-1.113 2.537-.756 5.146.796 5.824 1.551.678 3.712-.826 4.819-3.363 1.118-2.539.762-5.146-.792-5.824-1.548-.682-3.712.822-4.823 3.363z"/></g><g><path fill="#222221" d="M118.109 125.717c.212-.049-.146-1.844-1.626-4.445-1.459-2.596-4.053-5.908-7.41-9.121-6.72-6.445-13.429-10.313-13.672-9.965-.292.355 5.861 4.734 12.422 11.029 3.28 3.139 5.926 6.225 7.596 8.592 1.687 2.359 2.438 3.98 2.69 3.91zM133.054 110.527c.266-.275-7.125-5.516-17.919-8.693-10.778-3.295-20.071-2.549-19.937-2.025.018.352 8.975.328 19.451 3.533 10.486 3.078 18.128 7.619 18.405 7.185z"/></g><g><path fill="#B2B1B2" d="M151.192 51.426c-6.367 16.305 1.681 34.697 17.986 41.064 16.313 6.375 34.702-1.689 41.07-17.998 6.373-16.309-1.685-34.695-17.994-41.061-16.307-6.37-34.691 1.686-41.062 17.995z"/><path fill="#D0ABB2" d="M163.227 55.174c-4.024 10.295 1.062 21.904 11.365 25.924 10.292 4.027 21.901-1.063 25.926-11.363 4.019-10.289-1.069-21.898-11.364-25.918-10.301-4.026-21.909 1.062-25.927 11.357z"/><path fill="#D6C3C8" d="M161.412 56.473c-3.937 10.078 1.041 21.422 11.106 25.354 10.064 3.934 21.416-1.035 25.354-11.111 3.932-10.068-1.046-21.412-11.114-25.348-10.064-3.93-21.414 1.036-25.346 11.105z"/></g></g><g fill="#A2A1A2"><path d="M101.961 197.941c-3.114-4.363-8.719-17.629.749-23.037 2.176 1.943 3.615 7.57 6.385 8.889 5.156 2.459 6.619-4.58 13.97-3.01-3.707 2.174-1.152 25.514-1.152 25.514-12.123-2.344-29.179.959-29.179.959-.008-4.365 9.227-9.315 9.227-9.315z"/><path d="M105.906 212.072c8.063.322 15.875-2.635 16.006-5.775.122-3.145-6.312-3.807-14.36-4.135-8.055-.324-14.687 1.953-14.818 5.094-.131 3.142 5.12 4.484 13.172 4.816z"/></g><path fill="#A2A1A2" d="M121.163 139.008c1.135 3.973-4.057 14.127-17.153 14.764-10.934.533-19.309-6.574-25.173-9.441-.033-.016-9.069.988-10.348-6.889 2.963-.893 3.517-.545 4.388-3.227.873-2.686-.165-3.543 1.537-4.182 1.025-.391 3.977 4.156 3.977 4.156s8.321 3.85 26.851 1.793c11.588-1.285 15.248.663 15.921 3.026z"/><path fill="#7F7D7D" d="M143.636 168.117c6.707-.418 14.475 1.018 21.293 7.225 14.301 13.02 30.35.785 26.854-9.18 0 0 3.381 6.979-2.077 12.715-4.991 5.232-14.77 8.334-29.434-2.559-5.647-4.193-13.467-3.842-19.554-2.32-2.447.439-3.169-2.115-1.892-3.727 1.465-1.845 3.443-1.886 4.81-2.154z"/></svg>