<svg xmlns="http://www.w3.org/2000/svg" width="167.925" height="172.992"><path fill="#7F7D7D" d="M92.219 164.486c-5.684-2.804-12.968-4.382-21.158-1.461-17.186 6.129-26.698-10.361-20.03-17.761 0 0-5.483 4.842-2.82 11.82 2.44 6.369 9.822 12.629 26.548 8.485 6.438-1.593 14.022 1.557 18.766 5.097-.276-2.018-1.303-4.087-1.306-6.18z"/><path fill="#A3A2A3" d="M142.122 158.629c-2.389-22.375-30.616-34.877-30.616-34.877l-12.886 1.661s-12.36 29.579-4.921 47.579h45.536c2.307-4 3.48-8.795 2.887-14.363z"/><path fill="#D7C4C9" d="M121.598 131.711c-18.799-16.295-22.947 22.567-20.263 33.412.792 3.222 2.212 5.869 4.035 7.869h29.688c8.053-9 1.212-28.56-13.46-41.281z"/><path fill="#D1ACB3" d="M104.468 169.891c-2.684-10.847 1.464-49.667 20.262-33.374a56.651 56.651 0 018.785 9.593c-2.897-5.144-6.96-10.178-11.917-14.478-18.799-16.296-22.947 22.527-20.263 33.372.813 3.296 1.777 5.663 4.035 7.977-.41-.96-.631-1.989-.902-3.09z"/><path fill="#A3A2A3" d="M66.894 44.94C68.16 61.401 55.84 75.786 39.378 77.047c-16.471 1.27-30.849-11.06-32.113-27.525C5.996 33.058 18.32 18.681 34.787 17.414c16.466-1.263 30.841 11.06 32.107 27.526z"/><path fill="#D1ACB3" d="M55.004 45.009c.802 10.398-6.979 19.478-17.378 20.275-10.396.801-19.472-6.977-20.272-17.38-.797-10.39 6.984-19.467 17.377-20.265 10.401-.8 19.477 6.979 20.273 17.37z"/><path fill="#D7C4C9" d="M56.288 46.687c.779 10.17-6.83 19.041-16.991 19.822-10.167.783-19.041-6.819-19.824-16.992-.783-10.167 6.826-19.037 16.994-19.819 10.161-.781 19.039 6.819 19.821 16.989z"/><path fill="#A3A2A3" d="M146.618 35.933c-4.541 14.611-20.061 22.768-34.669 18.229-14.614-4.54-22.782-20.06-18.239-34.674 4.549-14.605 20.063-22.776 34.672-18.23 14.613 4.542 22.773 20.063 18.236 34.675z"/><path fill="#D1ACB3" d="M136.358 31.931c-2.874 9.227-12.666 14.377-21.896 11.512-9.224-2.868-14.384-12.67-11.509-21.898 2.858-9.223 12.67-14.377 21.893-11.508 9.228 2.867 14.376 12.665 11.512 21.894z"/><path fill="#D7C4C9" d="M136.494 33.935c-2.799 9.021-12.385 14.058-21.409 11.25-9.018-2.803-14.06-12.387-11.257-21.407 2.81-9.021 12.395-14.059 21.411-11.248 9.022 2.795 14.061 12.384 11.255 21.405z"/><path fill="#B3B2B3" d="M162.614 101.558l-.311-3.709s-6.433-6.417-10.459-6.514c-3.641-.087-7.629-.826-11.125-1.693a49.79 49.79 0 00.619-12.616c-2.111-27.485-26.111-48.063-53.604-45.946-27.484 2.113-48.063 26.118-45.946 53.603 2.112 27.493 25.039 48.304 52.605 47.791 34.807-.637 68.221-30.916 68.221-30.916z"/><path fill="#A3A2A3" d="M97.733 132.167c-27.566.515-50.493-20.299-52.607-47.787-2.054-26.678 17.268-50.069 43.535-53.358-.307.018-.615.036-.927.058-27.484 2.113-48.063 26.118-45.946 53.603 2.112 27.493 25.039 48.304 52.605 47.791a65.028 65.028 0 006.334-.436c-.996.064-1.995.111-2.994.129z"/><path fill="#494646" d="M166.28 95.851c.354 4.581-3.887 8.641-9.477 9.068-5.58.43-10.391-2.939-10.746-7.515-.35-4.591 3.896-8.646 9.473-9.073 5.582-.433 10.395 2.923 10.75 7.52z"/><path fill="#222221" d="M147.669 100.111c-.355-4.593 3.894-8.651 9.471-9.077 3.576-.279 6.835 1.004 8.809 3.164-1.232-3.721-5.528-6.246-10.418-5.867-5.577.427-9.822 4.482-9.473 9.073.127 1.644.834 3.134 1.94 4.343a6.944 6.944 0 01-.329-1.636zM160.919 85.181c-.065.377-4.988-1.135-10.791.584-5.793 1.64-9.613 4.986-9.822 4.7-.285-.192 3.321-4.147 9.484-5.907 3.043-.876 5.979-.834 7.998-.477 2.032.379 3.176.955 3.131 1.1z"/><path fill="#222221" d="M154.781 78.411c.099.327-3.892 1.695-7.737 5.077-3.895 3.308-6.288 6.784-6.578 6.594-.308-.154 1.691-4.077 5.766-7.548 4.056-3.56 8.514-4.481 8.549-4.123zM104.858 92.182c1.023 2.405.657 4.863-.811 5.485-1.469.627-3.486-.814-4.51-3.222-1.025-2.403-.662-4.86.807-5.484 1.468-.626 3.491.816 4.514 3.221zM131.188 83.357c.798 2.491.217 4.901-1.305 5.392-1.518.491-3.402-1.131-4.203-3.614-.803-2.491-.222-4.903 1.299-5.393 1.519-.491 3.405 1.126 4.209 3.615zM58.902 128.831c-.187-.075.45-1.684 2.267-3.848 1.794-2.158 4.766-4.793 8.428-7.197 7.333-4.838 14.212-7.284 14.38-6.922.21.379-6.242 3.396-13.401 8.119-3.578 2.352-6.558 4.767-8.512 6.68-1.966 1.9-2.938 3.28-3.162 3.168zM47.394 113.551c-.2-.298 7.549-3.903 18.105-5.015 10.562-1.227 19.056 1.051 18.84 1.51-.075.322-8.384-1.221-18.647-.029-10.251 1.07-18.115 3.982-18.298 3.534z"/><g><path fill="#A43F69" d="M104.367 112.007s2.651 13.337 16.332 11.709c8.16-.97 8.557-9.4 8.557-9.4s-6.991 3.037-13.379 2.862c-8.798-.242-11.51-5.171-11.51-5.171z"/><path fill="#D7A0AD" d="M121.122 123.864c2.34-.334 3.99-1.521 5.177-2.678-1.321-.756-5.962-2.945-19.447-3.19 2.288 3.483 6.544 6.985 14.27 5.868z"/><path fill="#A3A2A3" d="M103.45 111.292s1.58 7.174 7.245 10.975c5.664 3.799 12.701 1.722 15.065-.358 2.363-2.081 3.529-5.23 3.965-7.739l-.711.266s-.549 5.596-4.7 7.773c-4.152 2.182-9.581 1.75-12.956-.72-3.375-2.474-5.244-5.424-6.75-9.099l-1.158-1.098z"/><path d="M131.374 113.441c.036.083-.33.343-1.039.725-.711.373-1.762.872-3.102 1.397a36.587 36.587 0 01-4.836 1.507c-1.861.433-3.967.757-6.206.751-2.235-.005-4.384-.373-6.22-1.064-1.84-.689-3.338-1.695-4.411-2.71-1.076-1.018-1.743-2.029-2.11-2.755-.371-.734-.453-1.193-.368-1.225.085-.035.32.334.806.941a13.92 13.92 0 002.296 2.324 13.86 13.86 0 004.202 2.266c1.711.575 3.702.881 5.812.885 2.108.008 4.126-.265 5.942-.615 1.814-.356 3.436-.803 4.789-1.202s2.443-.755 3.207-.982c.762-.23 1.2-.33 1.238-.243z"/><path d="M131.374 113.441c.036.083-.33.343-1.039.725-.711.373-1.762.872-3.102 1.397a36.587 36.587 0 01-4.836 1.507c-1.861.433-3.967.757-6.206.751-2.235-.005-4.384-.373-6.22-1.064-1.84-.689-3.338-1.695-4.411-2.71-1.076-1.018-1.743-2.029-2.11-2.755-.371-.734-.453-1.193-.368-1.225.085-.035.32.334.806.941a13.92 13.92 0 002.296 2.324 13.86 13.86 0 004.202 2.266c1.711.575 3.702.881 5.812.885 2.108.008 4.126-.265 5.942-.615 1.814-.356 3.436-.803 4.789-1.202s2.443-.755 3.207-.982c.762-.23 1.2-.33 1.238-.243z"/><path fill="#C7C7C7" d="M127.233 115.563a36.587 36.587 0 01-4.836 1.507c-1.861.433-3.967.757-6.206.751a19.5 19.5 0 01-1.433-.057c.171.652.454 1.91.86 2.785.554 1.184 1.339 2.315 2.397 2.62 2.421.702 8.633.583 9.441-7.302a8.91 8.91 0 00.026-.406 3.701 3.701 0 01-.249.102z"/><path fill="#FFF" d="M127.233 115.563a36.587 36.587 0 01-4.836 1.507c-1.861.433-3.967.757-6.206.751-.417 0-.829-.019-1.241-.044.169.642.39 1.427.669 2.03.554 1.186 1.339 2.313 2.397 2.617.661.191 1.605.321 2.646.25.144-.012.291-.02.442-.045 2.615-.322 5.651-2.004 6.312-7.142-.061.025-.12.051-.183.076z"/><path fill="#C7C7C7" d="M121.507 118.321c-.078 2.777-.639 3.92-1.17 4.366.106-.001.19.255.302.247.144-.01.333.02.483 0 .318-.037.627-.402.953-.487-.086-1.057-.538-5.094-.568-4.126z"/></g><path fill="#80BBCE" d="M167.301 165.936a2.73 2.73 0 00-1.188-2.302c-2.279-1.581-6.038.238-10.387 2.371-2.066 1.014-5.489 2.673-6.501 2.497-.269-.965 1.18-2.558 2.352-3.841 1.446-1.584 2.813-3.082 2.677-4.808-.045-.584-.295-1.437-1.226-2.181-2.454-1.961-6.351 1.095-12.512 6.244-2.277 1.903-5.575 4.66-7.117 5.323.346-.91 1.557-2.55 2.333-3.602 2.146-2.903 4.577-6.194 2.575-8.626-2.315-2.814-7.288.925-13.044 5.256-.763.573-1.636 1.23-2.46 1.827.779-1.096 1.679-2.275 2.362-3.174 3.57-4.686 4.984-6.649 4.129-8.21-.179-.326-.74-1.071-2.001-.969-1.776.146-4.129 1.596-6.619 3.131-1.205.742-3.058 1.884-4.136 2.309.559-1.594 3.225-4.521 4.747-6.193 2.705-2.97 3.997-4.462 3.809-5.917a1.761 1.761 0 00-.974-1.373c-1.429-.712-3.52.168-12.442 5.245-2.232 1.271-4.54 2.584-5.354 2.89-.525.202-2.399-2.075-3.618-5.141l-2.789 1.106c.781 1.969 3.635 8.276 7.463 6.843.986-.371 2.84-1.416 5.782-3.091 1.904-1.083 4.828-2.746 7.067-3.868-.393.442-.798.886-1.161 1.286-2.91 3.195-5.919 6.499-5.608 9.17.145 1.23.879 1.76 1.305 1.966 1.678.813 3.827-.424 7.484-2.678 1.003-.618 2.137-1.316 3.138-1.848-.78 1.126-1.808 2.475-2.606 3.523-3.861 5.068-5.248 7.135-4.481 8.745.237.497.683.857 1.221.989 1.396.346 2.985-.739 7.548-4.172 2.443-1.839 7.441-5.6 8.984-5.622.211.829-1.831 3.594-2.731 4.813-2.136 2.891-4.344 5.879-2.106 7.919 2.189 1.996 5.784-1.051 11.227-5.603 2.582-2.158 7.34-6.181 8.772-6.181h.021c.015 0 .023.066.028.068-.041.492-1.202 1.786-1.9 2.551-1.782 1.952-4.002 4.394-2.875 7.11a2.726 2.726 0 001.582 1.546c2.085.791 5.278-.777 8.979-2.591 2.02-.989 6.123-2.915 7.228-2.597-.315 1.192-3.385 3.912-7.153 6.912h4.918c2.701-1.996 5.24-4.99 5.258-7.052z"/><path fill="#91D0DD" d="M28.39 118.083c38.081 41.906 66.643 45.133 79.097 25.854 9.532-14.754-2.112-31.355-12.709-35.484-10.595-4.127-22.341 3.456-22.341 3.456s-14.611 3.54-25.254-8.794c-10.643-12.335-9.932-27.4-9.932-27.4C47.53 65.67 48.364 45.213 35.937 35.934c-12.426-9.281-21.859-5.042-29.815 2.858-6.098 6.057-18.808 34.091 22.268 79.291z"/><path fill="#80BBCE" d="M28.39 118.083c38.081 41.906 66.643 45.133 79.097 25.854 8.55-13.232.063-27.945-9.423-33.818 1.292.75 18.885 16.396-3.121 31.595-16.473 11.379-39.883-.216-70.918-34.757C10.189 91.559-1.314 69.952.604 49.563c-3.418 13.079-1.323 36.49 27.786 68.52z"/><path fill="#A3A2A3" d="M81.649 154.844c-2.772 1.97-10.172 5.701-15.783 3.122-4.936-2.268-8.33-10.489-8.195-14.269 0 0-1.965-3.209-1.611-4.2.509-1.414 2.914.986 2.914.986s-.502-3.867.332-4.343c1.37-.8 2.58 4.093 2.58 4.093s-.036-4.802 1.308-4.577c2.025.342.837 4.494 2.649 6.248 1.814 1.754 2.911 1.257 2.756 2.875-.089.977-3.418.812-3.418.812s6.974 7.647 16.468 9.253z"/><g><path fill="#A3A2A3" d="M94.984 137.808c.325.904 4.214 1.09 4.214 1.09s-2.787 1.951-1.48 2.701c.913.516 4.422-.848 4.422-.848 3.179.686 20.85.028 27.755-.413 6.905-.44-2.806-18.573-12.562-12.224-9.754 6.351-12.005 5.583-12.005 5.583s.74-3.245-.195-3.517c-1.566-.428-1.269.729-3.321 2.211-2.041 1.48-5.912-.418-6.611 1.5-.468 1.291 4.271 2.1 4.271 2.1s-5.03.329-4.488 1.817z"/></g></svg>