<svg xmlns="http://www.w3.org/2000/svg" width="162.932" height="44"><circle fill="#A3A2A3" cx="10.179" cy="15.685" r="9.931"/><circle fill="#D1ACB3" cx="9.881" cy="15.429" r="6.27"/><circle fill="#D7C4C9" cx="10.446" cy="15.975" r="6.131"/><path fill="#A3A2A3" d="M46.561 11.935a9.198 9.198 0 01-11.514 6.054c-4.855-1.508-7.567-6.662-6.06-11.515C30.5 1.624 35.651-1.09 40.503.418c4.854 1.508 7.564 6.663 6.058 11.517z"/><path fill="#D1ACB3" d="M43.153 10.605a5.809 5.809 0 01-7.273 3.822 5.81 5.81 0 117.273-3.822z"/><circle fill="#D7C4C9" cx="37.773" cy="9.584" r="5.681"/><path fill="#B3B2B3" d="M51.874 33.729l-.138-1.638s-1.881-1.771-3.066-1.754c-1.307.021-2.785-.247-4.069-.563.241-1.353.318-2.756.206-4.191-.701-9.128-8.672-15.961-17.802-15.259-9.128.702-15.963 8.673-15.261 17.804s8.315 16.041 17.473 15.871c11.559-.212 22.657-10.27 22.657-10.27z"/><path fill="#A3A2A3" d="M30.326 43.895c-9.157.17-16.772-6.739-17.474-15.871-.683-8.858 5.734-16.627 14.458-17.722-.102.006-.205.012-.307.021-9.128.702-15.963 8.673-15.261 17.804s8.315 16.041 17.473 15.871a21.736 21.736 0 002.103-.144c-.33.02-.662.037-.992.041z"/><path fill="#494646" d="M53.09 31.833c.119 1.522-1.291 2.872-3.148 3.011-1.853.145-3.449-.975-3.566-2.494-.118-1.523 1.293-2.873 3.146-3.015 1.853-.142 3.451.974 3.568 2.498z"/><path fill="#222221" d="M46.91 33.248c-.119-1.525 1.293-2.873 3.145-3.014 1.188-.092 2.271.334 2.926 1.051-.409-1.234-1.836-2.074-3.459-1.949-1.853.143-3.264 1.49-3.146 3.016.041.545.274 1.039.645 1.441a2.111 2.111 0 01-.111-.545zM51.31 28.29c-.021.124-1.655-.375-3.584.194-1.923.546-3.191 1.658-3.261 1.562-.096-.062 1.103-1.377 3.148-1.962a6.125 6.125 0 012.656-.159c.676.127 1.056.317 1.041.365z"/><path fill="#222221" d="M49.271 26.041c.033.109-1.293.564-2.57 1.688-1.293 1.099-2.088 2.254-2.184 2.189-.103-.05.561-1.354 1.913-2.508 1.35-1.183 2.831-1.487 2.841-1.369z"/><ellipse transform="rotate(-113.029 31.808 30.991)" fill="#222221" cx="31.808" cy="30.991" rx="1.572" ry=".961"/><ellipse transform="rotate(-107.824 40.52 27.978)" fill="#222221" cx="40.52" cy="27.979" rx="1.569" ry=".961"/><path fill="#222221" d="M17.427 42.788c-.062-.024.15-.56.752-1.277.597-.717 1.583-1.59 2.801-2.391 2.435-1.604 4.721-2.42 4.776-2.298.069.126-2.074 1.127-4.452 2.695-1.188.782-2.178 1.584-2.826 2.219-.652.632-.976 1.089-1.051 1.052zM13.605 37.712c-.066-.099 2.507-1.296 6.015-1.665 3.507-.406 6.327.348 6.256.501-.024.108-2.784-.405-6.192-.01-3.407.357-6.018 1.321-6.079 1.174z"/><g><path d="M41.503 38.205c.014.027-.107.115-.344.24s-.585.289-1.03.465c-.445.172-.986.354-1.605.499s-1.317.253-2.061.251a5.937 5.937 0 01-2.066-.355 4.411 4.411 0 01-1.464-.899 3.45 3.45 0 01-.701-.914c-.125-.244-.151-.397-.123-.408.028-.013.105.11.268.313a4.508 4.508 0 002.159 1.522 6.107 6.107 0 001.93.296c.7.004 1.371-.088 1.973-.204.604-.12 1.142-.267 1.592-.399.448-.133.811-.25 1.063-.326.252-.076.397-.11.409-.081z"/><path d="M41.503 38.205c.014.027-.107.115-.344.24s-.585.289-1.03.465c-.445.172-.986.354-1.605.499s-1.317.253-2.061.251a5.937 5.937 0 01-2.066-.355 4.411 4.411 0 01-1.464-.899 3.45 3.45 0 01-.701-.914c-.125-.244-.151-.397-.123-.408.028-.013.105.11.268.313a4.508 4.508 0 002.159 1.522 6.107 6.107 0 001.93.296c.7.004 1.371-.088 1.973-.204.604-.12 1.142-.267 1.592-.399.448-.133.811-.25 1.063-.326.252-.076.397-.11.409-.081z"/><path fill="#B3B2B3" d="M40.129 38.91c-.445.172-.986.354-1.605.499s-1.317.253-2.061.251a6.37 6.37 0 01-.479-.021c.059.219.152.635.286.926.185.394.445.771.796.873.805.231 2.867.191 3.138-2.427a2.99 2.99 0 00.008-.136c-.027.014-.053.021-.083.035z"/><path fill="#FFF" d="M40.129 38.91c-.445.172-.986.354-1.605.499s-1.317.253-2.061.251c-.14 0-.277-.008-.412-.018.056.215.128.476.221.676.185.395.445.769.796.869.222.063.534.106.879.084.049-.004.098-.006.148-.013.868-.11 1.876-.667 2.094-2.374l-.06.026z"/><path fill="#B3B2B3" d="M38.227 39.825c-.025.923-.21 1.303-.388 1.45.036 0 .073-.002.107-.004.049-.004.098-.006.148-.013a3.65 3.65 0 00.322-.063c-.029-.351-.179-1.69-.189-1.37z"/></g><g fill="#A43F69"><path d="M76.414 25.314a1.746 1.746 0 01-.604.314 2.8 2.8 0 01-.854.117c-.433 0-.789-.055-1.071-.162s-.465-.294-.549-.559c-.336-1.056-.612-1.91-.828-2.564a22.857 22.857 0 01-.504-1.719h-.09a98.1 98.1 0 00-.081 1.935c-.019.582-.03 1.149-.036 1.701s-.019 1.11-.036 1.674a91.25 91.25 0 01-.081 1.872c-.156.061-.36.11-.612.153a4.591 4.591 0 01-.756.063c-.527 0-.938-.084-1.232-.252-.294-.169-.441-.475-.441-.919l.522-9.18c.096-.156.306-.324.63-.504.323-.18.779-.27 1.368-.27.636 0 1.134.099 1.493.297.36.198.624.52.792.963.108.288.226.618.352.99s.252.756.378 1.152.249.79.369 1.179l.324 1.053h.09c.288-1.008.575-1.982.863-2.925a40.68 40.68 0 01.792-2.367c.181-.096.411-.177.693-.243s.597-.099.945-.099c.588 0 1.067.087 1.439.261.372.174.588.423.648.747.048.24.099.609.153 1.107a170.734 170.734 0 01.351 3.663l.171 2.007c.054.643.099 1.23.135 1.764.036.535.061.945.072 1.233-.204.12-.417.207-.639.261a3.66 3.66 0 01-.855.082c-.456 0-.84-.078-1.151-.234-.313-.156-.48-.463-.505-.918a99.022 99.022 0 01-.135-3.528 80.564 80.564 0 00-.081-2.628h-.09c-.12.468-.294 1.056-.521 1.764-.228.71-.504 1.615-.828 2.719zM84.082 25.766a36.685 36.685 0 01-.423-1.009c-.15-.372-.307-.798-.469-1.278-.162-.479-.33-1.028-.504-1.646s-.356-1.329-.549-2.133c.168-.168.393-.315.675-.441s.591-.189.928-.189c.42 0 .768.087 1.044.261.275.174.479.501.611.981l1.422 4.95h.072c.145-.407.285-.852.423-1.331a53.997 53.997 0 00.774-3.016c.114-.51.213-1.011.297-1.503a3 3 0 011.422-.342c.42 0 .769.09 1.044.27.276.18.414.492.414.936 0 .324-.042.699-.126 1.125-.084.426-.195.879-.333 1.359s-.3.976-.486 1.485c-.186.51-.381 1.011-.585 1.503s-.414.957-.63 1.396c-.216.438-.426.83-.63 1.178-.336.588-.647 1.068-.936 1.44s-.564.663-.828.873a2.406 2.406 0 01-.792.433c-.265.078-.54.117-.828.117-.504 0-.912-.15-1.224-.451-.313-.299-.498-.689-.559-1.17.384-.299.769-.633 1.152-.998.384-.366.731-.741 1.044-1.125-.204-.061-.423-.201-.657-.424-.232-.223-.487-.641-.763-1.251zM100.012 25.387c0 .912-.342 1.627-1.026 2.143-.684.516-1.691.773-3.023.773-.504 0-.972-.035-1.404-.107a4 4 0 01-1.106-.334c-.307-.149-.547-.338-.721-.566s-.261-.498-.261-.811c0-.287.06-.53.18-.729a1.84 1.84 0 01.433-.495 7.2 7.2 0 001.196.513c.45.15.97.226 1.558.226.372 0 .657-.054.854-.162.198-.108.297-.252.297-.432 0-.169-.071-.3-.216-.396-.144-.096-.384-.174-.72-.233l-.54-.108c-1.044-.204-1.821-.524-2.331-.963s-.765-1.065-.765-1.881c0-.444.096-.846.288-1.206.191-.36.462-.66.81-.9a4.06 4.06 0 011.251-.558 6.139 6.139 0 011.611-.198c.443 0 .86.033 1.251.099.39.066.729.165 1.017.297.288.132.517.303.685.513s.252.459.252.747c0 .276-.052.513-.153.711a1.612 1.612 0 01-.387.495 2.221 2.221 0 00-.433-.189 6.506 6.506 0 00-.63-.18 8.9 8.9 0 00-.692-.135 4.236 4.236 0 00-.64-.054c-.396 0-.702.045-.918.135-.216.09-.324.231-.324.423 0 .132.061.24.181.324s.348.162.684.234l.559.126c1.151.265 1.971.627 2.457 1.089.483.461.726 1.057.726 1.789zM101.416 16.818c0-.456.152-.839.459-1.152.306-.312.711-.468 1.215-.468s.909.156 1.215.468c.306.313.459.696.459 1.152 0 .457-.153.84-.459 1.152-.306.313-.711.468-1.215.468s-.909-.156-1.215-.468a1.578 1.578 0 01-.459-1.152zm3.204 11.161c-.133.024-.327.058-.585.1a4.884 4.884 0 01-1.494.009c-.21-.036-.388-.108-.531-.216s-.255-.255-.333-.441c-.078-.186-.117-.43-.117-.729v-7.326c.132-.024.327-.057.585-.099s.52-.063.783-.063.501.018.711.054c.21.036.387.108.531.216.144.108.255.255.333.441.078.187.117.429.117.729v7.325zM111.19 28.285c-.708 0-1.364-.1-1.971-.297a4.466 4.466 0 01-1.584-.891 4.135 4.135 0 01-1.062-1.494c-.259-.601-.388-1.303-.388-2.106 0-.792.128-1.473.388-2.043a4.037 4.037 0 011.017-1.404c.42-.366.9-.636 1.439-.81a5.372 5.372 0 011.656-.261 5 5 0 011.737.288c.521.192.972.456 1.35.792s.672.738.882 1.206c.211.468.315.978.315 1.53 0 .408-.114.721-.342.936-.229.217-.546.354-.954.414l-4.446.666c.132.396.402.693.811.892.407.198.876.297 1.403.297.492 0 .957-.063 1.396-.188.438-.127.794-.273 1.071-.441.191.12.354.288.485.504s.198.443.198.684c0 .541-.252.942-.756 1.207a4.007 4.007 0 01-1.296.413c-.479.07-.929.106-1.349.106zm-.504-7.075a1.78 1.78 0 00-.747.144c-.21.096-.381.219-.513.369s-.231.318-.297.504a2.075 2.075 0 00-.117.567l3.078-.504c-.036-.24-.168-.48-.396-.72-.228-.239-.565-.36-1.008-.36zM123.43 27.925a4.999 4.999 0 01-.621.108c-.282.035-.561.054-.837.054s-.519-.021-.729-.063a1.263 1.263 0 01-.531-.225.962.962 0 01-.324-.449c-.072-.192-.108-.444-.108-.757v-8.478c0-.252.069-.447.207-.585.139-.138.327-.249.567-.333a6.671 6.671 0 011.396-.315 12.719 12.719 0 011.574-.099c1.656 0 2.922.354 3.798 1.062.875.708 1.314 1.668 1.314 2.88a4.33 4.33 0 01-.279 1.593 3.297 3.297 0 01-.828 1.224c-.365.342-.827.606-1.386.792-.558.186-1.203.279-1.935.279h-1.278v3.312zm.936-5.779c.504 0 .891-.117 1.16-.351.271-.234.405-.591.405-1.071 0-.456-.141-.807-.423-1.053s-.693-.369-1.233-.369c-.191 0-.351.003-.477.009s-.255.021-.387.045v2.79h.955zM131.872 25.766a33.812 33.812 0 01-.423-1.009c-.15-.372-.307-.798-.469-1.278-.162-.479-.33-1.028-.504-1.646s-.356-1.329-.549-2.133c.168-.168.393-.315.675-.441s.591-.189.927-.189c.421 0 .769.087 1.045.261.275.174.479.501.611.981l1.422 4.95h.072c.145-.407.285-.852.423-1.331a53.997 53.997 0 00.774-3.016c.114-.51.213-1.011.297-1.503a3 3 0 011.422-.342c.419 0 .768.09 1.044.27.276.18.414.492.414.936 0 .324-.042.699-.126 1.125-.084.426-.195.879-.333 1.359s-.3.976-.486 1.485c-.186.51-.381 1.011-.585 1.503s-.414.957-.63 1.396c-.216.438-.426.83-.63 1.178-.336.588-.647 1.068-.936 1.44s-.564.663-.828.873a2.406 2.406 0 01-.792.433c-.265.078-.54.117-.828.117-.504 0-.912-.15-1.225-.451-.313-.299-.498-.689-.558-1.17.384-.299.769-.633 1.152-.998.384-.366.731-.741 1.044-1.125-.204-.061-.423-.201-.657-.424-.233-.224-.488-.641-.763-1.251zM147.801 25.387c0 .912-.342 1.627-1.026 2.143-.684.516-1.691.773-3.023.773-.504 0-.973-.035-1.404-.107s-.801-.184-1.107-.334c-.306-.149-.546-.338-.72-.566s-.261-.498-.261-.811c0-.287.06-.53.18-.729a1.84 1.84 0 01.433-.495 7.2 7.2 0 001.196.513c.45.15.97.226 1.558.226.372 0 .657-.054.854-.162.198-.108.297-.252.297-.432 0-.169-.071-.3-.216-.396-.144-.096-.384-.174-.72-.233l-.54-.108c-1.044-.204-1.821-.524-2.331-.963s-.765-1.065-.765-1.881c0-.444.096-.846.288-1.206a2.5 2.5 0 01.81-.9 4.06 4.06 0 011.251-.558 6.139 6.139 0 011.611-.198c.443 0 .86.033 1.251.099.39.066.729.165 1.017.297.288.132.517.303.685.513s.252.459.252.747c0 .276-.052.513-.153.711a1.612 1.612 0 01-.387.495 2.221 2.221 0 00-.433-.189 6.506 6.506 0 00-.63-.18 8.9 8.9 0 00-.692-.135 4.236 4.236 0 00-.64-.054c-.396 0-.702.045-.918.135-.216.09-.324.231-.324.423 0 .132.061.24.181.324s.348.162.684.234l.558.126c1.152.265 1.972.627 2.457 1.089.485.461.727 1.057.727 1.789zM149.205 16.818c0-.456.152-.839.459-1.152.306-.312.711-.468 1.215-.468s.909.156 1.215.468c.306.313.459.696.459 1.152 0 .457-.153.84-.459 1.152-.306.313-.711.468-1.215.468s-.909-.156-1.215-.468a1.578 1.578 0 01-.459-1.152zm3.204 11.161c-.133.024-.327.058-.585.1a4.884 4.884 0 01-1.494.009 1.206 1.206 0 01-.531-.216 1.025 1.025 0 01-.333-.441c-.078-.186-.117-.429-.117-.729v-7.326c.132-.024.327-.057.585-.099s.52-.063.783-.063.501.018.711.054c.21.036.387.108.531.216.144.108.254.255.333.441.078.187.117.429.117.729v7.325zM158.979 28.285c-.708 0-1.365-.1-1.971-.297a4.466 4.466 0 01-1.584-.891 4.15 4.15 0 01-1.063-1.494c-.258-.601-.387-1.303-.387-2.106 0-.792.129-1.473.387-2.043a4.052 4.052 0 011.018-1.404c.42-.366.899-.636 1.439-.81a5.372 5.372 0 011.656-.261 5 5 0 011.737.288c.521.192.972.456 1.35.792s.672.738.882 1.206c.209.468.315.978.315 1.53 0 .408-.114.721-.342.936-.229.217-.546.354-.954.414l-4.446.666c.132.396.402.693.811.892.407.198.876.297 1.403.297.492 0 .957-.063 1.396-.188.438-.127.794-.273 1.071-.441.191.12.354.288.485.504s.198.443.198.684c0 .541-.252.942-.756 1.207a4.007 4.007 0 01-1.296.413c-.479.07-.929.106-1.349.106zm-.504-7.075c-.288 0-.537.048-.747.144s-.381.219-.513.369-.231.318-.297.504a2.075 2.075 0 00-.117.567l3.078-.504c-.036-.24-.168-.48-.396-.72-.228-.239-.564-.36-1.008-.36z"/></g></svg>