<svg xmlns="http://www.w3.org/2000/svg" width="280.25" height="204.827"><path opacity=".08" d="M.739 124.95l164-10.033 115.25 68.851-232.894 21.059z"/><path fill="#FFF" d="M1.739 123.95l164-10.033 115.25 68.851-232.894 21.059z"/><g fill="#E2CED3"><path d="M49.989 199.268l-16.5-27.5 64.243-5.094 24.147 25.719zM132.989 156.602l36 31.5 101.165-9.098-48.498-29.236zM108.239 135.268l16.563-1.125-18.625-14.812-15.438.875zM109.114 119.018l17.813-1.125 1.562 1.125-18.062 1.063zM111.802 121.143l18.125-1.125 1.437 1.063-18.375 1.187zM114.614 123.393l18.438-1.187 1.5 1.125-18.688 1.125zM117.427 125.643l18.562-1.187 1.5.937-18.625 1.375zM120.364 127.893l18.813-1.25 1.625 1.125-19 1.313zM123.239 130.206l19.063-1.313 1.812 1.313-19.25 1.312zM126.427 132.643l19.312-1.25 1.75 1.25-19.375 1.313zM101.552 135.706l-85.938 5.875-9.812-16.313 78.875-4.75z"/></g><g opacity=".08"><path d="M116.177 181.393l33.005-2.822 2.204 1.986-33.15 2.863zM114.478 179.456l32.651-2.766-2.172-1.955-32.644 2.738zM110.614 175.393l32.188-2.562-2.164-1.95-31.82 2.618zM107.076 171.661l31.715-2.584-2.008-1.809-31.419 2.625zM132.864 163.831l-30.879 2.447 1.692 1.803 31.14-2.491zM127.552 151.956l42.469-3.125 2.093 1.437-42.759 3.25zM175.531 149.936l-2.007-1.393 41.09-3.087 2.27 1.476zM125.811 150.456l42.193-3.118-2.127-1.525-41.95 3.018zM169.364 145.706l2.125 1.375 40.75-3-2.375-1.438zM122.364 147.456l41.563-3.063-2-1.375-41.375 3.063zM160.052 141.643l-1.813-1.312-40.625 2.875 1.375 1.5zM156.427 139.018l-40.469 2.875-1.75-1.437 40.344-2.813zM152.771 136.362l-40.032 2.812-1.5-1.312 39.813-2.719zM161.864 140.143l39.188-2.875-35.875-21.625-35.125 2.125zM129.177 160.393l-53.75 4.188-18.938-23 48-3.25zM71.489 164.893l-39.937 3.063-1-1.813 39.562-3.062zM29.302 164.393l39.437-2.875-1.5-1.75-38.812 3zM27.364 161.081l38.688-2.875-1.25-1.563-38.5 2.75zM25.489 157.768l37.938-2.75-1.313-1.625-37.625 2.875zM23.531 154.643l37.458-2.75-1.25-1.5-37.125 2.709zM21.656 151.518l36.875-2.582-1.125-1.418-36.709 2.584zM19.864 148.602l36.333-2.541-1.125-1.459-36.208 2.459zM54.031 143.311l-1.167-1.5-35.583 2.5.833 1.375zM165.427 142.831l2 1.375 40.125-2.938-2.188-1.375zM234.525 161.333l-4.918-3-50 3.834 4.334 3.25zM225.482 155.854l-4.666-2.918-27.666 2.168 4.75 3zM95.232 171.686l-23.916 1.918 1.583 1.75 23.75-1.834zM98.149 175.02l-16.083 1.334 1.666 1.916 16.25-1.334zM19.295 137.792l-.938-1.313 13.563-.875.937 1.5zM17.857 135.354l23.063-1.5-.75-1.187-23.125 1.5z"/></g><path opacity=".1" d="M170.372 192.77l-83.953-74.001-1.061.065 83.985 74.029z"/><path fill="#E2CED3" d="M126.177 191.956l34.5-3.063-2.742-2.439-34.22 3.043zM131.177 186.518l24.792-1.976-2.341-2.108-24.636 1.932z"/><path opacity=".08" d="M162 134.651c-1.803 0-3.564.043-5.272.127-8.642-3.111-23.158-5.15-39.612-5.15-26.494 0-47.971 5.289-47.971 11.813 0 6.525 21.477 11.814 47.971 11.814 16.454 0 30.971-2.041 39.612-5.15 1.708.08 3.47.125 5.272.125 15.225 0 27.566-3.039 27.566-6.789s-12.341-6.79-27.566-6.79z"/><g><path fill="#A3A2A3" d="M141.158 128.145c-1.824-3.277-6.375-9.463-10.984-6.324.574 1.959-4.572 3.85-4.57 5.998.004 3.996-5 7.516-6.873 10.191 9.779-2.023 23.073 5.898 23.073 5.898 2.161-8.365 8.013-18.797 8.013-18.797-4.722-2.493-8.659 3.034-8.659 3.034z"/><path fill="#7F7D7D" d="M149.477 136.069c-2.219 5.191-5.647 8.699-7.673 7.84-2.022-.869-1.87-5.779.341-10.963 2.216-5.188 5.646-8.693 7.672-7.834 2.024.861 1.869 5.767-.34 10.957zM94.313 119.575c-3.243-3.893-8.053-7.41-14.985-7.934-14.544-1.1-16.145-16.234-8.871-19.477 0 0-5.576 1.76-5.896 7.723-.284 5.445 3.078 12.412 16.643 14.813 5.223.926 9.079 5.395 11.396 9.52a37.126 37.126 0 011.713-4.645z"/><path fill="#A3A2A3" d="M138.686 105.258s.36 23.113-15.138 32.246c-16.995 10.008-34.281-8.244-30.696-21.652 4.953-18.486 40.406-19.443 40.406-19.443l5.428 8.849z"/><path fill="#A3A2A3" d="M126.975 105.127c2.958-.977 7.668 2.391 7.847 12.277.163 9.031-1.917 15.027-3.81 22.477-.006.027 3.256 1.391 3.391 2.266.188 1.256-2.559.439-2.559.439s2.854 2.102 2.43 2.795c-.699 1.137-4.486-1.441-4.486-1.441s3.035 3.184 1.948 3.553c-1.638.559-3.509-2.631-5.558-3.205-2.05-.574-2.688.984-3.223-.277-.326-.76 2.642-3.609 2.642-3.609s.431-6.08-1.692-19.979c-1.327-8.694 1.309-14.714 3.07-15.296z"/><path fill="#D7C4C9" d="M104.397 121.387c-4.594 4.336-4.701 9.707-2.021 14.549 1.943 3.514 5.954 4.551 9.747 5.213 9.525 1.662 19.506-9.361 21.553-22.037 2.51-15.555-23.572-3.129-29.279 2.275z"/><path fill="#D1ACB3" d="M102.617 124.79c5.706-5.406 31.785-17.828 29.277-2.275a32.209 32.209 0 01-2.412 8.006c2.039-3.381 4.676-9.014 5.339-13.115 2.51-15.553-24.718-1.422-30.424 3.982-1.737 1.641-2.79 3.361-3.301 5.076.435-.565.938-1.126 1.521-1.674z"/><path fill="#A3A2A3" d="M84.537 127.633c.78-3.967 3.09-11.871 10.957-9.48.061 2.199-.217 3.865.494 6.066 1.321 4.1 1.666 6.643 4.611 11.484-3.111-.906-11.494 8.307-11.494 8.307-4.992-7.859-14.453-16.613-14.453-16.613 4.013-4.123 9.885.236 9.885.236z"/><path fill="#7F7D7D" d="M78.639 138.518c3.996 4.588 8.677 7.047 10.467 5.492 1.787-1.561 0-6.545-3.987-11.127-3.993-4.584-8.676-7.041-10.466-5.486-1.792 1.555-.003 6.535 3.986 11.121z"/><g><path fill="#A3A2A3" d="M149.77 35.967c-6.657 11.398-21.299 15.252-32.696 8.594-11.405-6.658-15.248-21.305-8.591-32.705C115.14.454 129.782-3.392 141.182 3.268c11.4 6.658 15.246 21.296 8.588 32.699z"/><path fill="#D1ACB3" d="M141.92 30.607c-4.201 7.199-13.446 9.629-20.646 5.42-7.199-4.199-9.625-13.445-5.421-20.646 4.2-7.193 13.446-9.621 20.642-5.418 7.201 4.205 9.628 13.449 5.425 20.644z"/><path fill="#D7C4C9" d="M142.002 32.289c-4.115 7.045-13.152 9.414-20.188 5.305-7.039-4.109-9.416-13.145-5.303-20.189 4.109-7.039 13.146-9.408 20.188-5.299 7.035 4.109 9.413 13.144 5.303 20.183z"/><path fill="#A3A2A3" d="M206.277 66.315c-9.633 7.535-23.545 5.84-31.084-3.79-7.541-9.635-5.85-23.553 3.783-31.092 9.634-7.533 23.549-5.848 31.086 3.787 7.542 9.634 5.845 23.55-3.785 31.095z"/><path fill="#D1ACB3" d="M201.354 59.012c-6.087 4.76-14.865 3.691-19.631-2.391-4.76-6.08-3.691-14.871 2.395-19.631 6.075-4.764 14.869-3.689 19.629 2.395 4.759 6.08 3.687 14.865-2.393 19.627z"/><path fill="#D7C4C9" d="M200.531 60.393c-5.941 4.657-14.536 3.608-19.193-2.344-4.651-5.945-3.605-14.537 2.339-19.193 5.95-4.654 14.543-3.605 19.193 2.344 4.659 5.943 3.609 14.538-2.339 19.193z"/><path fill="#B3B2B3" d="M186.945 116.729l1.973-3.43s-1.299-6.084-3.669-7.672c-2.61-1.748-5.178-4.303-7.28-6.689a39.78 39.78 0 006.146-8.012c11.114-19.029 4.695-43.475-14.34-54.59-19.032-11.113-43.479-4.693-54.592 14.34-11.115 19.034-5.508 43.143 12.848 55.346 23.17 15.416 58.914 10.707 58.914 10.707z"/><path fill="#A3A2A3" d="M130.366 107.34c-18.358-12.201-23.964-36.313-12.847-55.346 10.783-18.471 34.125-25.061 52.892-15.275-.21-.129-.421-.258-.636-.383-19.032-11.113-43.479-4.693-54.592 14.34-11.115 19.034-5.508 43.143 12.848 55.346a52.035 52.035 0 004.361 2.598 48.95 48.95 0 01-2.026-1.28z"/><path fill="#494646" d="M191.949 114.645c-1.852 3.174-6.488 3.914-10.354 1.652-3.864-2.256-5.495-6.658-3.647-9.826 1.856-3.178 6.494-3.914 10.354-1.658 3.866 2.256 5.503 6.652 3.647 9.832z"/><path fill="#222221" d="M177.777 108.981c1.854-3.18 6.492-3.914 10.355-1.658 2.476 1.445 4.034 3.768 4.348 6.088.883-3.006-.793-6.621-4.179-8.598-3.86-2.256-8.498-1.52-10.354 1.658-.664 1.137-.877 2.436-.699 3.736.125-.423.299-.835.529-1.226zM193.279 105.192c-.215.219-2.765-3.012-7.36-4.525-4.556-1.557-8.59-1.092-8.597-1.375-.101-.256 4.07-1.219 8.922.428 2.4.813 4.312 2.17 5.475 3.326 1.164 1.175 1.655 2.074 1.56 2.146z"/><path fill="#222221" d="M192.322 97.952c-.084.26-3.328-.658-7.396-.182-4.066.402-7.219 1.6-7.324 1.342-.133-.24 2.965-1.91 7.225-2.34 4.288-.496 7.636.928 7.495 1.18zM153.238 84.295c-.422 2.047-1.781 3.496-3.029 3.238-1.25-.256-1.921-2.121-1.499-4.17.42-2.049 1.774-3.496 3.025-3.24 1.249.258 1.923 2.126 1.503 4.172z"/><ellipse transform="rotate(16.81 172.372 89.822)" fill="#222221" cx="172.347" cy="89.802" rx="2.313" ry="3.782"/><path fill="#222221" d="M106.354 87.485c-.087-.137 1.063-.902 3.24-1.498 2.162-.604 5.313-.982 8.815-.9 7.02.156 12.657 1.678 12.603 1.992-.035.346-5.65-.607-12.504-.758-3.424-.08-6.479.15-8.633.52-2.158.355-3.424.818-3.521.644zM105.739 72.204c.005-.287 6.739.867 14.185 4.938 7.499 4 12.049 9.359 11.697 9.566-.196.178-4.955-4.617-12.244-8.504-7.227-3.959-13.723-5.621-13.638-6z"/><g><path d="M160.289 111.389c-.014.07-.373.074-1.012.002a24.28 24.28 0 01-2.674-.49 28.716 28.716 0 01-3.865-1.211c-1.422-.561-2.953-1.305-4.422-2.328-1.468-1.02-2.715-2.238-3.604-3.529-.898-1.289-1.425-2.633-1.668-3.787-.244-1.16-.224-2.125-.134-2.771.088-.65.244-.992.314-.975.073.018.06.367.1.99.04.621.134 1.518.453 2.568a10.943 10.943 0 001.733 3.4c.861 1.158 2.032 2.266 3.416 3.227 1.384.967 2.833 1.705 4.188 2.299 1.355.59 2.622 1.035 3.693 1.389s1.951.613 2.557.813c.606.194.939.329.925.403z"/><path d="M160.289 111.389c-.014.07-.373.074-1.012.002a24.28 24.28 0 01-2.674-.49 28.716 28.716 0 01-3.865-1.211c-1.422-.561-2.953-1.305-4.422-2.328-1.468-1.02-2.715-2.238-3.604-3.529-.898-1.289-1.425-2.633-1.668-3.787-.244-1.16-.224-2.125-.134-2.771.088-.65.244-.992.314-.975.073.018.06.367.1.99.04.621.134 1.518.453 2.568a10.943 10.943 0 001.733 3.4c.861 1.158 2.032 2.266 3.416 3.227 1.384.967 2.833 1.705 4.188 2.299 1.355.59 2.622 1.035 3.693 1.389s1.951.613 2.557.813c.606.194.939.329.925.403z"/><path fill="#B3B2B3" d="M156.604 110.901a28.716 28.716 0 01-3.865-1.211c-1.422-.561-2.953-1.305-4.422-2.328-.315-.219-.62-.449-.916-.689-.186.508-.57 1.461-.701 2.223-.176 1.031-.174 2.133.383 2.816 1.273 1.561 5.411 4.309 9.53-.51.034-.039.122-.152.202-.254l-.211-.047z"/><path fill="#FFF" d="M156.604 110.901a28.716 28.716 0 01-3.865-1.211c-1.422-.561-2.953-1.305-4.422-2.328a15.543 15.543 0 01-.797-.594c-.182.5-.393 1.115-.482 1.639-.175 1.031-.174 2.131.386 2.811.347.428.908.943 1.626 1.369.098.059.2.119.309.174 1.869.975 4.627 1.254 7.399-1.826-.053-.013-.102-.022-.154-.034z"/><path fill="#B3B2B3" d="M151.582 110.11c-1.315 1.789-2.202 2.285-2.755 2.338a6.957 6.957 0 00.531.313c.229.119.47.227.722.32.426-.739 1.963-3.594 1.502-2.971z"/></g></g><path fill="#A3A2A3" d="M120.409 106.526c-2.763-1.441-9.774.447-12.249 10.021-3.01 11.639 1.08 18.32 2.307 23.088.007.025-3.08 1.387-3.354 2.229-.387 1.209 2.454.846 2.454.846s-2.327 2.32-2.02 3.072c.506 1.236 3.831-1.406 3.831-1.406s-2.496 3.193-1.481 3.732c1.526.814 2.873-2.57 4.987-2.807 2.115-.236 2.591.66 3.322-.5.443-.697-2.122-3.242-2.122-3.242s-.343-7.729 3.991-21.104c2.711-8.363 1.978-13.074.334-13.929z"/></g></svg>