<svg xmlns="http://www.w3.org/2000/svg" width="128" height="116"><path fill="#A3A2A3" d="M68.123 93.257s8.215 3.103 17.96 1.772c0 0 1.275-1.889 1.299-3.013.023-1.123.688-1.129 1.205-.462.517.667.37 1.849 0 3.475-.37 1.626-.786 1.07-.635 2.106.246 1.681 1.477-.382 1.853 1.127.5 1.994-4.173 1.125-4.173 1.125s-3.842 2.807-8.792 2.956c-4.95.148-8.717-9.086-8.717-9.086zM56.496 103.535c-1.01-3.787-1.54-7.422-1.817-9.996-1.853 1.221-10.118 6.782-13.145 10.704 0 0-2.182.744-2.403 1.349-.313.868 1.76.676 1.76.676s-1.75 1.626-1.545 2.18c.334.911 2.821-.923 2.821-.923s-1.898 2.253-1.173 2.674c1.089.632 2.154-1.793 3.694-1.91 1.543-.118 1.866.545 2.425-.279.341-.495-1.293-1.719-1.293-1.719s6.659-2.332 10.676-2.756z"/><path fill="#A3A2A3" d="M82.719 112.814c-1.464-13.716-18.767-21.479-18.767-21.479l-7.898 1.17s-5.326 12.855-4.353 23.494H82.76c.073-.887.068-2.163-.041-3.185z"/><path fill="#D7C4C9" d="M70.138 96.567c-10.997-9.532-13.811 11.452-12.617 19.432h22.958c.194-6.206-3.806-13.765-10.341-19.432z"/><path fill="#D1ACB3" d="M72.056 99.309c2.066 1.792 3.879 3.667 5.386 5.755-1.776-3.154-4.267-6.051-7.304-8.686-10.997-9.531-13.811 11.642-12.617 19.621h1.676c-.227-9.752 3.08-25.168 12.859-16.69z"/><path fill="#7F7D7D" d="M51.574 112.876c-3.483-1.717-7.949-2.715-12.969-.924-10.535 3.757-16.367-6.367-12.278-10.902 0 0-3.361 2.961-1.728 7.238 1.496 3.904 6.02 7.797 16.273 5.257 3.496-.866 7.108.683 9.909 2.455h.966c-.107-.888-.17-2.09-.173-3.124z"/><path fill="#A3A2A3" d="M86.96 95.154c.711-.134.633-.399 1.417 0s1.273.867 1.303 2.073c.029 1.201-1.164 1.594-1.654 1.736-.697.202-1.635-.334-1.635-.334l.569-3.475zM36.605 42.921c.775 10.092-6.775 18.908-16.866 19.683C9.642 63.381.831 55.823.055 45.732c-.777-10.096 6.776-18.907 16.87-19.683 10.094-.774 18.904 6.777 19.68 16.872z"/><path fill="#D1ACB3" d="M29.317 42.965c.492 6.373-4.277 11.939-10.652 12.429-6.373.491-11.937-4.279-12.426-10.654-.49-6.37 4.28-11.933 10.651-12.424 6.376-.489 11.941 4.28 12.427 10.649z"/><path fill="#D7C4C9" d="M30.104 43.991c.478 6.235-4.186 11.674-10.415 12.152-6.23.479-11.671-4.179-12.151-10.416-.482-6.232 4.185-11.668 10.417-12.148 6.228-.478 11.67 4.18 12.149 10.412z"/><path fill="#A3A2A3" d="M85.475 37.401c-2.784 8.955-12.298 13.955-21.252 11.174-8.958-2.783-13.965-12.297-11.18-21.255 2.79-8.952 12.299-13.962 21.253-11.173 8.958 2.783 13.961 12.297 11.179 21.254z"/><path fill="#D1ACB3" d="M79.186 34.947c-1.761 5.656-7.764 8.813-13.421 7.057-5.654-1.757-8.817-7.767-7.055-13.423 1.753-5.654 7.767-8.813 13.42-7.055 5.655 1.758 8.811 7.764 7.056 13.421z"/><path fill="#D7C4C9" d="M79.269 36.175c-1.714 5.529-7.591 8.618-13.124 6.896-5.527-1.719-8.618-7.592-6.9-13.123 1.722-5.528 7.598-8.617 13.125-6.895 5.53 1.715 8.619 7.593 6.899 13.122z"/><path fill="#B3B2B3" d="M95.281 77.624l-.251-2.997s-3.586-3.269-5.852-3.261c-2.364.009-5.015-.473-7.319-1.044a30.54 30.54 0 00.38-7.733C80.945 45.74 66.233 33.128 49.38 34.425c-16.848 1.297-29.461 16.011-28.164 32.859 1.295 16.851 15.348 29.607 32.247 29.292 21.335-.388 41.818-18.952 41.818-18.952z"/><path fill="#A3A2A3" d="M55.51 96.389c-16.897.315-30.951-12.44-32.248-29.292-1.259-16.353 10.586-30.689 26.687-32.706-.189.011-.377.019-.568.036-16.848 1.295-29.461 16.009-28.164 32.857 1.295 16.851 15.348 29.607 32.247 29.292a39.66 39.66 0 003.884-.265 36.53 36.53 0 01-1.838.078z"/><path fill="#494646" d="M97.527 74.128c.216 2.809-2.382 5.299-5.809 5.561-3.419.263-6.37-1.801-6.587-4.605-.215-2.814 2.388-5.301 5.806-5.563 3.423-.267 6.373 1.791 6.59 4.607z"/><path fill="#222221" d="M86.119 76.739c-.217-2.813 2.387-5.302 5.806-5.563 2.192-.169 4.189.615 5.399 1.941-.755-2.28-3.389-3.828-6.386-3.597-3.417.262-6.021 2.748-5.806 5.561.078 1.008.511 1.92 1.189 2.661a4.162 4.162 0 01-.202-1.003zM94.242 67.587c-.042.23-3.058-.694-6.616.358-3.55 1.006-5.891 3.058-6.021 2.883-.173-.118 2.036-2.544 5.814-3.622 1.865-.537 3.665-.513 4.903-.291 1.245.231 1.947.585 1.92.672z"/><path fill="#222221" d="M90.479 63.438c.06.2-2.386 1.038-4.744 3.113-2.388 2.027-3.854 4.158-4.032 4.043-.19-.096 1.036-2.499 3.533-4.629 2.488-2.185 5.221-2.747 5.243-2.527z"/><ellipse transform="rotate(-113.048 58.252 72.572)" fill="#222221" cx="58.249" cy="72.573" rx="2.899" ry="1.772"/><ellipse transform="rotate(-107.866 74.33 67.012)" fill="#222221" cx="74.332" cy="67.013" rx="2.9" ry="1.774"/><path fill="#222221" d="M31.708 94.346c-.114-.047.275-1.03 1.389-2.358 1.1-1.322 2.92-2.937 5.166-4.414 4.495-2.964 8.711-4.463 8.814-4.242.129.234-3.825 2.084-8.215 4.979-2.193 1.44-4.019 2.921-5.217 4.094-1.205 1.165-1.801 2.008-1.937 1.941zM24.653 84.978c-.124-.182 4.627-2.393 11.098-3.074 6.474-.75 11.68.646 11.549.928-.048.197-5.139-.748-11.432-.02-6.282.656-11.102 2.441-11.215 2.166z"/><g><path d="M76.144 85.889c.021.051-.204.208-.638.443-.434.229-1.079.535-1.899.855-.823.318-1.822.656-2.964.923a16.683 16.683 0 01-3.804.463c-1.371-.004-2.689-.229-3.814-.653a8.142 8.142 0 01-2.704-1.66c-.66-.626-1.069-1.243-1.293-1.688-.229-.45-.277-.732-.226-.752.053-.022.198.205.494.578.299.375.748.9 1.408 1.424a8.408 8.408 0 002.575 1.385c1.05.355 2.271.543 3.563.546 1.292.005 2.53-.163 3.642-.379a32.853 32.853 0 002.937-.734c.831-.246 1.497-.464 1.966-.604.466-.142.733-.203.757-.147z"/><path d="M76.144 85.889c.021.051-.204.208-.638.443-.434.229-1.079.535-1.899.855-.823.318-1.822.656-2.964.923a16.683 16.683 0 01-3.804.463c-1.371-.004-2.689-.229-3.814-.653a8.142 8.142 0 01-2.704-1.66c-.66-.626-1.069-1.243-1.293-1.688-.229-.45-.277-.732-.226-.752.053-.022.198.205.494.578.299.375.748.9 1.408 1.424a8.408 8.408 0 002.575 1.385c1.05.355 2.271.543 3.563.546 1.292.005 2.53-.163 3.642-.379a32.853 32.853 0 002.937-.734c.831-.246 1.497-.464 1.966-.604.466-.142.733-.203.757-.147z"/><path fill="#B3B2B3" d="M73.606 87.188c-.823.318-1.822.654-2.964.923-1.141.267-2.432.464-3.804.461a13.478 13.478 0 01-.879-.035c.105.4.277 1.171.527 1.707.339.728.821 1.422 1.47 1.607 1.484.43 5.292.356 5.787-4.478.005-.04.01-.149.017-.248-.051.022-.102.042-.154.063z"/><path fill="#FFF" d="M73.606 87.188c-.823.318-1.822.654-2.964.923-1.141.267-2.432.464-3.804.461-.256 0-.51-.011-.762-.026.104.394.24.874.41 1.241.339.729.821 1.422 1.47 1.607.405.117.983.197 1.622.154.087-.008.179-.013.271-.026 1.604-.2 3.465-1.229 3.868-4.379-.037.013-.072.029-.111.045z"/><path fill="#B3B2B3" d="M70.095 88.879c-.047 1.702-.392 2.401-.718 2.677a3.41 3.41 0 00.201-.008c.087-.008.179-.013.271-.026a4.81 4.81 0 00.595-.112c-.053-.654-.33-3.125-.349-2.531z"/></g><path fill="#F1E9E9" d="M108.934 27.656C119.988 24.152 128 13.813 128 1.6c0-.537-.02-1.07-.05-1.6h-14.691A28.943 28.943 0 01115 9.917a28.862 28.862 0 01-6.066 17.739z"/></svg>